<?xml version="1.0" encoding="utf-8"?>
<!-- Generator: Adobe Illustrator 24.1.1, SVG Export Plug-In . SVG Version: 6.00 Build 0)  -->
<svg version="1.1" id="Layer_1" xmlns="http://www.w3.org/2000/svg" xmlns:xlink="http://www.w3.org/1999/xlink" x="0px" y="0px"
	 viewBox="0 0 612 792" style="enable-background:new 0 0 612 792;" xml:space="preserve">
<style type="text/css">
	.st0{fill:#B66612;}
	.st1{fill:#9C5708;}
	.st2{fill:#FFFFFF;}
	.st3{fill:#7E4300;}
	.st4{fill:#0E4434;}
	.st5{fill-rule:evenodd;clip-rule:evenodd;fill:#FFFFFF;}
	.st6{fill-rule:evenodd;clip-rule:evenodd;fill:#0E4434;}
</style>
<g id="SKY">
	<g>
		<g>
			<path class="st0" d="M328.18,377.89c0.08-0.17,0.25-0.53,0.25-0.63s-0.21-1.67-0.21-1.83c0-0.17-0.02-0.99-0.02-1.14
				c0-0.15,0.11-0.15,0.02-0.32c-0.08-0.17-1.27-0.57-1.6-0.74c-0.34-0.17-0.99-0.57-1.22-0.53s-1.52,0.23-1.52,0.23
				c-0.17,0.02-1.18-0.21-1.41-0.13c-0.23,0.08-1.37,0.06-1.56,0.06c-0.19,0-0.38-0.27-0.46-0.3c-0.08-0.02-0.42-0.3-0.44-0.36
				s-0.25-0.3-0.32-0.32s-1.24-0.25-1.45-0.32c-0.21-0.06-0.74-0.74-0.82-1.27c-0.08-0.53,0.2-1.35,0.53-1.37
				c0.13-0.13,1.1-0.7,1.1-0.78s-0.13-0.59-0.13-0.59s0.04-0.07,0-0.24c-0.05-0.19-0.13-0.26-0.23-0.35
				c-0.16-0.12-1.09-0.88-1.19-0.94c-0.11-0.06-0.87-1.04-1.03-1.2c-0.18-0.11-2.44-0.23-2.95-0.31c-0.38-0.06-1.43-0.53-1.65-0.65
				c-0.21-0.13-0.72-0.21-0.88-0.25c-0.11,0-2.7,0.12-3.01,0.2c-0.27,0.07-1.05,0.09-1.11,0.09c-0.15,0-2.07,0.15-2.39,0.13
				c-0.32-0.02-1.02,0.05-1.22,0.08c-0.13,0.02-0.8,0.13-1.25,0.26c-0.17,0.01-1.37,0.48-1.48,0.51s-1.06,0.32-1.24,0.36
				c-0.19,0.04-0.8,0.3-0.97,0.3c-0.17,0-1.03,0.36-1.24,0.38c-0.21,0.02-1.17,0.46-1.31,0.5c-0.17,0.05-0.91,0.33-1.13,0.38
				c-0.13,0.03-0.21,0.15-0.65,0.23c0,0-0.17,0.49-0.19,0.62c-0.01,0.16,0.08,0.45,0.26,0.59c0.18,0.14,0.45,0.78,0.56,0.99
				c0.11,0.22,0.4,1.13,0.4,1.45c0,0.32-0.35,1.26-0.54,1.4c-0.13,0.09-0.6,0.47-1.43,0.57c-0.32,0.04-1.93-0.51-2.14-0.6
				c-0.21-0.08-1.36-0.54-1.83-0.72s-0.68-0.26-1.05-0.04c-0.29,0.17-1.29,0.8-1.5,0.95c-0.22,0.14-1.42,0.53-1.49,0.64
				c-0.07,0.11-0.05,0.44-0.05,0.65s-0.38,2-0.37,2.21c0.03,0.06,0.14,0.28,0.24,0.45c0.2,0.32,0.46,0.76,0.62,0.9
				c0.41,0.36,0.11,1.45,0.11,1.67c0,0.22-0.22,0.79-0.32,1.04c-0.11,0.25-0.11,1,0.04,1.25c0.14,0.25,0.22,0.43,0.32,0.57
				c0.11,0.14,0.36,1.36,0.36,1.65s-0.11,1.04-0.04,1.18c0.07,0.14,0.68,1.32,0.75,1.54c0.07,0.22,0,1.11,0,1.11s-0.04,0.57-0.07,1
				c-0.04,0.43-0.14,0.5-0.18,0.68c-0.04,0.18-0.25,0.43-0.18,0.57c0.07,0.14,0.18,0.54,0.36,0.68c0.18,0.14,0.82,1.83,1,2.22
				c0.18,0.39,0.89,2.65,0.97,2.97c0.07,0.32,0.17,1.26,0.17,1.26c0.02,0.07,0.11,0.27,0.17,0.46c0.09,0.31,0.21,0.7,0.24,0.87
				c2.04-0.31,8.28-3.35,9.78-3.62l4.8-1.67c0.18-0.04,0.56-0.35,0.68-0.44c0.69-0.58,1.38-0.95,2.17-1.13
				c0.98-0.05,1.9-0.12,2.9-0.12c0.71-0.35,0.94-0.89,1.69-1.17l0.52-0.23c0.3,0.18,0.51-0.05,0.85-0.2
				c0.09-0.09,0.34-0.39,0.36-0.46l0.66-0.35c0.67,0.51,1.19,1.31,1.76,1.95c0.14,0.37,0.61,0.41,0.91,0.68
				c0.28,0.18,0.62,0.22,0.87,0.5c0.28,0.12,0.67,0.16,0.85,0.42c0,0,1.57,0.99,2.28,1.61c0.44,0.21,0.71,0.64,1.13,0.81
				c0.51,0.29,0.92,0.56,1.49,0.87c0.66,0.39,1.38,0.8,1.53,0.89c0.36-0.5,0.81-1.08,0.87-1.14c0.08-0.11,0.19-0.4,0.17-0.48
				c-0.02-0.08,0.06-0.8,0.06-0.97c0-0.17,0.08-0.32,0.11-0.4c0.02-0.08,0.27-0.59,0.32-0.72s0.15-0.57,0.11-0.7
				c-0.04-0.13-0.21-0.82-0.32-1.08c-0.11-0.25-0.27-1.06-0.36-1.22c-0.08-0.17,0.95-1.37,1.12-1.6c0.17-0.23,0.53-0.63,0.53-0.74
				s-0.04-1.2-0.04-1.29s0-0.51,0.11-0.8c0.11-0.3,0.55-1.39,0.53-1.54c-0.02-0.15,0-0.86-0.02-1.08c-0.02-0.21,0.13-1.06,0.15-1.18
				c0.02-0.13,0.38-0.7,0.42-0.82c0.04-0.13-0.11-0.23-0.17-0.42c-0.06-0.19-0.27-0.86-0.32-0.97c-0.04-0.11,0.02-0.27,0.06-0.38
				C327.78,378.56,328.09,378.05,328.18,377.89z"/>
		</g>
	</g>
</g>
<g id="MOUNTAIN">
	<g>
		<g>
			<path class="st1" d="M321.4,394.43c-0.42-0.18-0.69-0.6-1.13-0.81c-0.71-0.62-2.28-1.61-2.28-1.61c-0.18-0.27-0.57-0.3-0.85-0.42
				c-0.25-0.28-0.58-0.32-0.87-0.5c-0.3-0.27-0.77-0.31-0.91-0.68c-0.57-0.64-1.09-1.44-1.76-1.95l-0.66,0.35
				c-0.03,0.07-0.27,0.37-0.36,0.46c-0.34,0.14-0.56,0.37-0.85,0.2l-0.52,0.23c-0.75,0.28-0.98,0.81-1.69,1.17
				c-1,0-1.92,0.07-2.9,0.12c-0.79,0.17-1.48,0.55-2.17,1.13c-0.13,0.09-0.51,0.4-0.68,0.44l-4.8,1.67
				c-1.5,0.26-7.74,3.31-9.78,3.62c0.01,0.04,0.02,0.07,0.02,0.09c0,0.11,0.03,1.1,0.07,1.25c0.03,0.1,0.22,0.61,0.49,1
				c0.1,0.15,0.24,0.29,0.28,0.34c0.12,0.17,0.22,1.71,0.67,2.21c0.12,0.13,1.76,2.33,1.97,2.47c0.21,0.14,1.04,1.61,1.15,1.72
				c0.11,0.11,0.5,0.5,0.61,0.65c0.11,0.14,0.66,1.29,0.72,1.61c0.02,0.11,0.05,0.55,0.1,0.67c0.16,0.17,0.71,0.57,1.15,0.69
				c0.14,0.04,0.35,0.44,0.57,0.72c0.06,0.07,0.11,0.11,0.16,0.2c0.1,0.22,0.15,0.5,0.15,0.5c0.06,0.13,0.59,1.15,0.67,1.23
				c0.08,0.08,1.18,1.27,1.29,1.43c0.11,0.17-0.04,0.23,0.08,0.42c0.13,0.19,0.36,0.84,0.48,0.94c0.15,0.14,0.24,0.77,0.24,0.77
				s0.13,0.19,0.28,0.19c0.15,0,0.93,0.78,1.1,0.89s0.02,0.3,0.02,0.3s0.24,0.5,0.47,0.68c0.2,0.16,0.65,0.38,0.73,0.42
				s0.98,0.43,1.22,0.53c0.22,0.09,1.24,0.53,2.02,0.69c0.59,0.12,2.02,0.38,2.32,0.25c0.32-0.14,0.57-0.25,0.93-0.48
				c0.36-0.23,0.3-0.25,0.61-0.53c0.32-0.27,0.54-0.52,0.61-0.64s0.3-0.39,0.39-0.45c0.08-0.06,0.2-0.14,0.25-0.25
				c0.04-0.1,0.26-0.36,0.3-0.43c0.11-0.2,0.86-0.88,0.92-0.96c0.06-0.08,0.4-0.82,0.44-1.06c0.04-0.23,0.17-0.46,0.23-0.59
				c0.06-0.13,0.52-0.46,0.72-0.57c0.17-0.09,0.51-0.38,0.51-0.53s0.14-0.76,0.27-0.82c0.13-0.06,1.31-0.93,1.39-1.01
				c0.06-0.06,0.86-0.78,1-0.89c0-0.07-0.01-0.19-0.01-0.31c0-0.13,0.13-0.51,0.22-0.78c0.09-0.28,0.3-0.56,0.41-0.72
				c0.16-0.22,1.03-0.97,1.1-1.01s0.23-0.08,0.23-0.17c0-0.08-0.11-0.29-0.15-0.46c-0.03-0.12,0.32-0.84,0.4-0.99
				c0.08-0.15,0.39-0.37,0.55-0.49s0.25-0.33,0.23-0.42s-0.08-0.29-0.09-0.47c-0.01-0.13,0.02-0.52,0.06-0.65
				c0.04-0.13,0.07-0.27,0.14-0.48c0,0,0.12-0.36,0.21-0.6c0.08-0.23,0.89-1.24,0.89-1.24c0.15-0.17,0.25-0.42,0.25-0.48
				s0.17-0.61,0.21-0.72s1.24-1.39,1.5-1.65c0.25-0.25,0.21-0.44,0.21-0.51s0.1-0.82,0.25-1.06c0.18-0.27,0.46-1.03,0.63-1.39
				c0.06-0.13,0.24-0.39,0.44-0.67c-0.15-0.09-0.87-0.51-1.53-0.89C322.32,394.98,321.91,394.72,321.4,394.43z"/>
		</g>
	</g>
</g>
<g id="SNOW_CAP">
	<g>
		<polygon class="st2" points="301.39,393.14 301.47,393.35 301.92,393.19 		"/>
	</g>
	<g>
		<path class="st2" d="M314.31,392.76c0.07,0.02,0.85,0.33,1.35,0.64c0.15,0.08,0.39,0.33,0.48,0.41c0.06,0.09-0.08,0.07-0.01,0.1
			c0.05,0.06,0.32,0.11,0.38,0.16c0.08,0.06,0.23,0.11,0.36,0.21c0.06,0.11,0.13,0.22,0.21,0.33c0.05,0.07,0.1,0.13,0.16,0.18
			c0.14,0.17,0.31,0.27,0.39,0.29c0.04,0.01,0.19,0.38,0.97,0.5c0.22,0.12,0.45,0.24,0.69,0.35c0.1,0.02,0.37-0.02,0.44-0.01
			c-0.14-0.05,0.1,0.02,0.1,0.02s0.32,0.16,1.13,0.11c0.06,0,2.32,0.21,2.38,0.2c0.11-0.01,0.22-0.01,0.32-0.02
			c0.1-0.01,0.52-0.02,0.77-0.03c-0.09-0.05-1.77-1.04-1.85-1.08c-0.42-0.24-0.76-0.46-1.18-0.69c-0.42-0.18-0.69-0.6-1.13-0.81
			c-0.71-0.62-2.28-1.61-2.28-1.61c-0.18-0.27-0.57-0.3-0.85-0.42c-0.25-0.28-0.58-0.32-0.87-0.5c-0.3-0.27-0.77-0.31-0.91-0.68
			c-0.57-0.64-1.09-1.44-1.76-1.95l-0.66,0.35c-0.03,0.07-0.27,0.37-0.36,0.46c-0.34,0.14-0.56,0.37-0.85,0.2l-0.52,0.23
			c-0.75,0.28-0.98,0.81-1.69,1.17c-1,0-1.92,0.07-2.9,0.12c-0.79,0.17-1.48,0.55-2.17,1.13c-0.13,0.09-0.51,0.4-0.68,0.44
			l-1.84,0.64l-8.57,3.2l-1.87,0.74l-0.95,0.35l-0.44,0.36l-0.89,0.32l0.01,0.51l2.43-0.62l1.67-0.41c0.03-0.03,9.52-2.71,9.63-2.76
			s1.23-0.03,1.33-0.07c0.1-0.04,0.61-0.19,0.66-0.21s0.66-0.18,0.74-0.18c0.07,0,0.33-0.16,0.39-0.23
			c0.06-0.07,0.44-0.32,0.51-0.32c0,0,0.25,0.01,0.33,0.01c0.08,0.01,0.97,0.16,0.97,0.16l0.7,0.04l0.49-0.05
			c0,0,0.07-0.08,0.15-0.16c0.08-0.08,0.17-0.17,0.18-0.17c0.03-0.01,0.13-0.02,0.18,0.01c0.01,0-0.22,0.2-0.36,0.46
			c-0.02,0.1-0.01,0.16-0.04,0.23c-0.07,0.12-0.09,0.24-0.11,0.35c-0.04,0.07-0.13,0.19-0.17,0.24c-0.17,0.19-0.18,0.34-0.17,0.37
			c0.05,0.01,0.18,0.04,0.24,0.05c0.02-0.02,0.2-0.36,0.21-0.43c0.06-0.06,0.17-0.19,0.22-0.24c0.04-0.04,0.37-0.4,0.47-0.56
			c0.06-0.07,0.05-0.1,0.07-0.18c0.08-0.13,0.07-0.22,0.07-0.22s0.2-0.38,0.2-0.39c0.01-0.01,0.06-0.13,0.08-0.14
			c0.01-0.01,1.54-1.45,1.54-1.45l0.57,0.11c0,0,0.04,0.08,0.08,0.23c0.05,0.17,0.1,0.43,0.12,0.5c0.01,0.03,0.03,0.12,0.06,0.2
			c0.03,0.18,0.06,0.5,0.08,0.67c0.02,0.19,0.02,0.32,0.02,0.34c0.02,0,0.27,0.33,0.34,0.34c0,0.06-0.07,0.35,0.29,0.46
			c0.02,0.14,0.01,0.16,0.12,0.28c0.24,0.17,0.48,0.41,0.51,0.41c0.08,0.01,0.25-0.18,0.32-0.16c0.01,0-0.03-0.05-0.05-0.09
			c-0.02-0.04-0.32-0.13-0.36-0.2c-0.09-0.08-0.08-0.13-0.08-0.21c-0.04-0.33-0.31-0.71-0.29-0.7c0.3-0.05,0.25-0.18,0.28-0.14
			c0.07,0.13,0.19,0.63,0.23,0.6c0.04-0.03,0.26,0.09,0.3,0.06c0.02-0.02-0.08-1.02-0.05-1.03"/>
	</g>
</g>
<g id="MOUNTAIN_DETAIL">
	<g>
		<path class="st3" d="M314.24,391.77c-0.19,0.05-0.51-0.25-0.63-0.43C314.1,390.74,314.25,391.79,314.24,391.77z"/>
	</g>
	<g>
		<path class="st3" d="M309.94,391.86c0,0.23-0.57,0.46-0.26,0.71c-0.05-0.01-0.01,0.06-0.06,0.07c-0.18,0.02-0.36-0.02-0.6,0.03
			C309.02,392.28,309.59,391.91,309.94,391.86z"/>
	</g>
	<g>
		<path class="st3" d="M307.91,392c-0.3,0.27-0.86,0.75-1.66,1.33c-0.16,0.05-0.17-0.27-0.39-0.08l-0.09-0.08
			C306.37,392.66,307.66,392.11,307.91,392z"/>
	</g>
	<g>
		<path class="st3" d="M310.39,392.5c-0.16,0.14-0.32,0.36-0.55,0.29c-0.04-0.23,0.27-0.35,0.36-0.47
			C310.22,392.41,310.27,392.49,310.39,392.5z"/>
	</g>
	<g>
		<path class="st3" d="M313.86,392.54l-0.19,0.01c0,0-0.08-0.06-0.01-0.11s0.16-0.04,0.2-0.01
			C313.9,392.47,313.86,392.54,313.86,392.54z"/>
	</g>
	<g>
		<path class="st3" d="M316.82,393.06l0.18,0.47l-0.77-1C316.53,392.68,316.71,392.68,316.82,393.06z"/>
	</g>
	<g>
		<path class="st3" d="M316.41,392.79l0.18,0.47l-0.77-1C316.11,392.41,316.3,392.41,316.41,392.79z"/>
	</g>
	<g>
		<path class="st3" d="M319.36,394.43l-0.04,0.09l-0.75-0.84C318.88,393.68,319.25,394.05,319.36,394.43z"/>
	</g>
	<g>
		<path class="st3" d="M308.51,392.83c-0.16,0.19-0.63,0.45-0.5,0.69c-0.27-0.04-0.51,0.05-0.83-0.01
			C307.64,393.35,308.1,393.09,308.51,392.83z"/>
	</g>
	<g>
		<polygon class="st3" points="307.04,393.26 307.53,392.98 307.69,393 		"/>
	</g>
	<g>
		<path class="st3" d="M308.85,393.36c0.02,0.07-0.1,0.13-0.11,0.17h-0.13C308.66,393.49,308.78,393.36,308.85,393.36z"/>
	</g>
</g>
<g id="MOUNTAIN_OUTLINE">
	<g>
		<path class="st1" d="M289.21,398.01l-0.05-0.35c1.09-0.16,3.51-1.17,5.65-2.06c1.82-0.76,3.4-1.42,4.1-1.55l4.81-1.67
			c0.1-0.02,0.37-0.23,0.49-0.32c0.05-0.04,0.09-0.07,0.12-0.09c0.74-0.62,1.45-0.98,2.23-1.15l0.03,0c0.2-0.01,0.39-0.02,0.59-0.03
			c0.77-0.04,1.49-0.09,2.28-0.09c0.28-0.15,0.48-0.33,0.69-0.51c0.27-0.24,0.54-0.48,0.98-0.64l0.6-0.27l0.08,0.05
			c0.12,0.08,0.21,0.04,0.44-0.08c0.07-0.04,0.14-0.07,0.22-0.11c0.09-0.1,0.28-0.33,0.3-0.38l0.02-0.06l0.06-0.02l0.76-0.4
			l0.09,0.07c0.48,0.36,0.88,0.86,1.26,1.34c0.18,0.22,0.35,0.43,0.52,0.63l0.02,0.02l0.01,0.03c0.06,0.16,0.23,0.25,0.43,0.34
			c0.14,0.07,0.29,0.14,0.42,0.25c0.09,0.05,0.18,0.09,0.28,0.14c0.19,0.08,0.4,0.17,0.58,0.36c0.07,0.03,0.14,0.05,0.22,0.07
			c0.23,0.07,0.49,0.15,0.65,0.37c0.22,0.14,1.59,1.01,2.26,1.59c0.23,0.11,0.4,0.27,0.58,0.42c0.17,0.15,0.33,0.3,0.52,0.37
			l0.02,0.01c0.25,0.14,0.46,0.27,0.69,0.4c0.25,0.15,0.5,0.3,0.8,0.47c0.28,0.16,0.57,0.33,0.82,0.48
			c0.38,0.22,0.66,0.38,0.72,0.42l-0.19,0.3c-0.05-0.03-0.36-0.21-0.71-0.41c-0.25-0.14-0.54-0.31-0.82-0.47
			c-0.3-0.17-0.56-0.32-0.81-0.47c-0.22-0.13-0.43-0.26-0.67-0.39c-0.24-0.1-0.43-0.27-0.61-0.43c-0.17-0.15-0.33-0.29-0.52-0.38
			l-0.04-0.03c-0.69-0.6-2.24-1.58-2.26-1.59l-0.03-0.02l-0.02-0.03c-0.09-0.14-0.28-0.19-0.49-0.26c-0.1-0.03-0.19-0.06-0.29-0.1
			l-0.04-0.02L317,391.7c-0.13-0.15-0.3-0.22-0.48-0.3c-0.11-0.05-0.23-0.1-0.35-0.17l-0.02-0.02c-0.1-0.09-0.22-0.15-0.35-0.21
			c-0.22-0.11-0.47-0.23-0.59-0.5c-0.17-0.2-0.35-0.41-0.51-0.62c-0.35-0.43-0.71-0.88-1.12-1.21l-0.52,0.27
			c-0.09,0.14-0.3,0.39-0.36,0.45l-0.02,0.02l-0.03,0.01c-0.08,0.03-0.15,0.07-0.22,0.11c-0.21,0.11-0.43,0.23-0.7,0.12l-0.44,0.2
			c-0.39,0.14-0.62,0.36-0.88,0.58c-0.23,0.2-0.46,0.41-0.81,0.59l-0.04,0.02h-0.04c-0.8,0-1.53,0.04-2.3,0.09
			c-0.19,0.01-0.38,0.02-0.57,0.03c-0.72,0.16-1.38,0.5-2.08,1.09c-0.04,0.03-0.08,0.06-0.13,0.09c-0.25,0.19-0.46,0.34-0.62,0.38
			l-4.82,1.68c-0.66,0.11-2.3,0.8-4.04,1.53C292.68,396.87,290.35,397.85,289.21,398.01z"/>
	</g>
</g>
<g id="FORGROUND_x002F_TREE">
	<g>
		<g>
			<path class="st4" d="M319.86,401.73c-0.16-0.13-0.39-0.24-0.48-0.54c-0.01-0.07-0.05-0.2,0.03-0.27
				c-0.06-0.05-0.15-0.17-0.09-0.26c-0.1-0.02-0.16-0.19-0.07-0.31c-0.16,0.02-0.22-0.29-0.28-0.42c-0.07,0.13-0.19,0.43-0.27,0.43
				c0.04,0.06,0.03,0.28-0.12,0.36c0.11,0.14,0,0.43-0.17,0.33c-0.09,0.16-0.22,0.29-0.41,0.26c-0.16,0.12-0.3,0.22-0.45,0.13
				c-0.21-0.16-0.16-0.32-0.49-0.31c-0.05-0.06,0.11-0.21,0.13-0.21c-0.1-0.03-0.29-0.03-0.29-0.03s-0.09-0.06-0.04-0.16
				c-0.1-0.02-0.16-0.2-0.07-0.28c-0.11-0.05-0.18-0.2-0.1-0.29c-0.1-0.05-0.12-0.19-0.19-0.32c-0.03,0.13-0.07,0.27-0.14,0.32
				c0.06,0.07,0.05,0.25-0.08,0.32c0.12,0.13,0.02,0.28-0.05,0.36c-0.08,0-0.18,0.02-0.25-0.05c0,0,0.07,0.25-0.05,0.37
				c0.11,0.06,0.03,0.14-0.01,0.19c-0.09,0-0.14-0.01-0.25-0.02c-0.04-0.27-0.05-0.34,0.07-0.5c-0.12-0.01-0.05-0.05-0.17-0.09
				c-0.06-0.11-0.18-0.59-0.18-0.59c-0.07,0.17-0.13,0.49-0.33,0.51c0.09,0.19,0.14,0.42-0.14,0.56c0.24,0.19,0.14,0.49,0.02,0.56
				c-0.09,0.03-0.17,0.11-0.35,0.03c-0.07-0.04-0.23-0.17-0.04-0.42c-0.26-0.25-0.14-0.82-0.02-0.95c-0.21,0.03-0.4-0.33-0.15-0.52
				c-0.29-0.12-0.48-0.82-0.33-1.02c-0.19-0.07-0.19-0.4-0.28-0.62c-0.1,0.23-0.09,0.57-0.24,0.64c0.15,0.13-0.01,0.87-0.3,0.94
				c0.31,0.21-0.06,0.87-0.28,0.83c0.1,0.32,0.11,0.54-0.16,0.57c0,0.22-0.16,0.36-0.31,0.35c0.1,0.37-0.04,0.63-0.24,0.67
				c0.03,0.18,0.1,0.27-0.05,0.43c-0.14,0.19-0.37,0.16-0.37,0.16s-0.1,0.19-0.22,0.21c0.06,0.16,0.22,0.2,0.22,0.2l-0.03,0.08
				c0,0-0.15,0.04-0.22,0.12c-0.07,0.08-0.8,0.04-0.8,0.04s-1.25-0.1-1.5-0.08c-0.25,0.02-0.99-0.11-1.21-0.19
				c-0.22-0.07-0.85-0.01-1.05-0.07c-0.17-0.05-0.49-0.07-0.58-0.22c-0.01-0.13,0.07-0.32,0.18-0.44c-0.52-0.14-0.26-0.66-0.14-0.91
				c-0.14,0.07-0.55-0.04-0.61-0.2c-0.07-0.23-0.12-0.42-0.01-0.64c-0.27,0.06-0.38-0.22-0.38-0.28c0-0.07,0.08-0.3,0.21-0.48
				c-0.28-0.03-0.4-0.52-0.29-0.78c-0.2,0.08-0.31-0.13-0.23-0.33c-0.13,0.02-0.09-0.18-0.01-0.36c-0.31-0.05-0.4-0.83-0.4-0.83
				s-0.05,0.78-0.36,0.79c0.05,0.19,0.01,0.45-0.12,0.47c0.07,0.19,0.02,0.3,0.02,0.3s-0.07,0.13-0.26,0.03
				c0.01,0.1,0.01,0.33-0.22,0.39c0.15,0.08,0.35,0.25,0.26,0.35c-0.09,0.1-0.26,0.07-0.26,0.07s0.14,0.31,0.07,0.43
				c-0.07,0.12-0.06,0.09-0.19,0.15c0.04,0.35-0.1,0.52-0.27,0.58c0.07,0.23-0.02,0.63-0.18,0.75c0.29,0.17,0.12,0.33,0.12,0.33
				s-0.26,0.14-0.42,0.2c-0.44,0.17-0.52-0.14-0.52-0.14s0.18-0.08,0.23-0.3c-0.22-0.09-0.4-0.24-0.27-0.46
				c-0.21,0.02-0.36-0.43-0.2-0.62c-0.09-0.06-0.14-0.19-0.12-0.42c-0.21,0.02-0.43-0.37-0.22-0.8c-0.07,0.03-0.18,0.06-0.27,0.06
				c-0.16-0.15-0.18-0.77-0.28-1.13c-0.11,0.33-0.07,0.72-0.21,0.95c-0.07,0.09-0.17,0.13-0.25,0.08c0.01,0.14,0.11,0.24-0.11,0.29
				c0.08,0.21,0.24,0.7-0.08,0.7c0.11,0.19,0.07,0.63-0.27,0.63c0.22,0.27,0.19,0.53-0.05,0.48c0.07,0.23-0.12,0.63-0.21,0.71
				c-0.08,0.08-0.31,0.03-0.31,0.03s-0.12-0.32,0.06-0.54c-0.23-0.01-0.34-0.23-0.29-0.45c-0.16,0-0.3-0.27-0.25-0.53
				c-0.21,0.09-0.13-0.45-0.24-0.8c-0.11,0.36-0.17,0.93-0.39,0.86c0.08,0.25,0.05,0.49-0.27,0.6c-0.01,0.3,0.05,0.36-0.38,0.69
				c-0.07-0.02-0.24,0.01-0.28-0.11c-0.08,0-0.21,0.13-0.28,0.05c-0.01-0.22,0.05-1.09,0.05-1.28c-0.13-0.39-0.05-2.59-0.05-2.75
				c0-0.17,0.08-0.14,0.17-0.17c0.08-0.03,1.2-0.03,1.2-0.03l1.59-0.22l0.14-0.17l0.53-0.04c-0.13-0.03-0.24-0.34-0.24-0.39
				c0-0.05,0.27-0.59,0.27-0.59s0.87-0.34,0.73-0.4c-0.14-0.06-0.12-0.2-0.05-0.3c0.07-0.1,0.29-0.04,0.29-0.04s0.53-0.37,0.58-0.45
				s0.4-0.26,0.51-0.37s0.14-0.25,0.19-0.33c0.04-0.06,0.14-0.37,0.16-0.45c0.02-0.07-0.05-0.29-0.07-0.33s0.22-0.3,0.15-0.33
				c-0.05-0.02-0.33-0.05-0.33-0.05s-0.43,0.05-0.48,0.05c-0.04,0,0.01-0.07,0.01-0.07s0.21-0.09,0.24-0.12
				c0.08-0.05,0.3-0.1,0.34-0.13c0.04-0.03,0.2-0.15,0.29-0.35c-0.04,0.01-0.62,0.11-0.89,0.08c-0.27-0.03-0.12-0.1-0.12-0.1
				s0.36-0.05,0.57-0.14c0.24-0.16,0.31-0.27,0.34-0.29c-0.19-0.01-0.39-0.05-0.62-0.11c-0.67,0.04-0.8,0.04-1.44-0.39
				c-0.04-0.09,0.07-0.14,0.09-0.21c0.16-0.02,0.28,0.05,0.42,0.05c0.02-0.23-0.04-0.46-0.21-0.57c0.07-0.25,0.44-0.05,0.39-0.37
				c-0.05-0.21-0.19-0.28-0.39-0.3c0.11-0.32-0.27-0.18-0.37-0.34c0.04-0.41,0.28,0.05,0.49-0.09c-0.35-0.62-1.25-0.49-1.82-0.88
				c0.02-0.11,0.02-0.15,0-0.21l-0.12-0.14c0-0.34-0.44-0.18-0.6-0.46c-0.04-0.41,0.48,0.12,0.48-0.3l0.09,0.09
				c0.11-0.04,0.18-0.09,0.21-0.21c0.16-0.27,0.51-0.16,0.67-0.42c-0.09,0.02-0.19-0.04-0.25,0.04c0.05-0.12-0.14-0.41,0.16-0.42
				c0.18-0.39,0.67-0.48,0.97-0.67c0.11-0.16,0.16-0.34,0.14-0.55c0.05-0.57-0.64-0.55-0.78-0.76c-0.21-0.07-0.19-0.34-0.34-0.42
				c-0.25-0.23-0.51,0.09-0.8-0.18l0.16-0.18c-0.05-0.12-0.08,0.01-0.16-0.13c-0.12-0.1-0.31-0.66-0.11-0.87l-0.01-0.09l-0.12-0.13
				c0.25-0.35,0.84-0.02,0.8-0.6c0.36-0.39-0.18-0.43,0.17-0.59c0-0.14-0.18-0.4-0.32-0.59c-0.1-0.02-0.17,0.02-0.2-0.02
				c-0.07-0.07-0.08-0.1-0.1-0.17l0.13-0.01c-0.04-0.37,0.2-0.34,0.2-0.34c0.01-0.06,0-0.17,0.03-0.21c0.2-0.32,0.25-0.57,0.37-0.85
				c-0.08-0.1-0.09-0.2,0-0.34c0.02-0.05,0.09-0.28,0.09-0.37c0-0.06-0.1-0.03-0.16-0.05l-0.1,0.3l-0.09,0.01
				c0.1-0.38,0.21-0.9,0.04-1.27c0.02-0.01-0.03-0.03-0.01-0.04l0.06-0.26c-0.07,0-0.09-0.23-0.09-0.23c-0.21,0-0.64,0.01-0.87,0.01
				c-0.23,0.05-0.18,0.34-0.45,0.4c-0.17-0.04-0.13,0.31-0.32,0.26c-0.05,0.07-0.05,0.09-0.05,0.09c0.04,0.03,0.08,0.06,0.1,0.08
				c0.18,0.18-0.31,0.08-0.27,0.26c-0.05,0.02-0.07-0.01-0.1,0.02c-0.04-0.14-0.2-0.14-0.2-0.32c0.02-0.02,0.09-0.11,0.12-0.09
				c-0.01-0.11-0.15-0.09-0.11-0.22c-0.11-0.07-0.26-0.06-0.37-0.13c0-0.04-0.04-0.15-0.06-0.25c-0.02-0.1-0.01-0.23-0.01-0.28
				c-0.42-0.07-0.04-0.26-0.01-0.33c0.09-0.17,0.03-0.39-0.1-0.59c0.08-0.17-0.03-0.34-0.25-0.37c-0.17-0.27,0.01-0.35,0.02-0.57
				h-0.12c-0.02-0.17,0.01-0.23,0.02-0.33c0.38-0.12-0.02-0.46,0.31-0.7c-0.01-0.41-0.44-0.29-0.51-0.46
				c-0.04-0.08-0.83-0.29-1.26,0.09c-0.72,0-0.53,0.66-1.31,0.97c0.23,0.3,0.9,0.08,0.86,0.58c-0.3,0.48-0.75-0.18-1.03-0.17
				c-0.19,0.02-0.35,0.21-0.49,0.37c0,0.12,0.05,0.2,0.01,0.38c-0.07,0.42-0.53,0.31-0.65,0.66c0.12,0.12,0.32,0.16,0.48,0.11
				c0.21,0.07,0.25,0.21,0.26,0.46c0.11-0.02,0.36,0.03,0.41-0.09c0.05,0.08-0.01,0.21,0.08,0.28c-0.19,0.27-0.32,0.55-0.38,0.86
				c0.04,0.51,0.7,0.34,0.57,0.94c0.28,0.05,0.76,0.31,1.02-0.08c0.06,0.08,0.13,0.03,0.16,0.13c0.19,0.51,0.09,1.2-0.05,1.71
				c-0.14,0-0.39,0.29-0.53,0.07l0.05-1.15c-0.05-0.12-0.04-0.44-0.3-0.34c-0.35,0-0.64,0.12-0.64,0.51l0.09-0.09
				c0.04,0,0.05,0.02,0.07,0.05c0.02,0.18,0.02,0.48-0.16,0.64c-0.09-0.09-0.04-0.23-0.05-0.35c-0.12,0.14-0.11,0.44-0.16,0.64
				c0.34-0.16,0.28,0.41,0.58,0.3c0.16,0.21,0.07,0.39,0.14,0.55c-0.05,0.02-0.07-0.02-0.09-0.04l-0.27,0.25
				c-0.23,0.27-0.36-0.15-0.63-0.06c-0.16-0.44-0.17-1.01-0.01-1.48c-0.25,0.06-0.67-0.23-1.06-0.05c-0.09,0.12,0.02,0.28-0.23,0.23
				l-0.11,0.15c-0.53,0.55-0.16,0.72-0.16,0.72c-0.23,0.23-0.59,0.41-0.74,0.76c0.23,0.04,0.4,0.02,0.35,0.3
				c0.71,0.34-0.39,0.7-0.03,1.09c-0.09,0.09,0,0.25,0,0.25c0.8,0.09-0.11,0.62,0.04,1.04c0.6-0.02,0.75,0.16,1.3,0.19
				c0.46,0.05,1.04,0,1.57-0.04l0.1-0.1c0.23,0.07,0.48,0.35,0.78,0.37l-0.54,0.44c-0.23,0.11-0.51,0.04-0.67-0.16
				c-0.34,0.05-0.72-0.11-1.03,0.16l0.19,0.2l-0.31,0.16c-0.39,0-0.95,0.14-1.15,0.49c-0.01-0.02-0.07-0.08-0.07-0.12
				c-0.2,0.25-0.63,0.4-0.78,0.72c0.28-0.07,0.85,0.03,1.15,0.22c-0.21,0.41-0.85,0.13-1.18,0.29c-0.12,0.09-0.39,0.07-0.39,0.3
				h0.21c0.12-0.02,0.38,0.16,0.34,0.25c-0.41-0.12-0.75,0.27-0.98,0.55c0.14,0.28,0.46,0.32,0.69,0.48
				c-0.41,0.69,0.76,0.53,1.1,0.92c-0.07,0.09,0.18,0.09,0.18,0.09c0.12,0.11,0.19,0.21,0.16,0.39l0.09-0.09
				c0.07-0.02,0.09,0.05,0.12,0.09c-0.12,0.57-0.76,0.74-1.31,0.88c0,0.05-0.02,0.11,0.04,0.12c-0.28,0.64-0.95,0.53-1.34,1.03
				c-0.02,0.14-0.02,0.27,0.12,0.34c-0.09,0.05-0.27,0.18-0.28,0.26c0.52,0.21,1.01,0.17,1.64,0.17c0.14-0.3,0.34-0.65,0.67-0.8
				c0.12,0.11,0.39-0.09,0.46,0.16c-0.05,0.04-0.04,0.09-0.04,0.12c0.23-0.07,0.44,0.18,0.64-0.04c0-0.39,0.44-0.6,0.67-0.88
				c0.46-0.21,0.88-0.07,1.24,0.25c0.05,0.16,0.04,0.55,0.3,0.6c-0.14,0.18-0.35,0.12-0.51,0.25l0.09,0.18
				c-0.9,0.35-1.7,0.12-2.63,0.12c0.19,0.35-0.48,0.48-0.46,0.88l0.71,0.09c0.25,0.09,0.3,0.32,0.39,0.46
				c-0.02,0.14-0.11,0.23-0.18,0.35c-0.12,0.04-0.28,0.16-0.37-0.05c0.12-0.05-0.19,0.14-0.48,0.18c-0.18,0.39-0.83,0.14-1.18,0.21
				c0.05,0-0.07,0.18-0.16,0.12c-0.39,0.3,0.19,0.23,0.21,0.51c-0.05,0.07-0.23,0.02-0.18,0.16c0.28,0.09,0.67,0.19,0.94,0.09
				l-0.12-0.12c0.05-0.09,0.16-0.12,0.25-0.18c0.09,0.35,0.32,0.04,0.51,0c0.07,0,0.12,0.18,0.21,0.05l0.09,0.09
				c-0.18-0.02-0.18,0.18-0.35,0.16c-0.18,0.18,0.57,0.43,0.66,0.61c-0.14,0.4,0.5,0.32,1.07,0.69c-0.05,0.07,0.41,0.24,0.97,0.43
				c0,0.23-0.02,0.22,0.14,0.37c-0.05,0.07,0.08,1.9,0.01,2.18c-0.14,0.14-0.21,0.18-0.49,0.17c-0.21-0.01-0.57-0.27-0.36-0.49
				c-0.26-0.04-0.31-0.44-0.21-0.58c-0.11-0.01-0.32-0.14-0.33-0.6c-0.02,0.07-0.1,0.62-0.25,0.66c0.08,0.13-0.04,0.54-0.32,0.62
				c0.25,0.39-0.29,0.79-0.54,1c0.17,0.41-0.44,0.31-0.28,0.57c-0.28,0-0.4,0.28-0.71,0.27c-0.38,0.01-0.77-0.04-1.01-0.14
				c-0.07-0.01-0.2,0.03-0.27,0.02l1.16,1.5l1.25-0.15c0.04,0.05,0.11,0.11,0.09,0.18c-0.39,0.09-0.82,0.13-1.16,0.2
				c0.13,0.19,0.3,0.37,0.42,0.51l2.01-0.35l0.06,0.13c-0.5,0.31-1.17,0.4-1.86,0.43c0.19,0.21,0.26,0.33,0.39,0.53
				c0.91-0.13,1.84-0.36,2.72-0.45c0.05-0.01,0.05,0.05,0.02,0.14c-0.67,0.3-1.67,0.43-2.61,0.52l0.15,0.23
				c0.07,0.12,0.12,0.22,0.18,0.31c0.99-0.02,1.83-0.12,2.72-0.39c0.18-0.02,0.49-0.17,0.69-0.12c0.08,0.02,0.14,0.08,0.16,0.21
				c-0.32,0.14-0.55,0.22-0.94,0.24l-0.75,0.15c-0.58,0.11-0.44,0.08-1.1,0.15c-0.21-0.03-0.44-0.01-0.66-0.05
				c0.16,0.27,0.4,0.48,0.6,0.69c1.52-0.02,2.92-0.45,4.39-0.66l0.04,0.21c-0.21,0.21-0.54,0.1-0.77,0.24
				c-0.05-0.05-0.11-0.08-0.08-0.19c-0.07-0.03-0.17,0-0.19,0.01c-0.05,0.12,0.06,0.2,0.02,0.23c-1.13,0.16-2.37,0.41-3.3,0.28
				c0.12,0.11,0.37,0.65,0.37,0.65c1.34,0.25,2.32-0.37,3.61-0.38c2.21-0.6,3.64-0.77,6.16-0.89c0.03,0.06,0.09,0.28,0.09,0.28
				c-3.46-0.14-6.38,1.57-9.79,1.18c0.05,0.09,0.1,0.21,0.14,0.3c0.06,0.17,0.09,0.21,0.11,0.3c2.68,0.07,6.14-0.78,8.91-1.15
				c4.84-0.23,9.31,0.59,13.91,1.02l-0.07,0.08c-1.55,0.06-3.12-0.35-4.85-0.05c-3.76-0.83-7.54-1.13-11.48-0.37
				c-2.19,0.23-4.46,0.97-6.39,0.6c0.1,0.24,0.07,0.52,0.11,0.63c-0.02-0.01,1.79,0.01,1.61,0.02l0.89-0.01
				c0.8-0.14,1.68-0.17,2.5-0.38c1.06-0.23,2.03-0.19,3.05-0.49c5.09-0.56,9.52,0.86,14.13,0.83c0.2-0.22,0.48-0.48,0.76-0.72
				c0.1-0.08,0.22-0.21,0.32-0.28c0.08-0.03,0.08-0.03,0.14-0.07c0.07-0.04,0.12-0.04,0.07-0.18c-0.04-0.14-0.09-0.24-0.13-0.4
				c0.04-0.19,0.11-0.36,0.18-0.5c0.07-0.14,0.13-0.27,0.16-0.34c-0.34-0.04-1.37-0.14-1.68-0.2c-0.06-0.01-0.03-0.06-0.06-0.13
				c0.78-0.07,1.53,0.13,1.85,0.14c0.23-0.3,0.73-0.42,0.74-0.86c-0.14-0.37-0.08-0.72-0.05-1.02c0.06-0.3,0.18-0.55,0.22-0.73
				c-0.18-0.04-0.52-0.07-0.74-0.05l0.09,0.16c-0.69,0.39-2.32,0.14-2.28,0.12c-1.34-0.16-1.07-0.15-2.13-0.3
				c-0.09-0.02-1.53-0.24-1.81-0.46c0.83-0.22,1.04-0.44,1.39-0.57c0.23-0.02,0.53,0.07,0.8-0.07c0.41,0.04,0.8-0.25,1.15-0.09
				c0.62-0.16,1.33-0.39,1.94-0.3c0.51-0.23,1.17-0.04,1.73-0.06c0.04,0.23,0.46,0.15,0.65,0.22c0.1-0.12,0.27-0.32,0.4-0.52
				c0.01-0.03,0.04-0.07,0.05-0.13c0.02-0.07,0.05-0.21,0.07-0.27c0.04-0.12,0.06-0.22,0.08-0.29
				C321.15,401.58,319.98,401.72,319.86,401.73z M299.92,387.2c-0.05,0.14-0.3,0.34-0.46,0.34l-0.09-0.12
				C299.55,387.32,299.72,387.21,299.92,387.2z M295.22,384.44c-0.11-0.04-0.19,0.09-0.21,0.16c-0.35,0-0.74,0.35-1.06-0.07
				c0.02-0.27,0.24-0.34,0.39-0.42c0.15-0.08,0.82-0.05,0.82-0.05l-0.06,0.12C295.16,384.26,295.25,384.32,295.22,384.44z
				 M293.1,390.33c-0.14-0.14-0.44-0.04-0.39-0.34c0.34-0.05,0.74-0.42,0.99-0.21C293.64,390.17,293.18,389.99,293.1,390.33z
				 M315.92,406.8c-0.09,0.01-0.45,0.12-0.85,0.07c0.04-0.12-0.13-0.1-0.22-0.15l-0.08,0.12l-3.89-0.6v-0.12
				C312.61,406.22,314.29,406.57,315.92,406.8z M312.43,405.39c-0.23,0.08-0.89,0.02-0.88-0.12L312.43,405.39z M310.31,405.1
				l0.9,0.12l-0.93,0L310.31,405.1z M310.67,406.11l0.04,0.05c-0.28,0.04-0.81,0.09-1.06-0.05
				C309.87,406.06,310.35,406.06,310.67,406.11z M310.03,405.1c-0.07,0.14-0.66,0.09-0.78-0.09L310.03,405.1z M309.45,406.11
				l-1.11-0.03C308.65,405.79,309.11,406.09,309.45,406.11z M308.12,404.93l0.64,0.07C308.71,405.04,307.83,405.19,308.12,404.93z
				 M308.03,406.02c-0.03,0.12-0.97,0.11-1.06,0C307.13,405.93,307.75,405.99,308.03,406.02z M306.58,404.89l0.88,0.04
				c-0.1,0.13-0.76,0.12-1,0.08L306.58,404.89z M304.51,405.01l-0.11,0.11l-0.6,0.05C304.02,404.94,304.3,405.03,304.51,405.01z
				 M303.28,405.14c-0.22,0.22-0.59,0.17-0.72,0.09C302.71,405.07,303.03,405.17,303.28,405.14z M301.85,404.4l0.61-0.02
				C302.39,404.38,301.7,404.66,301.85,404.4z M302.13,405.26v0.05c-0.34,0.07-0.72,0.33-0.97,0.07
				C301.46,405.3,301.81,405.33,302.13,405.26z M300.57,404.48l0.62-0.01c-0.07,0.07-0.54,0.26-0.67,0.15L300.57,404.48z
				 M300.73,405.39l0.04,0.1l-0.88,0.12C300.1,405.42,300.41,405.37,300.73,405.39z M300.1,404.54c-0.1,0.16-0.5,0.25-0.71,0.18
				C299.35,404.47,299.92,404.59,300.1,404.54z M298.22,403.95c-0.05,0.02-0.34,0.15-0.47,0.11
				C297.76,403.91,298.13,403.97,298.22,403.95z M297.51,393.98c0-0.04-0.02-0.07-0.05-0.09c-0.04-0.02-0.05,0.02-0.09,0.04
				c-0.11-0.28,0.09-0.95-0.16-1.31v-0.18c0.21,0.11,0.14-0.25,0.37-0.12c0.02,0.05-0.04,0.14,0.05,0.18c0.19,0-0.04-0.32,0.21-0.27
				c0.05,0.32,0.09,0.85-0.05,1.2c0.27-0.02,0.21,0.32,0.18,0.42c-0.16,0.05,0,0.3-0.25,0.21l-0.09-0.21L297.51,393.98z
				 M298.43,389.62c-0.44-0.09-0.88-0.14-1.27-0.39l-0.07-0.51c0.65,0.14,1.25,0.41,1.86,0.69v0.07
				C298.82,389.51,298.56,389.42,298.43,389.62z M298.61,389.9v0.09c-0.53,0.21-0.94-0.16-1.36-0.34v-0.21
				C297.73,389.57,298.19,389.71,298.61,389.9z M297.15,384.43c-0.05,0.21,0,0.65-0.34,0.55c-0.19-0.48,0-0.87,0-1.4
				C297.06,383.74,297.22,384.08,297.15,384.43z M297.13,390.75c0.41,0,0.69-0.16,1.06,0c-0.32,0.18-0.71,0.37-1.1,0.48
				C296.91,391.1,296.91,390.87,297.13,390.75z M297.8,391.23c0.28-0.04,0.51-0.12,0.81-0.09c0,0.11-0.25,0.23-0.39,0.3
				c-0.18,0.25-0.48,0.6-0.8,0.34c-0.05-0.04-0.12-0.12-0.18-0.04v0.04c-0.11,0.05-0.14-0.09-0.21-0.12
				C297.16,391.39,297.55,391.37,297.8,391.23z M298.95,395.35c-0.19,0.18-0.43,0.18-0.64,0.42c-0.2,0.08-0.37,0.11-0.55-0.05
				c-0.04-0.19-0.07-0.24-0.13-0.46c0.32-0.27,1.08-0.35,1.47-0.45l0.21,0.16l-0.4,0.33L298.95,395.35z M299.16,382.62
				c-0.19,0.19-0.27,0.64-0.58,0.58c-0.19-0.3,0.32-0.41,0.37-0.72C299,382.57,299.16,382.46,299.16,382.62z M298.7,380.78
				c0,0,0.24-0.06,0.27,0.04c0.03,0.1-0.16,0.46-0.16,0.46C298.43,381.22,298.63,380.94,298.7,380.78z M298.65,381.89
				c0.05,0,0.11-0.02,0.14,0.04c0.04,0.12-0.09,0.12-0.14,0.18c0.04,0.07,0.12,0.04,0.18,0.04c-0.13,0.11-0.04,0.68-0.58,0.44
				C298.27,382.37,298.35,382.17,298.65,381.89z M298.15,385.08c0.11-0.11,0.34-0.37,0.49-0.16c0,0.07,0.09,0.11,0.14,0.16
				c-0.16,0.21-0.41,0.14-0.6,0.21C298.09,385.24,298.09,385.15,298.15,385.08z M297.97,385.71c-0.09,0.09-0.09,0.28-0.25,0.25
				l-0.09-0.09C297.67,385.71,297.83,385.71,297.97,385.71z M298.49,387.74c0.11,0.16-0.25,0.23,0,0.34c-0.3,0.12-0.88,0.12-1.24,0
				c-0.19-0.21,0.19-0.3,0.12-0.51C297.8,387.51,298.13,387.66,298.49,387.74z M297.45,377.69c0,0-0.04,0.09-0.14,0.18
				c-0.06-0.16-0.04-0.52-0.04-0.52L297.45,377.69z M297.55,380.71c-0.05,0.67-0.04,1.2-0.34,1.77l-0.09-0.07
				c0.05-0.04,0.04-0.09,0.04-0.14l-0.21-0.12c-0.02-0.62,0.04-1.33,0.14-1.94C297.39,380.18,297.48,380.46,297.55,380.71z
				 M296.81,376.49c0.05,0.41,0.12,0.87-0.21,1.24C296.71,377.32,296.55,376.79,296.81,376.49z M295.92,377.37v0.16
				c-0.12,0.09-0.34,0.05-0.37-0.12c0.02-0.19,0.28-0.88,0.46-0.42l0.12-0.12C296.1,376.94,296.25,377.37,295.92,377.37z
				 M296.17,378.45l-0.13,0c-0.07-0.21,0.13-0.49,0.34-0.47C296.52,378.22,296.23,378.25,296.17,378.45z M294.92,391.74
				c-0.48,0.02-0.02-0.41-0.34-0.57c0.3-0.23,0.71,0,1.1-0.07C295.45,391.28,295.38,391.83,294.92,391.74z M295.85,389.95
				c-0.12-0.25-0.48,0.16-0.46-0.21c0.27,0.02,0.48-0.23,0.76-0.09C296.15,389.81,295.91,389.85,295.85,389.95z M295.09,395.2
				c0.14-0.3,0.21-0.76,0.55-0.88l0.12,0.18C295.54,394.73,295.46,395.15,295.09,395.2z M295.73,403.74l-0.45-0.02
				C295.33,403.71,295.62,403.62,295.73,403.74z M294.18,403.99c-0.05,0.01-0.53,0.22-0.64,0.25c-0.1,0.04-0.09-0.22-0.09-0.22
				c0.63-0.13,0.62-0.14,0.72-0.14C294.23,403.89,294.23,403.98,294.18,403.99z M294.34,403.85c0.16-0.02,0.45-0.12,0.62-0.08
				C295,403.91,294.46,403.98,294.34,403.85z M295.43,404.57c-0.17,0.05-0.55,0.07-0.72,0.11c0.04-0.04-0.08-0.06-0.03-0.08
				c0.18-0.09,0.58-0.11,0.79-0.13C295.44,404.5,295.51,404.55,295.43,404.57z M295.72,404.49c-0.01,0-0.04-0.08-0.04-0.08
				c0.19-0.11,0.58-0.17,0.81-0.15C296.33,404.41,295.93,404.51,295.72,404.49z M296.12,405.29c-0.01,0.01-0.05-0.05-0.01-0.08
				c0.16-0.1,0.52-0.14,0.7-0.1C296.59,405.23,296.35,405.22,296.12,405.29z M296.66,404.29l-0.01-0.1c0.14-0.04,0.32-0.1,0.48-0.08
				C297.09,404.29,296.77,404.18,296.66,404.29z M297.13,405.02c0.09-0.11,0.49-0.14,0.72-0.12
				C297.64,405.11,297.3,405.14,297.13,405.02z M297.43,406.16l-0.1-0.23c0.32-0.04,0.52-0.23,0.86-0.07
				C298.03,406.02,297.67,406.06,297.43,406.16z M298.11,404.85c0.23-0.19,0.64-0.22,0.83-0.2c0.09,0.01-0.01,0.07,0.06,0.06
				C298.73,404.78,298.51,404.9,298.11,404.85z M298.52,405.81c0.09-0.27,0.51-0.21,0.76-0.34l0.27,0.12
				C299.21,405.69,298.83,405.79,298.52,405.81z M302.76,406.23c-1.25,0.24-3.83,0.62-3.79,0.61c0-0.05-0.08-0.15,0.02-0.18
				c0.35,0,0.74-0.37,1-0.07c0.04-0.04,0.24-0.05,0.24-0.05c0-0.05,0.02-0.07,0.03-0.13c0.34,0.07,0.74-0.38,1.03-0.06
				c-0.09,0,0.53,0.01,0.57-0.15c0.28-0.05,0.62-0.07,0.88-0.04V406.23z M303.06,406.23l-0.02-0.11c0.37-0.09,0.77-0.19,1.12-0.01
				L303.06,406.23z M305.31,406.07c-0.34-0.05-0.6,0.09-0.94,0.04l-0.01-0.08c0.32-0.04,0.61-0.07,0.94-0.04V406.07z M305.1,405.1
				c-0.05,0,0.04-0.06,0.02-0.1c0.11-0.07,0.5-0.12,0.66-0.05C305.68,405.02,305.22,405.11,305.1,405.1z M305.54,406.02
				c0.37-0.07,0.74-0.11,1.13-0.04C306.61,406.08,305.66,406.15,305.54,406.02z M306.99,407.01c-0.37-0.07-0.92,0.18-1.27-0.07
				c0.21-0.05,0.92-0.07,1.27-0.02V407.01z M308.54,407.05c-0.37,0.11-0.83,0.01-1.24-0.04c0.25-0.27,0.85,0.01,1.24,0.01V407.05z
				 M318.46,407.98l-0.04,0.1c-2.26-0.43-4.83,0.01-6.96-0.65c-1.03-0.19-1.8-0.09-2.76-0.39l0.18-0.09
				C312.13,407.17,315.37,407.67,318.46,407.98z M316.09,406.83v-0.09l0.96,0.05l0.01,0.12L316.09,406.83z M318.51,406.02l0.88,0.05
				c-0.34,0.02-0.62,0.12-0.97,0.09L318.51,406.02z M317.91,406.02c0.12,0,0.25,0.02,0.34,0.09h-0.34V406.02z M317.61,406.02
				c-0.19,0.11-0.6,0.02-0.67-0.07C317.19,405.92,317.38,406,317.61,406.02z M316.7,405.96c-0.13,0.11-0.84-0.01-0.95-0.18
				C316.04,405.83,316.44,405.83,316.7,405.96z M315.4,405.77l-0.71-0.09C314.84,405.6,315.19,405.69,315.4,405.77z M313.55,405.44
				l0.88,0.16l-0.95-0.03L313.55,405.44z M313.25,405.47l-0.6-0.04v-0.05C312.86,405.42,313.1,405.31,313.25,405.47z"/>
		</g>
		<g>
			<path class="st4" d="M305.63,399.97L305.63,399.97L305.63,399.97z"/>
		</g>
	</g>
	<g>
		<g>
			<path class="st4" d="M318.83,404.68c0,0.03,0.04,0.27,0.04,0.27c-1.57,0.25-3.08,0.21-4.71,0c-1.88-0.25-3.67-1-5.62-1
				c-3.51,0-6.98,0.36-10.34-0.75c-1.22-0.4-2.4-0.55-3.66-0.25c-0.3,0.07-0.59,0.24-0.9,0.32c-0.72,0.2-1.54,0.16-2.3,0.3
				c0.52,0.68,1.19,1.55,1.33,1.64c0.22,0.14,1.04,1.61,1.15,1.72c0.11,0.11,0.5,0.5,0.61,0.65c0.11,0.14,0.66,1.29,0.72,1.61
				c0.02,0.11,0.05,0.55,0.1,0.67c0.16,0.17,0.71,0.57,1.15,0.69c0.14,0.04,0.35,0.44,0.57,0.72c0.06,0.07,0.11,0.11,0.16,0.2
				c0.1,0.22,0.15,0.5,0.15,0.5c0.06,0.13,0.59,1.15,0.67,1.23s1.18,1.27,1.29,1.43c0.11,0.17-0.04,0.23,0.08,0.42
				c0.13,0.19,0.36,0.84,0.48,0.94c0.15,0.14,0.24,0.77,0.24,0.77s0.13,0.19,0.28,0.19c0.15,0,0.93,0.78,1.1,0.89
				c0.17,0.11,0.02,0.3,0.02,0.3s0.24,0.5,0.47,0.68c0.2,0.16,0.65,0.38,0.73,0.42c0.08,0.04,0.98,0.43,1.22,0.53
				c0.22,0.09,1.24,0.53,2.02,0.69c0.59,0.12,2.02,0.38,2.32,0.25c0.32-0.14,0.57-0.25,0.93-0.48c0.36-0.23,0.3-0.25,0.61-0.53
				c0.32-0.27,0.54-0.52,0.61-0.64s0.3-0.39,0.39-0.45c0.08-0.06,0.2-0.14,0.25-0.25c0.04-0.1,0.26-0.36,0.3-0.43
				c0.11-0.2,0.86-0.88,0.92-0.96c0.06-0.08,0.4-0.82,0.44-1.06c0.04-0.23,0.17-0.46,0.23-0.59c0.06-0.13,0.52-0.46,0.72-0.57
				c0.17-0.09,0.51-0.38,0.51-0.53s0.14-0.76,0.27-0.82s1.31-0.93,1.39-1.01c0.06-0.06,0.86-0.78,1-0.89c0-0.07-0.01-0.19-0.01-0.31
				c0-0.13,0.13-0.51,0.22-0.78c0.09-0.28,0.3-0.56,0.41-0.72c0.16-0.22,1.03-0.97,1.1-1.01s0.23-0.08,0.23-0.17
				c0-0.08-0.11-0.29-0.15-0.46c-0.03-0.12,0.32-0.84,0.4-0.99c0.08-0.15,0.39-0.37,0.55-0.49s0.25-0.33,0.23-0.42
				c-0.02-0.09-0.08-0.29-0.09-0.47c-0.01-0.13,0.02-0.52,0.06-0.65c0.03-0.09,0.05-0.18,0.09-0.3
				C319.45,404.64,319.08,404.66,318.83,404.68z"/>
		</g>
	</g>
</g>
<g id="LAKE_BACKGROUND">
	<g>
		<g>
			<path class="st2" d="M320.69,402.95c-0.19-0.07-0.61,0.01-0.65-0.22c-0.57,0.02-1.22-0.17-1.73,0.06
				c-0.62-0.09-1.33,0.14-1.94,0.3c-0.35-0.16-0.74,0.12-1.15,0.09c-0.27,0.14-0.57,0.05-0.8,0.07c-0.35,0.12-0.57,0.34-1.39,0.57
				c0.29,0.22,1.72,0.44,1.81,0.46c1.06,0.14,0.78,0.14,2.13,0.3c-0.04,0.02,1.59,0.27,2.28-0.12l-0.09-0.16
				c0.21-0.02,0.55,0.01,0.74,0.05c0,0.02-0.01,0.04-0.02,0.05c0.04-0.13,0.11-0.33,0.17-0.48c0.05-0.15,0.41-0.63,0.66-0.95
				C320.72,402.96,320.69,402.95,320.69,402.95z"/>
		</g>
	</g>
</g>
<g id="BISON">
	<g>
		<g>
			<path class="st5" d="M303.85,406.96c0,0,0.44-0.2,0.99-0.24c0.6-0.04,0.52,0.04,1.1,0.1c0.07,0.01,0.21,0.02,0.36,0.05
				c0.14,0.02,0.43,0.02,0.63,0.09c0.2,0.07,0.49,0.21,0.66,0.25c0.17,0.04,0.28,0.07,0.43,0.12s0.21,0.08,0.34,0.13
				c0.13,0.05,0.46,0.18,0.77,0.25s0.52,0.08,0.76,0.14c0.24,0.06,0.45,0.1,0.64,0.19c0.19,0.1,0.56,0.3,0.72,0.5
				c0.15,0.2,0.43,0.57,0.46,0.86c0.04,0.29,0.06,0.43-0.01,0.74c-0.07,0.31-0.16,0.44-0.12,0.55c0.04,0.11,0.08,0.17,0.04,0.27
				c-0.05,0.11-0.1,0.18-0.13,0.25c-0.04,0.07-0.1,0.12-0.1,0.12s-0.05,0.06-0.07,0.01c-0.02-0.05,0.01-0.13-0.02-0.19
				c-0.04-0.06-0.11-0.15-0.1-0.21c0.01-0.06,0.02-0.14,0.1-0.25c0.07-0.11,0.08-0.2,0.08-0.2s0.08-0.1,0.11-0.23
				c0.02-0.13,0.07-0.4,0.06-0.49c-0.01-0.08-0.04-0.36-0.04-0.36l-0.04-0.13c0,0-0.12-0.12-0.11,0c0.01,0.12,0.07,0.16,0.02,0.49
				c-0.05,0.33-0.01,0.2-0.13,0.49c-0.12,0.29-0.23,0.4-0.26,0.57c-0.04,0.17,0.01,0.24,0.11,0.55c0.1,0.31,0.11,0.4,0.15,0.48
				c0.05,0.07,0.05,0.15,0.1,0.17c0.05,0.01,0.13,0.02,0.07,0.2c-0.06,0.18-0.23,0.57-0.25,0.77c-0.02,0.2-0.01,0.33-0.02,0.34
				c-0.01,0.01-0.05,0.02-0.07,0.06c-0.01,0.03-0.01,0.04-0.01,0.11c0,0.1-0.02,0.32-0.02,0.32s0.02,0.09-0.07,0.09
				c-0.1,0-0.42,0.01-0.48,0c-0.07-0.01-0.11,0.01-0.09-0.07c0.02-0.09,0.04-0.29,0.09-0.32c0.06-0.04,0.17-0.14,0.17-0.14
				s0.02-0.18,0.05-0.26c0.02-0.08,0.01-0.19,0.04-0.25c0.02-0.06,0.08-0.3,0.08-0.37c0-0.07,0.06-0.26-0.13-0.49
				c-0.19-0.23-0.36-0.32-0.5-0.42c-0.14-0.1-0.35-0.22-0.54-0.24c-0.12-0.01-0.29,0.05-0.38,0.1c-0.1,0.05-0.3,0.14-0.46,0.23
				c-0.2,0.1-0.38,0.19-0.45,0.23c-0.07,0.04-0.14,0.02-0.15-0.07c-0.01-0.08,0-0.16-0.09-0.15c-0.09,0.01-0.13,0.02-0.23,0.05
				c-0.09,0.03-0.2,0.12-0.25,0.26c-0.05,0.14-0.08,0.25-0.13,0.4c-0.03,0.09-0.08,0.16-0.12,0.25c-0.04,0.1-0.07,0.11-0.25,0.27
				c-0.14,0.13-0.21,0.17-0.3,0.34c-0.08,0.16-0.09,0.17-0.11,0.22c-0.02,0.06-0.07,0.05-0.07,0.1c0,0.05-0.01,0.23-0.01,0.23
				s0.01,0.09-0.04,0.09c-0.23,0-0.41,0-0.53,0c-0.09,0-0.08-0.02-0.05-0.1c0.06-0.15,0.14-0.21,0.16-0.26
				c0.01-0.04-0.01-0.06-0.04-0.22c-0.02-0.06-0.18-0.49-0.2-0.54s-0.02-0.18-0.1-0.23c-0.07-0.05-0.2-0.19-0.23-0.24
				c-0.02-0.05-0.21-0.16-0.3-0.16s-0.58-0.1-0.7-0.17c-0.12-0.07-0.49-0.26-0.55-0.3c-0.06-0.04-0.29-0.16-0.34-0.16
				c-0.06,0-0.14-0.03-0.23,0.06c-0.14,0.14-0.19,0.13-0.26,0.2c-0.07,0.06-0.06,0.07-0.11,0.14s-0.15,0.27-0.18,0.33
				c-0.14,0.29-0.27,0.25-0.27,0.25s-0.14,0.06-0.33-0.25c-0.19-0.31-0.27-0.43-0.27-0.43s-0.11-0.09-0.2-0.07
				c-0.08,0.01-0.29,0.05-0.35,0.04c-0.06-0.01-0.15,0.02-0.22-0.08c-0.07-0.11-0.15-0.25-0.13-0.46c0.02-0.21-0.08-0.36-0.1-0.42
				c-0.01-0.06-0.1-0.14-0.14-0.29c-0.05-0.14-0.04-0.34-0.14-0.55c-0.12-0.18-0.17-0.56-0.17-0.56s-0.01-0.07,0.01-0.24
				c0.02-0.16-0.01-0.3,0.04-0.51c0.05-0.2,0.1-0.34,0.27-0.46c0.12-0.08,0.21-0.25,0.36-0.31c0.14-0.06,0.31-0.19,0.43-0.19
				c0.12,0,0.16-0.08,0.39-0.04c0.24,0.05,0.42,0.1,0.57,0.07c0.15-0.02,0.31-0.02,0.45-0.21c0.14-0.19,0.26-0.37,0.32-0.41
				C303.57,407.14,303.85,406.96,303.85,406.96z"/>
			<path class="st2" d="M306.1,413.94c-0.03,0-0.06,0-0.08-0.02c-0.02-0.02,0-0.05,0.01-0.09l0-0.01c0.04-0.1,0.09-0.17,0.13-0.21
				c0.02-0.02,0.03-0.04,0.03-0.05c0.01-0.02,0-0.03-0.01-0.09c-0.01-0.03-0.02-0.07-0.03-0.12c-0.02-0.06-0.18-0.49-0.2-0.54
				c-0.01-0.02-0.01-0.04-0.02-0.07c-0.01-0.05-0.03-0.12-0.07-0.15c-0.07-0.05-0.21-0.2-0.23-0.25c-0.02-0.04-0.2-0.14-0.28-0.14
				c-0.09,0-0.59-0.1-0.71-0.17c-0.07-0.04-0.21-0.11-0.33-0.18c-0.1-0.05-0.19-0.1-0.22-0.12c-0.08-0.05-0.29-0.15-0.33-0.15
				c-0.01,0-0.02,0-0.04,0c-0.05,0-0.1-0.01-0.17,0.05c-0.09,0.08-0.14,0.12-0.19,0.14c-0.03,0.02-0.05,0.03-0.08,0.05
				c-0.05,0.04-0.05,0.05-0.07,0.08c-0.01,0.01-0.02,0.03-0.03,0.05c-0.05,0.07-0.14,0.27-0.17,0.33c-0.11,0.23-0.22,0.26-0.27,0.26
				c-0.01,0-0.01,0-0.02,0c-0.03,0.01-0.17,0.03-0.35-0.26c-0.17-0.28-0.26-0.4-0.27-0.43c-0.02-0.01-0.11-0.08-0.18-0.07
				c-0.02,0-0.04,0.01-0.07,0.01c-0.1,0.02-0.24,0.04-0.29,0.03c-0.01,0-0.03,0-0.04,0c-0.06,0-0.13,0-0.19-0.09
				c-0.06-0.1-0.16-0.25-0.13-0.48c0.02-0.15-0.04-0.27-0.07-0.34c-0.01-0.03-0.02-0.05-0.03-0.07c0-0.02-0.02-0.05-0.04-0.09
				c-0.03-0.05-0.07-0.11-0.1-0.2c-0.02-0.05-0.03-0.12-0.04-0.18c-0.02-0.11-0.04-0.24-0.1-0.36c-0.12-0.18-0.17-0.55-0.17-0.57
				c0,0-0.01-0.08,0.01-0.24c0.01-0.06,0.01-0.12,0.01-0.19c0-0.1,0-0.2,0.03-0.33c0.06-0.2,0.1-0.35,0.28-0.48
				c0.05-0.03,0.09-0.08,0.14-0.13c0.07-0.07,0.14-0.15,0.22-0.18c0.05-0.02,0.1-0.05,0.16-0.08c0.1-0.06,0.2-0.11,0.28-0.11
				c0.04,0,0.07-0.01,0.1-0.02c0.04-0.01,0.09-0.03,0.16-0.03c0.04,0,0.08,0.01,0.14,0.02c0.04,0.01,0.07,0.01,0.11,0.02
				c0.18,0.04,0.34,0.07,0.46,0.05c0.02,0,0.03-0.01,0.05-0.01c0.14-0.02,0.27-0.04,0.39-0.2c0.03-0.04,0.07-0.09,0.1-0.13
				c0.1-0.14,0.18-0.25,0.23-0.28c0.06-0.04,0.33-0.21,0.33-0.21c0.01,0,0.45-0.21,1-0.24c0.11-0.01,0.2-0.01,0.28-0.01
				c0.17,0,0.26,0.02,0.39,0.04c0.1,0.02,0.22,0.04,0.43,0.07c0.06,0.01,0.21,0.02,0.36,0.05c0.04,0.01,0.1,0.01,0.17,0.02
				c0.14,0.01,0.33,0.03,0.47,0.08c0.08,0.03,0.17,0.07,0.26,0.1c0.14,0.06,0.29,0.12,0.39,0.15c0.17,0.04,0.29,0.07,0.43,0.12
				c0.08,0.03,0.14,0.05,0.19,0.07c0.05,0.02,0.09,0.04,0.15,0.06l0.06,0.02c0.15,0.06,0.44,0.16,0.71,0.22
				c0.16,0.04,0.29,0.06,0.41,0.08c0.12,0.02,0.23,0.04,0.35,0.07c0.05,0.01,0.1,0.02,0.15,0.04c0.18,0.04,0.34,0.08,0.49,0.16
				c0.16,0.08,0.56,0.3,0.72,0.51c0.14,0.18,0.43,0.57,0.47,0.87l0.01,0.04c0.03,0.26,0.05,0.41-0.02,0.71
				c-0.03,0.12-0.06,0.21-0.08,0.29c-0.04,0.12-0.06,0.19-0.04,0.25c0.01,0.02,0.02,0.04,0.02,0.06c0.03,0.07,0.05,0.13,0.01,0.23
				c-0.03,0.07-0.06,0.12-0.09,0.17c-0.02,0.03-0.03,0.06-0.04,0.08c-0.04,0.07-0.1,0.12-0.1,0.13c0,0-0.03,0.03-0.06,0.03
				c-0.01,0-0.03,0-0.04-0.03c-0.01-0.03-0.01-0.06-0.01-0.09c0-0.04,0-0.07-0.01-0.1c-0.01-0.01-0.01-0.02-0.02-0.03
				c-0.04-0.06-0.09-0.14-0.08-0.19l0-0.02c0.01-0.06,0.03-0.14,0.1-0.24c0.07-0.1,0.08-0.19,0.08-0.19v-0.01l0.01-0.01
				c0,0,0.08-0.09,0.1-0.22l0.01-0.03c0.02-0.13,0.07-0.38,0.05-0.46c-0.01-0.08-0.04-0.35-0.04-0.36l-0.03-0.12
				c-0.02-0.02-0.05-0.04-0.07-0.04c0,0,0,0.01,0,0.03c0,0.03,0.01,0.06,0.02,0.08c0.02,0.08,0.04,0.16,0.01,0.41
				c-0.01,0.06-0.01,0.1-0.02,0.14c-0.02,0.13-0.02,0.13-0.06,0.23c-0.01,0.03-0.03,0.07-0.05,0.13c-0.05,0.13-0.1,0.22-0.15,0.31
				c-0.05,0.1-0.09,0.17-0.11,0.26c-0.03,0.13,0,0.2,0.05,0.37c0.02,0.05,0.04,0.1,0.06,0.17c0.03,0.11,0.06,0.19,0.07,0.25
				c0.03,0.12,0.05,0.17,0.08,0.22c0.02,0.03,0.03,0.06,0.04,0.09c0.01,0.04,0.02,0.06,0.04,0.07l0.01,0
				c0.03,0.01,0.07,0.02,0.09,0.06c0.02,0.04,0.02,0.09-0.01,0.17c-0.02,0.05-0.04,0.12-0.07,0.2c-0.07,0.19-0.16,0.43-0.17,0.57
				c-0.01,0.13-0.02,0.22-0.02,0.28c0,0.05,0,0.06-0.01,0.07c-0.01,0.01-0.02,0.02-0.02,0.02c-0.01,0.01-0.03,0.02-0.04,0.04
				c-0.01,0.02-0.01,0.03-0.01,0.05c0,0.01,0,0.03,0,0.05c0,0.09-0.02,0.29-0.02,0.32c0,0.01,0.01,0.05-0.01,0.08
				c-0.02,0.02-0.04,0.03-0.08,0.03h-0.03c-0.04,0-0.1,0-0.17,0c-0.12,0-0.25,0-0.28,0c-0.05,0-0.08,0.01-0.11-0.02
				c-0.01-0.01-0.01-0.04-0.01-0.07c0.01-0.02,0.01-0.06,0.02-0.09c0.02-0.1,0.04-0.21,0.09-0.24c0.05-0.03,0.14-0.11,0.16-0.13
				c0.01-0.04,0.02-0.18,0.05-0.26c0.01-0.04,0.01-0.08,0.02-0.13c0-0.05,0.01-0.09,0.02-0.13c0.02-0.06,0.08-0.29,0.08-0.36
				c0-0.01,0-0.03,0-0.04c0.01-0.09,0.03-0.25-0.13-0.43c-0.17-0.2-0.32-0.3-0.45-0.38l-0.04-0.03c-0.22-0.15-0.39-0.22-0.53-0.24
				c-0.11-0.01-0.27,0.04-0.37,0.09c-0.03,0.01-0.06,0.03-0.1,0.05c-0.1,0.05-0.24,0.11-0.36,0.18c-0.07,0.04-0.13,0.07-0.19,0.1
				c-0.11,0.06-0.21,0.11-0.25,0.13c-0.02,0.01-0.05,0.02-0.07,0.02c-0.05,0-0.1-0.04-0.1-0.1c0-0.02,0-0.03-0.01-0.05
				c-0.01-0.08-0.02-0.09-0.06-0.09c-0.09,0.01-0.13,0.02-0.23,0.05c-0.08,0.03-0.19,0.12-0.23,0.25c-0.02,0.07-0.04,0.13-0.06,0.2
				c-0.02,0.07-0.04,0.13-0.07,0.21c-0.02,0.05-0.04,0.1-0.07,0.14c-0.02,0.04-0.04,0.07-0.06,0.11c-0.03,0.08-0.06,0.11-0.16,0.19
				c-0.03,0.02-0.06,0.05-0.1,0.09c-0.03,0.03-0.06,0.06-0.09,0.08c-0.08,0.07-0.14,0.12-0.2,0.25c-0.08,0.16-0.09,0.17-0.11,0.22
				c-0.01,0.03-0.03,0.05-0.05,0.06c-0.01,0.01-0.02,0.02-0.02,0.03c0,0.04-0.01,0.22-0.01,0.23c0,0,0.01,0.06-0.02,0.09
				c-0.01,0.01-0.02,0.02-0.04,0.02c-0.08,0-0.16,0-0.23,0h-0.16c-0.05,0-0.1,0-0.14,0L306.1,413.94z M306.06,413.9
				c0,0,0.01,0.01,0.04,0.01h0.01c0.04,0,0.08,0,0.14,0h0.16c0.07,0,0.15,0,0.23,0c0,0,0,0,0.01,0c0.01-0.01,0.01-0.04,0.01-0.06
				c0-0.01,0.01-0.19,0.01-0.23c0-0.03,0.02-0.05,0.04-0.06c0.01-0.01,0.02-0.02,0.04-0.04c0.02-0.05,0.03-0.06,0.11-0.23
				c0.07-0.13,0.13-0.18,0.21-0.26c0.03-0.02,0.06-0.05,0.09-0.08c0.04-0.04,0.07-0.07,0.1-0.09c0.09-0.08,0.12-0.1,0.15-0.17
				c0.02-0.04,0.04-0.08,0.06-0.12c0.02-0.04,0.05-0.08,0.06-0.14c0.02-0.08,0.05-0.14,0.07-0.21c0.02-0.06,0.04-0.13,0.06-0.2
				c0.05-0.15,0.17-0.25,0.26-0.28c0.11-0.04,0.15-0.04,0.24-0.05c0.01,0,0.01,0,0.02,0c0.08,0,0.09,0.07,0.09,0.13
				c0,0.01,0,0.03,0.01,0.04c0.01,0.04,0.03,0.07,0.06,0.07c0.02,0,0.04-0.01,0.05-0.02c0.04-0.03,0.14-0.07,0.26-0.13
				c0.06-0.03,0.13-0.06,0.19-0.1c0.12-0.06,0.26-0.13,0.36-0.18c0.04-0.02,0.07-0.03,0.1-0.05c0.11-0.05,0.28-0.11,0.39-0.1
				c0.14,0.01,0.32,0.09,0.55,0.24l0.04,0.03c0.13,0.09,0.29,0.19,0.46,0.39c0.17,0.2,0.15,0.37,0.14,0.46c0,0.02,0,0.03,0,0.04
				c0,0.08-0.06,0.31-0.08,0.38c-0.01,0.03-0.01,0.07-0.02,0.11c0,0.05-0.01,0.09-0.02,0.13c-0.02,0.08-0.04,0.26-0.04,0.26v0.01
				l-0.01,0.01c-0.01,0.01-0.11,0.11-0.17,0.15c-0.03,0.02-0.05,0.13-0.07,0.21c-0.01,0.04-0.01,0.07-0.02,0.09
				c-0.01,0.03,0,0.03,0,0.03c0,0,0.02,0,0.04,0c0.01,0,0.02,0,0.04,0c0.03,0,0.16,0,0.28,0c0.06,0,0.12,0,0.17,0h0.03
				c0.02,0,0.04-0.01,0.05-0.02c0.01-0.01,0.01-0.04,0.01-0.04l0,0v0c0,0,0.02-0.23,0.02-0.32c0-0.02,0-0.04,0-0.05
				c0-0.03,0-0.04,0.01-0.07c0.02-0.03,0.04-0.05,0.06-0.06c0,0,0.01,0,0.01-0.01c0-0.01,0-0.03,0-0.05c0-0.06,0-0.16,0.02-0.28
				c0.02-0.14,0.11-0.39,0.18-0.58c0.03-0.08,0.06-0.15,0.07-0.2c0.02-0.07,0.03-0.11,0.01-0.14c-0.01-0.02-0.04-0.03-0.06-0.04
				l-0.01,0c-0.04-0.01-0.05-0.05-0.07-0.09c-0.01-0.03-0.02-0.05-0.04-0.08c-0.03-0.05-0.05-0.11-0.08-0.23
				c-0.02-0.06-0.04-0.14-0.07-0.25c-0.02-0.07-0.04-0.12-0.05-0.17c-0.06-0.17-0.08-0.25-0.05-0.39c0.02-0.1,0.06-0.17,0.12-0.27
				c0.04-0.08,0.09-0.17,0.15-0.3c0.02-0.05,0.04-0.1,0.05-0.13c0.04-0.1,0.04-0.1,0.06-0.22c0-0.03,0.01-0.08,0.02-0.14
				c0.03-0.24,0.01-0.32-0.01-0.39c-0.01-0.03-0.01-0.06-0.02-0.09c0-0.03,0-0.05,0.01-0.06c0.01-0.01,0.02-0.01,0.03-0.01
				c0.04,0,0.09,0.05,0.1,0.06l0,0l0.04,0.14c0,0.01,0.02,0.28,0.04,0.36c0.01,0.08-0.03,0.33-0.05,0.47l-0.01,0.03
				c-0.02,0.12-0.09,0.21-0.11,0.23c0,0.02-0.02,0.11-0.09,0.21c-0.06,0.09-0.08,0.17-0.09,0.23l0,0.02
				c-0.01,0.04,0.04,0.11,0.07,0.16c0.01,0.01,0.02,0.02,0.02,0.04c0.02,0.04,0.02,0.08,0.02,0.12c0,0.03,0,0.05,0.01,0.07
				c0,0,0,0.01,0.01,0.01c0.01,0,0.02-0.01,0.03-0.02c0,0,0.06-0.05,0.1-0.11c0.01-0.03,0.03-0.05,0.05-0.08
				c0.03-0.05,0.05-0.1,0.08-0.16c0.03-0.08,0.02-0.12-0.01-0.19c-0.01-0.02-0.02-0.04-0.02-0.06c-0.02-0.07,0-0.15,0.04-0.28
				c0.02-0.07,0.05-0.17,0.08-0.28c0.07-0.29,0.05-0.43,0.02-0.69l-0.01-0.04c-0.04-0.29-0.32-0.66-0.46-0.85
				c-0.16-0.21-0.55-0.42-0.71-0.49c-0.15-0.07-0.31-0.11-0.48-0.15c-0.05-0.01-0.1-0.02-0.15-0.04c-0.12-0.03-0.23-0.05-0.35-0.07
				c-0.13-0.02-0.26-0.04-0.42-0.08c-0.27-0.06-0.56-0.17-0.71-0.23l-0.06-0.02c-0.06-0.02-0.11-0.04-0.16-0.06
				c-0.05-0.02-0.11-0.05-0.19-0.07c-0.14-0.04-0.26-0.08-0.43-0.12c-0.1-0.02-0.26-0.09-0.4-0.15c-0.09-0.04-0.18-0.08-0.26-0.1
				c-0.14-0.05-0.31-0.06-0.46-0.08c-0.07-0.01-0.13-0.01-0.17-0.02c-0.15-0.03-0.3-0.04-0.36-0.05c-0.21-0.02-0.34-0.05-0.44-0.07
				c-0.12-0.02-0.21-0.04-0.38-0.04c-0.08,0-0.17,0-0.28,0.01c-0.54,0.03-0.98,0.23-0.98,0.24c-0.01,0.01-0.27,0.18-0.33,0.21
				c-0.04,0.03-0.12,0.14-0.22,0.27c-0.03,0.04-0.06,0.09-0.1,0.13c-0.13,0.18-0.28,0.2-0.42,0.22c-0.02,0-0.03,0.01-0.05,0.01
				c-0.13,0.02-0.28-0.01-0.47-0.05c-0.03-0.01-0.07-0.01-0.11-0.02c-0.05-0.01-0.09-0.01-0.13-0.01c-0.07,0-0.11,0.01-0.14,0.03
				c-0.04,0.01-0.07,0.02-0.12,0.02c-0.07,0-0.17,0.05-0.26,0.11c-0.05,0.03-0.11,0.06-0.16,0.08c-0.08,0.03-0.15,0.1-0.21,0.17
				c-0.05,0.05-0.09,0.1-0.14,0.13c-0.17,0.12-0.21,0.26-0.26,0.45c-0.03,0.12-0.03,0.22-0.03,0.31c0,0.07,0,0.13-0.01,0.19
				c-0.02,0.16-0.01,0.23-0.01,0.23c0,0,0.05,0.38,0.16,0.55c0.07,0.13,0.09,0.26,0.11,0.37c0.01,0.07,0.02,0.13,0.04,0.18
				c0.03,0.08,0.06,0.14,0.09,0.19c0.02,0.04,0.04,0.07,0.05,0.1c0,0.01,0.01,0.03,0.02,0.06c0.03,0.08,0.09,0.2,0.07,0.37
				c-0.02,0.21,0.06,0.35,0.12,0.45c0.04,0.07,0.1,0.07,0.15,0.07c0.02,0,0.04,0,0.05,0c0.05,0.01,0.18-0.01,0.27-0.03
				c0.03,0,0.05-0.01,0.07-0.01c0.09-0.01,0.21,0.08,0.22,0.08l0.01,0.01c0,0,0.09,0.12,0.27,0.43c0.14,0.22,0.24,0.24,0.28,0.24
				c0.01,0,0.02,0,0.02,0l0.01,0l0.01,0l0,0c0,0,0,0,0.01,0c0.03,0,0.12-0.02,0.23-0.24c0.03-0.07,0.13-0.26,0.18-0.34
				c0.01-0.02,0.02-0.04,0.03-0.05c0.02-0.03,0.03-0.05,0.08-0.09c0.03-0.03,0.05-0.04,0.08-0.06c0.04-0.02,0.09-0.05,0.18-0.14
				c0.06-0.06,0.12-0.07,0.17-0.07c0.02,0,0.03,0,0.04,0c0.01,0,0.02,0,0.03,0c0.07,0,0.32,0.14,0.36,0.16
				c0.03,0.02,0.11,0.06,0.22,0.12c0.13,0.07,0.27,0.14,0.33,0.18c0.11,0.07,0.6,0.16,0.69,0.16c0.08,0,0.29,0.11,0.32,0.17
				c0.02,0.04,0.15,0.18,0.22,0.23c0.06,0.04,0.07,0.11,0.09,0.17c0.01,0.02,0.01,0.05,0.02,0.06c0.02,0.05,0.19,0.49,0.2,0.55
				c0.01,0.05,0.02,0.09,0.03,0.12c0.02,0.06,0.02,0.08,0.01,0.11c-0.01,0.02-0.02,0.04-0.04,0.06c-0.03,0.04-0.08,0.1-0.12,0.2
				l0,0.01C306.06,413.86,306.05,413.89,306.06,413.9L306.06,413.9z"/>
		</g>
		<g>
			<g>
				<g>
					<path class="st6" d="M302.35,408.73c0.06-0.13,0.01-0.17-0.01-0.33c-0.02-0.16,0.01-0.27,0.25-0.04
						c0.23,0.24,0.21,0.55,0.21,0.55s0.02,0.2-0.25,0.44c-0.01-0.37-0.34-0.34-0.34-0.34S302.29,408.86,302.35,408.73z"/>
				</g>
			</g>
			<g>
				<g>
					<path class="st6" d="M301.8,409.63c0.07,0,0.09,0.07,0.21,0.09c0.1,0.02,0.06,0.1,0,0.11c-0.04,0.01-0.1,0.03-0.18,0.04
						c-0.07,0.01-0.1,0.02-0.19,0.01c-0.09-0.02-0.03-0.08-0.01-0.1c0.02-0.02,0.04-0.03,0.06-0.06
						C301.72,409.68,301.73,409.63,301.8,409.63z"/>
				</g>
			</g>
		</g>
	</g>
</g>
<g id="TEXT">
	<g>
		<path class="st2" d="M302.86,376.1h1l1,2.01h0.01l-0.01-2.01h0.72v2.96h-0.98l-1.03-2.02h-0.01l0.02,2.02h-0.72L302.86,376.1
			L302.86,376.1z"/>
		<path class="st2" d="M307.06,376.1h0.97l1.14,2.96h-0.86l-0.22-0.63h-1.11l-0.23,0.63h-0.8L307.06,376.1z M307.55,376.71
			L307.55,376.71l-0.39,1.16h0.74L307.55,376.71z"/>
		<path class="st2" d="M309.92,376.69h-0.73v-0.59h2.24v0.59h-0.73v2.37h-0.79V376.69L309.92,376.69z"/>
		<path class="st2" d="M311.88,376.1h0.79v2.96h-0.79V376.1z"/>
		<path class="st2" d="M314.67,376.05c0.97,0,1.48,0.58,1.48,1.53c0,0.94-0.52,1.53-1.48,1.53c-0.97,0-1.48-0.59-1.48-1.53
			C313.18,376.63,313.69,376.05,314.67,376.05z M314.67,378.53c0.48,0,0.67-0.46,0.67-0.94c0-0.51-0.19-0.94-0.67-0.94
			c-0.48,0-0.67,0.43-0.67,0.94C314,378.07,314.19,378.53,314.67,378.53z"/>
		<path class="st2" d="M316.64,376.1h1l1,2.01h0.01l-0.01-2.01h0.72v2.96h-0.98l-1.03-2.02h-0.01l0.02,2.02h-0.72V376.1z"/>
		<path class="st2" d="M320.85,376.1h0.97l1.14,2.96h-0.86l-0.22-0.63h-1.11l-0.23,0.63h-0.8L320.85,376.1z M321.33,376.71
			L321.33,376.71l-0.39,1.16h0.74L321.33,376.71z"/>
		<path class="st2" d="M323.3,376.1h0.79v2.37h1.22v0.59h-2.01V376.1z"/>
		<path class="st2" d="M308.35,380.34h0.94c0.9,0,1.33,0.3,1.33,0.97c0,0.6-0.44,0.95-1.17,0.95h-0.31v1.03h-0.79L308.35,380.34
			L308.35,380.34z M309.14,381.7h0.2c0.27,0,0.49-0.1,0.49-0.41c0-0.3-0.22-0.4-0.49-0.4h-0.2V381.7z"/>
		<path class="st2" d="M311.69,380.34h0.97l1.14,2.96h-0.86l-0.22-0.63h-1.11l-0.23,0.63h-0.8L311.69,380.34z M312.17,380.95
			L312.17,380.95l-0.39,1.16h0.74L312.17,380.95z"/>
		<path class="st2" d="M314.12,380.34h1.41c0.52,0,0.95,0.24,0.95,0.75c0,0.39-0.19,0.66-0.57,0.75v0.01
			c0.25,0.07,0.27,0.29,0.42,0.65l0.29,0.8h-0.82l-0.17-0.53c-0.16-0.51-0.26-0.63-0.56-0.63h-0.16v1.17h-0.79L314.12,380.34
			L314.12,380.34z M314.91,381.57h0.21c0.25,0,0.58-0.01,0.58-0.34c0-0.28-0.28-0.33-0.58-0.33h-0.21V381.57z"/>
		<path class="st2" d="M317.05,380.34h0.79v1.21h0.01l0.89-1.21h0.95l-1.09,1.38l1.18,1.58h-1l-0.92-1.34h-0.01v1.34h-0.79V380.34z"
			/>
		<path class="st2" d="M305.18,386.8c0.2,0.11,0.49,0.19,0.81,0.19c0.25,0,0.49-0.05,0.49-0.29c0-0.55-1.4-0.2-1.4-1.28
			c0-0.71,0.69-0.91,1.29-0.91c0.28,0,0.56,0.04,0.76,0.11l-0.05,0.61c-0.2-0.09-0.43-0.14-0.66-0.14c-0.2,0-0.53,0.02-0.53,0.28
			c0,0.48,1.4,0.16,1.4,1.22c0,0.77-0.64,0.97-1.3,0.97c-0.28,0-0.62-0.04-0.88-0.13L305.18,386.8z"/>
		<path class="st2" d="M307.78,384.57h2.08v0.56h-1.3v0.61h1.22v0.56h-1.22v0.67h1.34v0.56h-2.13L307.78,384.57L307.78,384.57z"/>
		<path class="st2" d="M310.41,384.57h1.41c0.52,0,0.95,0.24,0.95,0.75c0,0.39-0.19,0.66-0.57,0.75v0.01
			c0.25,0.07,0.27,0.29,0.42,0.65l0.29,0.8h-0.82l-0.17-0.53c-0.16-0.51-0.26-0.63-0.55-0.63h-0.16v1.17h-0.79L310.41,384.57
			L310.41,384.57z M311.2,385.8h0.21c0.25,0,0.58-0.01,0.58-0.34c0-0.28-0.28-0.33-0.58-0.33h-0.21V385.8z"/>
		<path class="st2" d="M313.09,384.57h0.84l0.66,2.32h0.01l0.66-2.32h0.81l-1.01,2.96h-0.97L313.09,384.57z"/>
		<path class="st2" d="M316.46,384.57h0.79v2.96h-0.79V384.57z"/>
		<path class="st2" d="M320.34,387.46c-0.22,0.05-0.47,0.12-0.88,0.12c-0.79,0-1.7-0.4-1.7-1.52c0-1.03,0.72-1.54,1.69-1.54
			c0.3,0,0.59,0.07,0.88,0.15l-0.06,0.64c-0.25-0.14-0.5-0.21-0.77-0.21c-0.56,0-0.92,0.41-0.92,0.96c0,0.58,0.41,0.93,0.99,0.93
			c0.26,0,0.52-0.07,0.74-0.15L320.34,387.46z"/>
		<path class="st2" d="M320.72,384.57h2.08v0.56h-1.3v0.61h1.22v0.56h-1.22v0.67h1.34v0.56h-2.13V384.57z"/>
	</g>
</g>
<g id="LOGO_OUTLINE">
	<g>
		<path class="st1" d="M307.87,420.98c-0.63,0-1.85-0.24-2.08-0.29c-0.74-0.15-1.69-0.55-2-0.68l-0.07-0.03
			c-0.22-0.09-1.14-0.49-1.23-0.54c-0.21-0.1-0.58-0.3-0.78-0.45c-0.27-0.21-0.51-0.71-0.54-0.77l-0.07-0.15l0.07-0.09
			c-0.08-0.06-0.18-0.16-0.34-0.29c-0.17-0.15-0.48-0.43-0.59-0.5c-0.25-0.03-0.41-0.25-0.45-0.3l-0.04-0.05l-0.01-0.06
			c-0.04-0.26-0.11-0.56-0.16-0.62c-0.08-0.08-0.16-0.24-0.31-0.58c-0.07-0.16-0.15-0.33-0.19-0.4c-0.12-0.18-0.1-0.33-0.09-0.41
			c0-0.01,0-0.02,0-0.03c-0.1-0.14-1.15-1.28-1.25-1.38c-0.14-0.14-0.71-1.29-0.72-1.3l-0.02-0.04l-0.01-0.04
			c0,0-0.04-0.24-0.13-0.42c-0.01-0.02-0.02-0.03-0.05-0.07c-0.02-0.02-0.04-0.05-0.07-0.08c-0.08-0.11-0.16-0.22-0.24-0.34
			c-0.07-0.1-0.17-0.25-0.22-0.3c-0.5-0.15-1.07-0.57-1.25-0.76l-0.02-0.03l-0.02-0.03c-0.05-0.11-0.08-0.28-0.11-0.61
			c-0.01-0.06-0.01-0.11-0.01-0.13c-0.04-0.27-0.57-1.36-0.67-1.5c-0.04-0.05-0.16-0.19-0.58-0.61c-0.06-0.06-0.13-0.17-0.38-0.58
			c-0.2-0.33-0.62-1.01-0.74-1.11c-0.14-0.09-0.52-0.56-1.61-1.99c-0.19-0.25-0.37-0.49-0.4-0.52c-0.35-0.39-0.5-1.2-0.61-1.8
			c-0.03-0.17-0.07-0.38-0.09-0.44c-0.01-0.01-0.03-0.03-0.05-0.06c-0.06-0.07-0.15-0.17-0.22-0.28c-0.28-0.42-0.49-0.95-0.53-1.09
			c-0.05-0.19-0.07-1.17-0.07-1.3c-0.01-0.07-0.1-0.4-0.25-0.9c-0.04-0.12-0.08-0.24-0.12-0.33c-0.02-0.05-0.04-0.1-0.05-0.13
			l-0.01-0.05c0-0.01-0.1-0.93-0.17-1.23c-0.07-0.31-0.78-2.54-0.95-2.92c-0.05-0.11-0.14-0.32-0.24-0.57
			c-0.19-0.46-0.58-1.41-0.7-1.56c-0.18-0.15-0.28-0.42-0.36-0.62c-0.02-0.05-0.04-0.1-0.05-0.14c-0.1-0.21,0-0.42,0.09-0.59
			c0.03-0.06,0.06-0.13,0.07-0.16c0.02-0.09,0.05-0.16,0.07-0.22c0.04-0.1,0.08-0.19,0.1-0.43c0.04-0.43,0.07-1,0.07-1
			c0.03-0.4,0.04-0.9,0.01-1.01c-0.04-0.11-0.26-0.56-0.66-1.36l-0.07-0.14c-0.07-0.14-0.06-0.39-0.02-0.9
			c0.01-0.16,0.03-0.31,0.03-0.4c0-0.25-0.23-1.34-0.31-1.5c-0.07-0.09-0.13-0.2-0.2-0.33c-0.04-0.07-0.08-0.16-0.14-0.25
			c-0.19-0.33-0.19-1.16-0.05-1.49c0.14-0.33,0.3-0.8,0.3-0.93c0-0.07,0.01-0.15,0.03-0.28c0.04-0.27,0.16-1-0.06-1.19
			c-0.16-0.14-0.35-0.44-0.6-0.85l-0.07-0.11c-0.09-0.15-0.18-0.33-0.23-0.42l-0.05-0.1l0-0.06c-0.01-0.13,0.06-0.48,0.2-1.24
			c0.07-0.38,0.17-0.89,0.17-0.98c0-0.04,0-0.08,0-0.12c-0.01-0.31,0-0.53,0.1-0.67c0.08-0.12,0.23-0.18,0.88-0.43
			c0.24-0.09,0.6-0.23,0.68-0.28c0.23-0.15,1.23-0.78,1.51-0.95c0.19-0.12,0.37-0.17,0.56-0.17c0.23,0,0.43,0.08,0.72,0.19
			c0.48,0.19,1.64,0.64,1.84,0.72c0.28,0.11,1.69,0.58,2,0.58c0.71-0.08,1.12-0.38,1.27-0.49l0.04-0.03
			c0.12-0.11,0.43-0.91,0.43-1.18c0-0.27-0.27-1.13-0.37-1.33c-0.02-0.04-0.05-0.1-0.08-0.17c-0.08-0.18-0.3-0.65-0.4-0.73
			c-0.25-0.2-0.38-0.58-0.36-0.82c0.01-0.15,0.14-0.53,0.2-0.69l0.05-0.14l0.15-0.03c0.26-0.05,0.37-0.11,0.46-0.15
			c0.05-0.03,0.11-0.06,0.19-0.08c0.13-0.03,0.52-0.17,0.78-0.26c0.15-0.05,0.27-0.1,0.33-0.11c0.03-0.01,0.18-0.07,0.31-0.13
			c0.59-0.25,0.9-0.37,1.06-0.39c0.07-0.01,0.36-0.11,0.56-0.18c0.42-0.14,0.6-0.21,0.72-0.21c0.07-0.01,0.36-0.11,0.52-0.16
			c0.16-0.06,0.31-0.11,0.39-0.13c0.09-0.02,0.43-0.12,0.7-0.2c0.35-0.1,0.49-0.15,0.55-0.16c0.03-0.01,0.23-0.08,0.4-0.14
			c0.65-0.24,0.94-0.34,1.08-0.36c0.43-0.12,1.02-0.22,1.22-0.25l0.04-0.01c0.22-0.04,0.94-0.11,1.28-0.08c0.02,0,0.04,0,0.06,0
			c0.3,0,1.14-0.06,1.69-0.09c0.37-0.02,0.56-0.04,0.61-0.04c0.11,0,0.83-0.02,1.04-0.08c0.36-0.1,3.04-0.21,3.07-0.21l0.03,0
			l0.03,0.01c0.02,0.01,0.06,0.01,0.1,0.02c0.31,0.06,0.66,0.14,0.86,0.26c0.2,0.12,1.22,0.56,1.55,0.62
			c0.19,0.03,0.68,0.07,1.2,0.11c1.4,0.11,1.71,0.15,1.84,0.23l0.05,0.04c0.07,0.07,0.2,0.23,0.41,0.48
			c0.19,0.23,0.5,0.61,0.58,0.68c0.08,0.05,0.28,0.21,0.68,0.53c0.22,0.18,0.45,0.36,0.52,0.41l0.02,0.02
			c0.12,0.11,0.25,0.22,0.31,0.49c0.03,0.13,0.03,0.23,0.02,0.3c0.12,0.48,0.12,0.56,0.12,0.59c0,0.19-0.11,0.26-0.75,0.68
			c-0.16,0.11-0.39,0.25-0.43,0.29l-0.07,0.06l-0.1,0.01c-0.12,0.05-0.36,0.64-0.29,1.06c0.07,0.44,0.52,1,0.65,1.06
			c0.11,0.03,0.62,0.14,0.96,0.21c0.39,0.08,0.46,0.1,0.49,0.11c0.13,0.04,0.38,0.28,0.46,0.44c0.05,0.06,0.23,0.2,0.3,0.24
			c0.08,0.03,0.15,0.09,0.22,0.15c0.04,0.04,0.13,0.12,0.17,0.13h0.1c0.08,0,0.2,0,0.33,0c0.84,0,1.01-0.04,1.04-0.05
			c0.06-0.02,0.14-0.03,0.25-0.03c0.22,0,0.54,0.05,0.82,0.09c0.16,0.02,0.35,0.05,0.41,0.05c0,0,1.27-0.19,1.5-0.23
			c0.03-0.01,0.05-0.01,0.08-0.01c0.25,0,0.59,0.17,1.05,0.42c0.1,0.05,0.18,0.1,0.25,0.13c0.1,0.05,0.31,0.13,0.53,0.22
			c0.84,0.33,1.1,0.46,1.19,0.63c0.1,0.19,0.06,0.32,0.01,0.42c0,0.01-0.01,0.01-0.01,0.02c0,0.07,0.01,0.29,0.01,0.53
			c0.01,0.25,0.01,0.52,0.01,0.61c0,0.09,0.07,0.67,0.12,1.06c0.07,0.56,0.09,0.72,0.09,0.78c0,0.05,0,0.19-0.28,0.75
			c-0.04,0.09-0.13,0.24-0.23,0.4c-0.07,0.13-0.19,0.32-0.21,0.36c-0.05,0.12-0.06,0.17-0.06,0.19c0.03,0.08,0.11,0.32,0.21,0.64
			c0.04,0.14,0.08,0.27,0.11,0.33c0.02,0.05,0.04,0.09,0.07,0.14c0.06,0.1,0.16,0.26,0.1,0.45c-0.02,0.08-0.09,0.19-0.2,0.39
			c-0.07,0.13-0.2,0.35-0.22,0.41l0,0.02c-0.14,0.85-0.14,1.04-0.14,1.08c0.01,0.12,0.01,0.35,0.01,0.59c0,0.18,0,0.42,0.01,0.48
			c0.02,0.14-0.04,0.35-0.42,1.35c-0.05,0.13-0.09,0.25-0.12,0.31c-0.06,0.16-0.09,0.42-0.09,0.71c0,0.04,0.01,0.3,0.02,0.58
			c0.01,0.39,0.02,0.65,0.02,0.71c0,0.15-0.1,0.29-0.39,0.65c-0.07,0.09-0.14,0.17-0.19,0.24c-0.04,0.05-0.12,0.16-0.23,0.29
			c-0.2,0.25-0.72,0.9-0.83,1.12c0.04,0.12,0.09,0.3,0.16,0.55c0.06,0.23,0.13,0.49,0.17,0.6c0.08,0.19,0.18,0.57,0.25,0.85
			c0.03,0.12,0.05,0.21,0.07,0.25c0.08,0.25-0.1,0.86-0.11,0.86c-0.02,0.07-0.08,0.19-0.17,0.39c-0.05,0.11-0.13,0.27-0.14,0.31
			c-0.01,0.03-0.02,0.07-0.04,0.11c-0.03,0.07-0.06,0.14-0.06,0.21c0,0.08-0.01,0.25-0.03,0.44c-0.01,0.16-0.04,0.42-0.04,0.49
			c0.04,0.21-0.12,0.57-0.22,0.69c-0.19,0.24-1.13,1.46-1.27,1.76c-0.06,0.12-0.13,0.29-0.2,0.47c-0.16,0.37-0.32,0.76-0.45,0.96
			c-0.1,0.15-0.2,0.78-0.21,0.92c0.01,0.1,0.02,0.38-0.29,0.69c-0.27,0.27-1.31,1.39-1.45,1.57c-0.05,0.13-0.17,0.53-0.19,0.62
			c-0.01,0.16-0.16,0.46-0.32,0.64c-0.36,0.46-0.79,1.04-0.84,1.16c-0.08,0.23-0.2,0.59-0.2,0.59c-0.04,0.12-0.07,0.21-0.09,0.29
			c-0.02,0.07-0.04,0.13-0.06,0.19c-0.02,0.07-0.05,0.42-0.05,0.55c0.01,0.1,0.04,0.22,0.06,0.31c0.01,0.05,0.02,0.09,0.03,0.12
			c0.04,0.21-0.11,0.52-0.34,0.68l-0.02,0.01c-0.27,0.2-0.42,0.33-0.46,0.39c-0.09,0.16-0.33,0.68-0.36,0.83
			c0.02,0.06,0.04,0.13,0.07,0.19c0.05,0.12,0.08,0.21,0.08,0.3c0,0.23-0.21,0.33-0.31,0.37c-0.01,0.01-0.03,0.01-0.04,0.02
			c-0.09,0.07-0.9,0.77-1.03,0.95c-0.1,0.14-0.29,0.4-0.37,0.64l-0.02,0.07c-0.06,0.19-0.18,0.54-0.19,0.63c0,0.07,0,0.14,0,0.19
			c0,0.05,0,0.09,0,0.12v0.13l-0.1,0.08c-0.12,0.1-0.91,0.8-0.98,0.87c-0.09,0.09-1.15,0.87-1.42,1.04
			c-0.07,0.11-0.16,0.5-0.16,0.61c0,0.34-0.54,0.71-0.65,0.76c-0.19,0.1-0.56,0.39-0.61,0.47l-0.02,0.03
			c-0.06,0.12-0.16,0.31-0.19,0.48c-0.05,0.27-0.4,1.05-0.49,1.17c-0.03,0.04-0.09,0.1-0.27,0.27c-0.17,0.17-0.57,0.56-0.63,0.66
			c-0.02,0.04-0.06,0.09-0.13,0.19c-0.05,0.07-0.14,0.19-0.16,0.22c-0.07,0.16-0.22,0.27-0.31,0.34l-0.02,0.01
			c-0.06,0.05-0.27,0.28-0.31,0.36c-0.11,0.22-0.47,0.55-0.67,0.72c-0.11,0.1-0.17,0.16-0.22,0.21c-0.11,0.11-0.18,0.18-0.42,0.34
			c-0.38,0.25-0.65,0.37-0.97,0.5C308.17,420.96,308.05,420.98,307.87,420.98z M301.71,418.11c0.1,0.18,0.23,0.39,0.33,0.47
			c0.11,0.09,0.37,0.24,0.68,0.39c0.07,0.04,0.95,0.42,1.2,0.52l0.07,0.03c0.3,0.13,1.21,0.51,1.9,0.65
			c0.63,0.13,1.53,0.28,1.98,0.28c0.14,0,0.19-0.01,0.19-0.02c0.3-0.13,0.54-0.23,0.89-0.46c0.2-0.13,0.24-0.17,0.32-0.26
			c0.06-0.06,0.13-0.13,0.26-0.25c0.34-0.3,0.51-0.5,0.54-0.56c0.09-0.17,0.36-0.47,0.47-0.55l0.02-0.02
			c0.05-0.04,0.13-0.1,0.14-0.13c0.04-0.08,0.11-0.18,0.22-0.32c0.04-0.05,0.08-0.1,0.09-0.13c0.08-0.15,0.37-0.43,0.73-0.78
			c0.09-0.09,0.2-0.19,0.22-0.22c0.05-0.08,0.36-0.75,0.39-0.94c0.04-0.25,0.16-0.48,0.24-0.62l0.02-0.04
			c0.11-0.23,0.68-0.6,0.83-0.69c0.13-0.07,0.33-0.26,0.37-0.33c0.02-0.17,0.13-0.87,0.41-1.02c0.12-0.07,1.21-0.86,1.33-0.97
			c0.05-0.05,0.65-0.59,0.91-0.82c0-0.06,0-0.13,0-0.19c0-0.15,0.08-0.41,0.21-0.8l0.02-0.07c0.11-0.32,0.33-0.63,0.45-0.79
			c0.19-0.26,1.08-1.02,1.16-1.08c0.02-0.01,0.05-0.03,0.08-0.04c0-0.01-0.01-0.01-0.01-0.02c-0.03-0.09-0.07-0.19-0.1-0.29
			c-0.06-0.28,0.42-1.17,0.43-1.18c0.1-0.18,0.35-0.37,0.6-0.56l0.02-0.01c0.07-0.05,0.11-0.14,0.12-0.18
			c-0.01-0.02-0.01-0.04-0.02-0.07c-0.03-0.11-0.07-0.26-0.08-0.41c-0.01-0.15,0.02-0.57,0.07-0.75c0.02-0.05,0.03-0.1,0.05-0.16
			c0.02-0.09,0.05-0.19,0.1-0.32l0,0c0,0,0.12-0.37,0.21-0.6c0.09-0.25,0.73-1.07,0.93-1.32c0.11-0.12,0.18-0.3,0.2-0.35
			c0.02-0.18,0.21-0.75,0.23-0.79c0.08-0.21,1.54-1.72,1.56-1.73c0.14-0.14,0.14-0.23,0.13-0.28c0-0.02,0-0.03,0-0.04
			c0-0.05,0.09-0.89,0.3-1.2c0.1-0.16,0.27-0.55,0.4-0.87c0.08-0.19,0.15-0.36,0.21-0.49c0.19-0.41,1.33-1.85,1.34-1.87
			c0.04-0.05,0.1-0.22,0.11-0.29c-0.01-0.08-0.01-0.2,0.03-0.61c0.01-0.16,0.03-0.33,0.03-0.39c0-0.17,0.05-0.31,0.09-0.41
			c0.01-0.02,0.02-0.04,0.02-0.06c0.02-0.06,0.06-0.16,0.17-0.4c0.06-0.12,0.13-0.29,0.15-0.34c0.04-0.13,0.11-0.45,0.1-0.54
			c-0.02-0.05-0.04-0.14-0.07-0.27c-0.07-0.25-0.17-0.62-0.23-0.78c-0.06-0.14-0.13-0.4-0.2-0.67c-0.05-0.19-0.12-0.47-0.15-0.53
			c-0.11-0.22-0.01-0.45,0.93-1.61c0.1-0.12,0.18-0.22,0.21-0.27c0.05-0.07,0.13-0.17,0.2-0.26c0.09-0.11,0.23-0.28,0.27-0.36
			c0-0.11-0.01-0.41-0.02-0.65c-0.01-0.28-0.02-0.56-0.02-0.6c0-0.25,0.02-0.61,0.12-0.89c0.02-0.07,0.07-0.19,0.12-0.32
			c0.11-0.29,0.36-0.95,0.39-1.11c-0.01-0.1-0.01-0.27-0.01-0.53c0-0.21,0-0.44-0.01-0.53c-0.01-0.11,0-0.34,0.14-1.22l0.01-0.03
			c0.02-0.11,0.1-0.25,0.27-0.57c0.05-0.08,0.11-0.19,0.14-0.26c-0.01-0.01-0.02-0.03-0.02-0.04c-0.04-0.06-0.09-0.14-0.13-0.25
			c-0.02-0.07-0.06-0.2-0.11-0.34c-0.07-0.22-0.18-0.56-0.2-0.62c-0.07-0.18-0.01-0.4,0.06-0.58c0.03-0.07,0.1-0.19,0.24-0.43
			c0.08-0.14,0.17-0.3,0.21-0.36c0.12-0.24,0.21-0.45,0.22-0.52c-0.01-0.08-0.05-0.41-0.08-0.71c-0.08-0.63-0.13-1.02-0.13-1.12
			c0-0.09-0.01-0.35-0.01-0.6c-0.01-0.24-0.01-0.47-0.01-0.54c0-0.08,0.02-0.14,0.03-0.19c-0.16-0.1-0.63-0.29-0.9-0.39
			c-0.24-0.1-0.45-0.18-0.57-0.24c-0.08-0.04-0.17-0.09-0.27-0.14c-0.22-0.12-0.67-0.36-0.8-0.36c-0.22,0.04-1.47,0.22-1.52,0.23
			c-0.02,0-0.04,0-0.07,0c-0.1,0-0.25-0.02-0.49-0.06c-0.25-0.04-0.56-0.09-0.74-0.09c-0.05,0-0.07,0.01-0.07,0.01
			c-0.1,0.04-0.34,0.08-1.21,0.08c-0.13,0-0.25,0-0.33,0h-0.1c-0.22,0-0.4-0.16-0.51-0.27c-0.02-0.02-0.04-0.04-0.06-0.05
			c-0.16-0.07-0.49-0.32-0.57-0.48c-0.03-0.04-0.13-0.14-0.18-0.19c-0.06-0.01-0.25-0.05-0.41-0.09c-0.5-0.1-0.89-0.18-1.02-0.22
			c-0.33-0.1-0.91-0.88-1.01-1.48c-0.07-0.46,0.08-1.08,0.34-1.42c0.11-0.14,0.23-0.21,0.33-0.24c0.08-0.06,0.22-0.15,0.45-0.3
			c0.15-0.1,0.37-0.24,0.49-0.33c-0.02-0.11-0.06-0.28-0.1-0.43l-0.02-0.1l0.03-0.06c0-0.01,0-0.04-0.01-0.07
			c-0.02-0.1-0.05-0.13-0.14-0.21c-0.09-0.06-0.29-0.23-0.52-0.42c-0.23-0.19-0.58-0.46-0.64-0.5c-0.08-0.05-0.2-0.18-0.7-0.78
			c-0.13-0.16-0.27-0.32-0.34-0.41c-0.22-0.05-1.04-0.11-1.6-0.16c-0.55-0.04-1.03-0.08-1.24-0.12c-0.44-0.07-1.52-0.56-1.74-0.69
			c-0.14-0.08-0.52-0.16-0.69-0.19c-0.03-0.01-0.05-0.01-0.07-0.01c-0.48,0.02-2.68,0.13-2.92,0.19c-0.32,0.09-1.17,0.1-1.18,0.1
			c-0.04,0-0.31,0.02-0.58,0.04c-0.59,0.04-1.41,0.1-1.73,0.1c-0.04,0-0.07,0-0.1,0c-0.3-0.02-0.99,0.05-1.15,0.08l-0.04,0.01
			c-0.19,0.03-0.78,0.13-1.18,0.24l-0.07,0.01c-0.1,0.02-0.68,0.23-0.96,0.33c-0.34,0.12-0.43,0.16-0.48,0.17
			c-0.04,0.01-0.3,0.08-0.5,0.14c-0.37,0.11-0.63,0.19-0.74,0.21c-0.06,0.01-0.21,0.06-0.33,0.11c-0.34,0.12-0.56,0.19-0.69,0.19
			c-0.06,0.01-0.35,0.11-0.54,0.17c-0.34,0.12-0.55,0.19-0.68,0.2c-0.12,0.02-0.67,0.25-0.91,0.35c-0.19,0.08-0.3,0.13-0.35,0.14
			c-0.05,0.02-0.17,0.06-0.31,0.11c-0.37,0.13-0.69,0.24-0.84,0.28c-0.01,0-0.04,0.02-0.06,0.03c-0.09,0.05-0.22,0.11-0.45,0.17
			c-0.06,0.18-0.12,0.37-0.13,0.42c-0.01,0.07,0.06,0.27,0.16,0.36c0.18,0.14,0.35,0.5,0.55,0.92c0.03,0.07,0.06,0.12,0.08,0.16
			c0.12,0.24,0.42,1.19,0.42,1.57c0,0.34-0.34,1.4-0.66,1.62l-0.03,0.02c-0.19,0.14-0.68,0.49-1.52,0.59c-0.02,0-0.04,0-0.07,0
			c-0.47,0-2.1-0.58-2.2-0.62c-0.19-0.08-1.36-0.54-1.83-0.72c-0.25-0.1-0.41-0.16-0.54-0.16c-0.06,0-0.14,0.01-0.28,0.1
			c-0.28,0.17-1.27,0.79-1.49,0.94c-0.12,0.08-0.38,0.18-0.79,0.33c-0.21,0.08-0.51,0.19-0.63,0.25c-0.01,0.09-0.01,0.25-0.01,0.35
			c0,0.05,0,0.09,0,0.13c0,0.11-0.05,0.42-0.18,1.08c-0.07,0.36-0.17,0.89-0.19,1.07c0.04,0.09,0.12,0.24,0.2,0.37l0.07,0.11
			c0.15,0.25,0.39,0.63,0.5,0.73c0.43,0.38,0.31,1.19,0.23,1.67c-0.01,0.08-0.03,0.17-0.03,0.2c0,0.34-0.34,1.13-0.34,1.14
			c-0.08,0.19-0.07,0.86,0.02,1.02c0.06,0.1,0.1,0.19,0.14,0.27c0.06,0.11,0.11,0.21,0.16,0.27c0.17,0.23,0.41,1.55,0.41,1.81
			c0,0.11-0.01,0.27-0.03,0.45c-0.02,0.19-0.04,0.53-0.03,0.63l0.06,0.12c0.33,0.64,0.64,1.26,0.69,1.43
			c0.08,0.24,0.04,0.93,0.01,1.21l0,0c0,0-0.04,0.57-0.07,1c-0.03,0.33-0.09,0.48-0.14,0.6c-0.02,0.05-0.03,0.08-0.04,0.11
			c-0.02,0.1-0.07,0.2-0.12,0.29c-0.02,0.04-0.05,0.11-0.07,0.15c0.02,0.04,0.04,0.09,0.06,0.14c0.05,0.12,0.14,0.35,0.21,0.41
			c0.14,0.12,0.32,0.48,0.85,1.77c0.1,0.24,0.18,0.45,0.23,0.55c0.19,0.41,0.91,2.7,0.98,3.02c0.07,0.3,0.16,1.09,0.18,1.26
			c0.01,0.02,0.02,0.04,0.03,0.07c0.04,0.1,0.1,0.24,0.14,0.38c0.27,0.9,0.27,0.99,0.27,1.04c0,0.16,0.03,1.06,0.06,1.18
			c0.02,0.07,0.2,0.54,0.45,0.92c0.05,0.08,0.13,0.16,0.18,0.22c0.04,0.05,0.08,0.09,0.09,0.11c0.07,0.1,0.1,0.26,0.17,0.64
			c0.09,0.47,0.23,1.26,0.48,1.54c0.04,0.04,0.16,0.2,0.43,0.55c0.4,0.52,1.34,1.75,1.5,1.88c0.15,0.1,0.39,0.46,0.88,1.27
			c0.13,0.21,0.27,0.44,0.31,0.49c0.34,0.34,0.54,0.56,0.63,0.66c0.13,0.17,0.71,1.35,0.77,1.73c0.01,0.03,0.01,0.09,0.02,0.16
			c0.01,0.09,0.03,0.31,0.05,0.4c0.17,0.15,0.63,0.48,0.99,0.58c0.18,0.05,0.31,0.24,0.49,0.5c0.07,0.1,0.14,0.21,0.22,0.3
			c0.01,0.02,0.03,0.03,0.04,0.05c0.04,0.05,0.1,0.11,0.14,0.21c0.09,0.2,0.14,0.43,0.16,0.52c0.14,0.27,0.53,1.02,0.61,1.14
			c0.12,0.12,1.19,1.27,1.32,1.47c0.1,0.16,0.08,0.3,0.07,0.37c0,0.01,0,0.02,0,0.03c0,0,0,0.01,0.01,0.02
			c0.07,0.1,0.15,0.28,0.24,0.48c0.06,0.14,0.17,0.38,0.21,0.43c0.16,0.15,0.25,0.56,0.3,0.84c0.02,0.02,0.03,0.03,0.04,0.04
			c0.17,0.01,0.34,0.14,0.88,0.63c0.13,0.11,0.3,0.27,0.34,0.3c0.11,0.07,0.18,0.17,0.2,0.29
			C301.74,417.96,301.73,418.04,301.71,418.11z"/>
	</g>
</g>
</svg>
