<?xml version="1.0" encoding="utf-8"?>
<!-- Generator: Adobe Illustrator 24.1.1, SVG Export Plug-In . SVG Version: 6.00 Build 0)  -->
<svg version="1.1" xmlns="http://www.w3.org/2000/svg" xmlns:xlink="http://www.w3.org/1999/xlink" x="0px" y="0px"
	 viewBox="150 195 301 390" style="enable-background:new 0 0 612 792;" xml:space="preserve">
<style type="text/css">
	.st0{fill:#B66612;}
	.st1{fill:#9C5708;}
	.st2{fill:#FFFFFF;}
	.st3{fill:#7E4300;}
	.st4{fill:#0E4434;}
	.st5{fill-rule:evenodd;clip-rule:evenodd;fill:#FFFFFF;}
	.st6{fill-rule:evenodd;clip-rule:evenodd;fill:#0E4434;}
</style>
<g id="SKY">
	<g>
		<g>
			<path class="st0" d="M429.06,311.32c0.48-0.95,1.43-2.98,1.43-3.58c0-0.6-1.19-9.43-1.19-10.38c0-0.95-0.12-5.61-0.12-6.44
				c0-0.84,0.6-0.84,0.12-1.79c-0.48-0.95-7.16-3.22-9.07-4.18c-1.91-0.95-5.61-3.22-6.92-2.98c-1.31,0.24-8.59,1.31-8.59,1.31
				c-0.95,0.12-6.68-1.19-8-0.72c-1.31,0.48-7.76,0.36-8.83,0.36c-1.07,0-2.15-1.55-2.63-1.67c-0.48-0.12-2.39-1.67-2.51-2.03
				c-0.12-0.36-1.43-1.67-1.79-1.79c-0.36-0.12-7.04-1.43-8.23-1.79c-1.19-0.36-4.18-4.18-4.65-7.16c-0.48-2.98,1.13-7.61,2.98-7.76
				c0.72-0.72,6.21-3.94,6.21-4.42c0-0.48-0.72-3.34-0.72-3.34s0.22-0.4-0.01-1.33c-0.26-1.06-0.72-1.46-1.32-2
				c-0.92-0.67-6.14-4.97-6.74-5.32c-0.6-0.36-4.95-5.88-5.82-6.77c-1.02-0.61-13.82-1.28-16.67-1.76c-2.17-0.36-8.11-2.98-9.31-3.7
				c-1.19-0.72-4.08-1.21-4.96-1.41c-0.61,0.02-15.28,0.66-17.02,1.13c-1.52,0.41-5.93,0.51-6.29,0.51c-0.84,0-11.71,0.85-13.5,0.73
				c-1.79-0.12-5.75,0.27-6.88,0.46c-0.74,0.12-4.52,0.72-7.07,1.45c-0.97,0.03-7.77,2.74-8.37,2.86c-0.6,0.12-5.97,1.79-7.04,2.03
				c-1.07,0.24-4.53,1.67-5.49,1.67s-5.85,2.03-7.04,2.15c-1.19,0.12-6.64,2.59-7.43,2.84c-0.95,0.3-5.17,1.88-6.41,2.17
				c-0.71,0.17-1.19,0.84-3.7,1.31c0,0-0.99,2.79-1.06,3.51c-0.08,0.92,0.47,2.52,1.49,3.33c1.01,0.81,2.54,4.4,3.14,5.61
				c0.61,1.22,2.25,6.4,2.25,8.22c0,1.82-1.96,7.13-3.08,7.92c-0.74,0.52-3.38,2.67-8.08,3.21c-1.82,0.21-10.93-2.91-12.08-3.38
				c-1.19-0.48-7.72-3.06-10.35-4.07c-2.63-1.01-3.84-1.48-5.94-0.23c-1.64,0.98-7.27,4.54-8.49,5.35c-1.22,0.81-8.03,3-8.43,3.6
				c-0.4,0.61-0.28,2.47-0.28,3.69s-2.14,11.29-2.09,12.51c0.19,0.35,0.77,1.57,1.38,2.56c1.11,1.79,2.59,4.29,3.49,5.08
				c2.31,2.03,0.65,8.21,0.65,9.42c0,1.22-1.22,4.46-1.82,5.87c-0.61,1.42-0.61,5.67,0.2,7.09c0.81,1.42,1.22,2.43,1.82,3.24
				c0.61,0.81,2.03,7.7,2.03,9.32c0,1.62-0.61,5.87-0.2,6.68c0.4,0.81,3.85,7.49,4.25,8.71c0.41,1.22,0,6.28,0,6.28
				s-0.2,3.24-0.41,5.67c-0.2,2.43-0.81,2.84-1.01,3.85c-0.2,1.01-1.42,2.43-1.01,3.24c0.41,0.81,1.01,3.04,2.03,3.85
				c1.01,0.81,4.66,10.33,5.67,12.56c1.01,2.23,5.06,14.99,5.47,16.81c0.41,1.82,0.99,7.13,0.99,7.13c0.14,0.41,0.65,1.52,0.99,2.63
				c0.53,1.78,1.16,3.95,1.38,4.94c11.54-1.73,46.83-18.98,55.32-20.46l27.18-9.46c1-0.2,3.14-1.97,3.87-2.48
				c3.92-3.26,7.81-5.4,12.27-6.37c5.56-0.3,10.75-0.69,16.42-0.68c4-2,5.34-5.05,9.56-6.61l2.95-1.32
				c1.67,1.01,2.91-0.31,4.81-1.11c0.5-0.5,1.9-2.23,2.05-2.61l3.76-1.99c3.8,2.9,6.76,7.43,9.96,11.03c0.8,2.1,3.45,2.33,5.15,3.83
				c1.6,1,3.5,1.23,4.9,2.83c1.6,0.7,3.79,0.89,4.79,2.39c0,0,8.9,5.61,12.9,9.11c2.5,1.2,4.01,3.61,6.41,4.61
				c2.91,1.63,5.2,3.15,8.44,4.95c3.74,2.18,7.82,4.55,8.65,5.05c2.05-2.83,4.59-6.09,4.9-6.47c0.48-0.6,1.07-2.27,0.95-2.74
				c-0.12-0.48,0.36-4.53,0.36-5.49c0-0.96,0.48-1.79,0.6-2.27c0.12-0.48,1.55-3.34,1.79-4.06c0.24-0.72,0.83-3.22,0.6-3.94
				c-0.24-0.72-1.19-4.65-1.79-6.09c-0.6-1.43-1.55-5.97-2.03-6.92c-0.48-0.95,5.37-7.76,6.32-9.07c0.95-1.31,2.98-3.58,2.98-4.18
				c0-0.6-0.24-6.8-0.24-7.28c0-0.48,0-2.86,0.6-4.53c0.6-1.67,3.1-7.88,2.98-8.71c-0.12-0.84,0-4.89-0.12-6.09
				c-0.12-1.19,0.72-5.97,0.84-6.68c0.12-0.72,2.15-3.94,2.39-4.65c0.24-0.72-0.6-1.31-0.95-2.39c-0.36-1.07-1.55-4.89-1.79-5.49
				c-0.24-0.6,0.12-1.55,0.36-2.15C426.8,315.14,428.59,312.27,429.06,311.32z"/>
		</g>
	</g>
</g>
<g id="MOUNTAIN">
	<g>
		<g>
			<path class="st1" d="M390.72,404.92c-2.4-1-3.91-3.41-6.41-4.61c-4-3.5-12.9-9.11-12.9-9.11c-1-1.5-3.2-1.69-4.79-2.39
				c-1.4-1.6-3.3-1.83-4.9-2.83c-1.7-1.5-4.35-1.73-5.15-3.83c-3.2-3.6-6.16-8.13-9.96-11.03l-3.76,1.99
				c-0.15,0.38-1.55,2.11-2.05,2.61c-1.9,0.8-3.14,2.12-4.81,1.11l-2.95,1.32c-4.23,1.56-5.56,4.61-9.56,6.61
				c-5.68-0.01-10.86,0.38-16.42,0.68c-4.46,0.96-8.35,3.11-12.27,6.37c-0.73,0.51-2.87,2.28-3.87,2.48l-27.18,9.46
				c-8.5,1.48-43.78,18.73-55.32,20.46c0.05,0.23,0.09,0.42,0.09,0.5c0,0.61,0.16,6.24,0.37,7.05c0.15,0.58,1.26,3.45,2.77,5.67
				c0.56,0.83,1.36,1.62,1.58,1.94c0.68,0.96,1.26,9.66,3.79,12.49c0.68,0.75,9.93,13.17,11.14,13.98s5.87,9.12,6.48,9.72
				s2.84,2.84,3.44,3.65c0.61,0.81,3.75,7.28,4.05,9.12c0.1,0.6,0.26,3.13,0.59,3.78c0.88,0.96,4.04,3.21,6.5,3.92
				c0.8,0.23,1.98,2.48,3.24,4.05c0.33,0.41,0.65,0.64,0.88,1.13c0.59,1.26,0.83,2.81,0.83,2.81c0.36,0.72,3.31,6.48,3.79,6.96
				c0.48,0.48,6.68,7.16,7.28,8.11c0.6,0.96-0.24,1.31,0.48,2.39c0.72,1.07,2.06,4.75,2.69,5.33c0.83,0.78,1.34,4.33,1.34,4.33
				s0.75,1.07,1.58,1.07c0.84,0,5.25,4.41,6.2,5.01c0.95,0.6,0.1,1.67,0.1,1.67s1.36,2.81,2.64,3.82c1.13,0.89,3.65,2.15,4.13,2.39
				c0.48,0.24,5.53,2.44,6.88,3c1.23,0.51,7.04,3.02,11.43,3.92c3.34,0.68,11.4,2.15,13.13,1.4c1.79-0.78,3.22-1.4,5.25-2.72
				s1.67-1.43,3.46-2.98c1.79-1.55,3.08-2.92,3.44-3.64c0.36-0.72,1.72-2.21,2.19-2.57c0.48-0.36,1.12-0.8,1.41-1.43
				c0.25-0.54,1.49-2.04,1.7-2.42c0.62-1.12,4.87-4.98,5.23-5.45s2.27-4.65,2.51-5.97c0.24-1.31,0.95-2.63,1.31-3.34
				c0.36-0.72,2.93-2.63,4.08-3.24c0.99-0.53,2.87-2.15,2.87-2.99c0-0.84,0.81-4.28,1.53-4.64c0.72-0.36,7.4-5.25,7.88-5.73
				c0.32-0.32,4.87-4.41,5.64-5.02c0-0.38-0.03-1.06-0.03-1.78s0.74-2.86,1.26-4.42c0.53-1.58,1.68-3.18,2.32-4.05
				c0.93-1.27,5.85-5.49,6.21-5.73c0.36-0.24,1.31-0.48,1.31-0.95c0-0.48-0.62-1.65-0.84-2.63c-0.16-0.7,1.79-4.77,2.27-5.61
				c0.48-0.83,2.23-2.11,3.1-2.75c0.87-0.64,1.41-1.86,1.31-2.39c-0.1-0.53-0.46-1.66-0.53-2.66c-0.05-0.75,0.1-2.94,0.34-3.66
				c0.24-0.72,0.41-1.5,0.81-2.72c0,0,0.68-2.06,1.16-3.37c0.48-1.31,5.01-7.04,5.01-7.04c0.84-0.95,1.43-2.39,1.43-2.74
				s0.95-3.46,1.19-4.06c0.24-0.6,7.04-7.88,8.47-9.31c1.43-1.43,1.19-2.51,1.19-2.86s0.54-4.63,1.43-5.97
				c1.02-1.53,2.63-5.85,3.58-7.88c0.34-0.73,1.34-2.2,2.5-3.79c-0.83-0.51-4.91-2.87-8.65-5.05
				C395.92,408.06,393.63,406.54,390.72,404.92z"/>
		</g>
	</g>
</g>
<g id="SNOW_CAP">
	<g>
		<polygon class="st2" points="277.5,397.63 277.96,398.79 280.51,397.91 		"/>
	</g>
	<g>
		<path class="st2" d="M350.63,395.5c0.38,0.1,4.8,1.89,7.61,3.6c0.87,0.44,2.2,1.84,2.69,2.34c0.34,0.49-0.46,0.38-0.03,0.58
			c0.31,0.34,1.79,0.64,2.14,0.88c0.47,0.33,1.28,0.62,2.01,1.2c0.35,0.62,0.75,1.25,1.19,1.84c0.28,0.38,0.58,0.74,0.9,1.04
			c0.79,0.97,1.74,1.51,2.22,1.65c0.2,0.06,1.06,2.13,5.48,2.81c1.25,0.68,2.55,1.34,3.88,1.98c0.54,0.1,2.11-0.09,2.48-0.05
			c-0.8-0.27,0.54,0.09,0.54,0.09s1.81,0.93,6.41,0.65c0.32-0.02,13.15,1.16,13.47,1.14c0.65-0.04,1.22-0.08,1.83-0.12
			c0.59-0.04,2.96-0.12,4.38-0.16c-0.49-0.27-10-5.86-10.45-6.12c-2.36-1.37-4.31-2.62-6.65-3.93c-2.4-1-3.91-3.41-6.41-4.61
			c-4-3.5-12.9-9.11-12.9-9.11c-1-1.5-3.2-1.69-4.79-2.39c-1.4-1.6-3.3-1.83-4.9-2.83c-1.7-1.5-4.35-1.73-5.15-3.83
			c-3.2-3.6-6.16-8.13-9.96-11.03l-3.76,1.99c-0.15,0.38-1.55,2.11-2.05,2.61c-1.9,0.8-3.14,2.12-4.81,1.11l-2.95,1.32
			c-4.23,1.56-5.56,4.61-9.56,6.61c-5.68-0.01-10.86,0.38-16.42,0.68c-4.46,0.96-8.35,3.11-12.27,6.37
			c-0.73,0.51-2.87,2.28-3.87,2.48l-10.41,3.62l-48.49,18.13l-10.56,4.19l-5.38,1.96l-2.48,2.03l-5.03,1.79l0.05,2.86l13.72-3.53
			l9.46-2.31c0.16-0.16,53.85-15.36,54.49-15.61c0.64-0.25,6.94-0.17,7.5-0.42c0.56-0.25,3.47-1.1,3.73-1.21
			c0.26-0.11,3.76-1.01,4.18-1.01c0.42,0,1.87-0.91,2.21-1.28c0.33-0.37,2.51-1.8,2.88-1.8c0,0,1.41,0.03,1.87,0.07
			s5.47,0.9,5.47,0.9l3.94,0.25l2.76-0.27c0,0,0.4-0.44,0.83-0.89c0.45-0.48,0.94-0.97,1.03-0.99c0.19-0.04,0.71-0.12,1.04,0.04
			c0.04,0.02-1.24,1.14-2.06,2.59c-0.12,0.54-0.06,0.89-0.22,1.32c-0.39,0.69-0.49,1.37-0.61,1.98c-0.21,0.38-0.74,1.1-0.96,1.33
			c-0.96,1.08-1.04,1.92-0.96,2.08c0.31,0.05,1.02,0.22,1.33,0.26c0.12-0.12,1.11-2.01,1.16-2.44c0.32-0.32,0.96-1.05,1.22-1.33
			c0.21-0.2,2.07-2.24,2.65-3.18c0.35-0.39,0.29-0.59,0.41-1.03c0.46-0.74,0.41-1.23,0.41-1.23s1.11-2.16,1.15-2.22
			s0.35-0.75,0.43-0.82c0.08-0.06,8.74-8.21,8.74-8.21l3.2,0.63c0,0,0.22,0.43,0.46,1.28c0.27,0.98,0.57,2.42,0.67,2.82
			c0.05,0.19,0.16,0.66,0.36,1.13c0.15,1.04,0.32,2.81,0.46,3.79c0.1,1.08,0.11,1.83,0.1,1.9c0.1-0.01,1.53,1.87,1.9,1.92
			c0.01,0.32-0.4,1.96,1.66,2.6c0.11,0.8,0.07,0.91,0.67,1.61c1.35,0.99,2.7,2.3,2.9,2.33c0.43,0.07,1.41-1,1.8-0.91
			c0.06,0.01-0.16-0.31-0.27-0.51c-0.12-0.22-1.79-0.74-2.04-1.13c-0.5-0.44-0.48-0.75-0.46-1.18c-0.24-1.88-1.77-4-1.65-3.95
			c1.69-0.31,1.43-1.01,1.59-0.8c0.4,0.72,1.07,3.59,1.29,3.4c0.2-0.17,1.47,0.52,1.72,0.35c0.14-0.1-0.43-5.76-0.27-5.84"/>
	</g>
</g>
<g id="MOUNTAIN_DETAIL">
	<g>
		<path class="st3" d="M350.25,389.89c-1.1,0.3-2.88-1.43-3.58-2.43C349.42,384.06,350.27,389.96,350.25,389.89z"/>
	</g>
	<g>
		<path class="st3" d="M325.91,390.39c0,1.3-3.25,2.61-1.45,4.01c-0.31-0.04-0.07,0.35-0.34,0.38c-1,0.14-2.05-0.09-3.41,0.17
			C320.7,392.76,323.91,390.69,325.91,390.39z"/>
	</g>
	<g>
		<path class="st3" d="M314.43,391.2c-1.72,1.54-4.85,4.25-9.39,7.51c-0.9,0.3-0.94-1.54-2.22-0.47l-0.51-0.43
			C305.71,394.91,312.98,391.8,314.43,391.2z"/>
	</g>
	<g>
		<path class="st3" d="M328.42,394.02c-0.9,0.8-1.81,2.02-3.11,1.62c-0.2-1.3,1.54-1.96,2.01-2.64
			C327.48,393.51,327.74,393.93,328.42,394.02z"/>
	</g>
	<g>
		<path class="st3" d="M348.1,394.23l-1.07,0.07c0,0-0.46-0.32-0.07-0.61c0.39-0.29,0.9-0.22,1.11-0.04
			C348.28,393.83,348.1,394.23,348.1,394.23z"/>
	</g>
	<g>
		<path class="st3" d="M364.83,397.17l1,2.67l-4.33-5.67C363.17,395,364.19,395.02,364.83,397.17z"/>
	</g>
	<g>
		<path class="st3" d="M362.5,395.67l1,2.67l-4.33-5.67C360.83,393.5,361.86,393.52,362.5,395.67z"/>
	</g>
	<g>
		<path class="st3" d="M379.18,404.92l-0.25,0.5l-4.27-4.75C376.5,400.67,378.54,402.77,379.18,404.92z"/>
	</g>
	<g>
		<path class="st3" d="M317.8,395.85c-0.9,1.1-3.54,2.52-2.82,3.93c-1.5-0.2-2.89,0.26-4.69-0.04
			C312.89,398.84,315.5,397.35,317.8,395.85z"/>
	</g>
	<g>
		<polygon class="st3" points="309.48,398.33 312.25,396.71 313.19,396.83 		"/>
	</g>
	<g>
		<path class="st3" d="M319.72,398.88c0.1,0.4-0.54,0.74-0.64,0.94h-0.73C318.65,399.62,319.32,398.88,319.72,398.88z"/>
	</g>
</g>
<g id="MOUNTAIN_OUTLINE">
	<g>
		<path class="st1" d="M208.6,425.2l-0.29-1.98c6.18-0.89,19.87-6.62,31.95-11.67c10.32-4.32,19.24-8.05,23.22-8.77l27.24-9.47
			c0.55-0.11,2.12-1.3,2.8-1.8c0.29-0.22,0.53-0.4,0.7-0.52c4.18-3.48,8.21-5.57,12.63-6.52l0.16-0.02
			c1.12-0.06,2.22-0.12,3.31-0.19c4.34-0.25,8.45-0.49,12.92-0.49c1.6-0.83,2.73-1.84,3.92-2.91c1.51-1.34,3.06-2.73,5.54-3.64
			l3.37-1.5l0.45,0.27c0.7,0.43,1.18,0.23,2.48-0.47c0.37-0.2,0.78-0.42,1.23-0.62c0.53-0.57,1.56-1.87,1.71-2.17l0.13-0.35
			l0.32-0.14l4.32-2.29l0.51,0.39c2.7,2.06,4.96,4.88,7.15,7.6c1.01,1.26,1.96,2.44,2.95,3.56l0.12,0.14l0.07,0.17
			c0.35,0.92,1.32,1.4,2.43,1.95c0.81,0.4,1.64,0.8,2.38,1.43c0.49,0.3,1.04,0.53,1.61,0.77c1.07,0.45,2.27,0.96,3.29,2.03
			c0.37,0.15,0.78,0.28,1.22,0.41c1.3,0.4,2.77,0.86,3.69,2.08c1.27,0.81,8.97,5.72,12.76,9.01c1.28,0.64,2.29,1.54,3.27,2.4
			c0.97,0.86,1.89,1.67,2.96,2.12l0.1,0.05c1.39,0.78,2.61,1.51,3.9,2.29c1.4,0.84,2.84,1.71,4.54,2.66
			c1.6,0.93,3.23,1.87,4.64,2.69c2.17,1.26,3.74,2.17,4.08,2.38l-1.07,1.69c-0.3-0.19-2.02-1.19-4.01-2.34
			c-1.42-0.82-3.04-1.76-4.63-2.68c-1.71-0.95-3.17-1.83-4.58-2.68c-1.26-0.76-2.46-1.48-3.79-2.23c-1.36-0.58-2.43-1.53-3.47-2.45
			c-0.95-0.84-1.84-1.63-2.93-2.16l-0.23-0.15c-3.89-3.41-12.69-8.96-12.78-9.02l-0.18-0.11l-0.12-0.18
			c-0.51-0.77-1.6-1.1-2.75-1.46c-0.54-0.17-1.1-0.34-1.62-0.57l-0.21-0.09l-0.15-0.17c-0.74-0.85-1.7-1.26-2.72-1.69
			c-0.64-0.27-1.31-0.55-1.96-0.96l-0.13-0.1c-0.55-0.49-1.26-0.83-2-1.2c-1.26-0.62-2.68-1.31-3.35-2.85
			c-0.98-1.12-1.96-2.33-2.9-3.5c-1.97-2.46-4-4.99-6.31-6.87l-2.93,1.55c-0.51,0.81-1.7,2.21-2.06,2.57l-0.14,0.14l-0.18,0.08
			c-0.44,0.19-0.85,0.41-1.25,0.62c-1.16,0.62-2.46,1.32-3.97,0.67l-2.51,1.12c-2.18,0.81-3.53,2.01-4.96,3.29
			c-1.29,1.15-2.62,2.33-4.56,3.31l-0.21,0.11l-0.24,0c-4.5,0.02-8.65,0.23-13.04,0.49c-1.07,0.06-2.15,0.12-3.24,0.18
			c-4.06,0.89-7.8,2.85-11.77,6.14c-0.22,0.16-0.45,0.33-0.71,0.52c-1.39,1.05-2.61,1.93-3.53,2.15l-27.29,9.48
			c-3.71,0.65-13.02,4.54-22.87,8.66C228.25,418.74,215.04,424.27,208.6,425.2z"/>
	</g>
</g>
<g id="FORGROUND_x002F_TREE">
	<g>
		<g>
			<path class="st4" d="M382,446.22c-0.91-0.74-2.23-1.35-2.72-3.04c-0.07-0.39-0.31-1.15,0.15-1.5c-0.32-0.27-0.84-0.97-0.49-1.45
				c-0.57-0.13-0.88-1.05-0.39-1.77c-0.93,0.1-1.25-1.62-1.57-2.4c-0.37,0.76-1.08,2.42-1.55,2.43c0.21,0.33,0.15,1.59-0.68,2.01
				c0.64,0.79,0,2.44-0.94,1.88c-0.52,0.88-1.25,1.66-2.33,1.46c-0.91,0.69-1.67,1.24-2.52,0.74c-1.17-0.92-0.88-1.83-2.79-1.75
				c-0.29-0.33,0.65-1.16,0.74-1.17c-0.54-0.15-1.63-0.19-1.63-0.19s-0.51-0.33-0.21-0.89c-0.55-0.13-0.9-1.12-0.41-1.57
				c-0.62-0.27-1.03-1.15-0.54-1.63c-0.58-0.31-0.67-1.09-1.09-1.8c-0.19,0.71-0.38,1.55-0.81,1.8c0.33,0.39,0.31,1.42-0.43,1.83
				c0.66,0.76,0.12,1.58-0.29,2.06c-0.47,0-1.02,0.09-1.42-0.31c0,0,0.39,1.4-0.29,2.09c0.62,0.33,0.19,0.8-0.08,1.06
				c-0.51-0.02-0.82-0.06-1.42-0.14c-0.2-1.5-0.29-1.94,0.38-2.84c-0.69-0.05-0.26-0.26-0.96-0.52c-0.34-0.62-1.04-3.36-1.04-3.36
				c-0.42,0.99-0.75,2.75-1.88,2.88c0.5,1.06,0.81,2.38-0.81,3.19c1.38,1.06,0.78,2.78,0.13,3.14c-0.51,0.19-0.99,0.6-1.99,0.17
				c-0.42-0.21-1.32-0.94-0.22-2.37c-1.49-1.44-0.78-4.66-0.11-5.37c-1.16,0.18-2.26-1.86-0.83-2.97c-1.66-0.66-2.71-4.64-1.88-5.79
				c-1.1-0.39-1.1-2.25-1.6-3.48c-0.55,1.32-0.5,3.2-1.38,3.64c0.83,0.72-0.05,4.91-1.71,5.3c1.77,1.16-0.33,4.91-1.6,4.69
				c0.55,1.82,0.61,3.04-0.88,3.2c0,1.27-0.88,2.04-1.73,1.96c0.57,2.07-0.25,3.56-1.36,3.77c0.17,1.01,0.55,1.51-0.26,2.46
				c-0.79,1.09-2.11,0.93-2.11,0.93s-0.54,1.06-1.24,1.17c0.35,0.88,1.25,1.15,1.25,1.15l-0.16,0.47c0,0-0.84,0.21-1.26,0.68
				c-0.42,0.47-4.5,0.21-4.5,0.21s-7.06-0.58-8.47-0.47c-1.41,0.1-5.6-0.63-6.85-1.05c-1.26-0.42-4.82-0.06-5.92-0.4
				c-0.94-0.29-2.75-0.42-3.28-1.22c-0.03-0.73,0.38-1.79,1.02-2.49c-2.93-0.82-1.47-3.75-0.82-5.16c-0.82,0.38-3.11-0.24-3.46-1.11
				c-0.42-1.3-0.7-2.35-0.06-3.64c-1.52,0.35-2.17-1.22-2.17-1.58c0-0.37,0.47-1.7,1.2-2.71c-1.57-0.19-2.26-2.92-1.63-4.4
				c-1.15,0.48-1.74-0.75-1.32-1.88c-0.71,0.13-0.51-1.03-0.07-2.04c-1.76-0.29-2.26-4.68-2.26-4.68s-0.31,4.4-2.01,4.46
				c0.31,1.07,0.07,2.57-0.69,2.64c0.38,1.07,0.13,1.67,0.13,1.67s-0.38,0.71-1.45,0.15c0.06,0.57,0.06,1.88-1.22,2.21
				c0.85,0.43,1.99,1.41,1.46,1.99c-0.52,0.58-1.46,0.37-1.46,0.37s0.78,1.78,0.42,2.46c-0.37,0.68-0.33,0.52-1.1,0.84
				c0.21,2-0.55,2.95-1.55,3.26c0.39,1.28-0.12,3.59-1,4.24c1.64,0.94,0.67,1.86,0.67,1.86s-1.49,0.81-2.35,1.15
				c-2.47,0.97-2.93-0.79-2.93-0.79s1.03-0.44,1.28-1.7c-1.26-0.5-2.26-1.38-1.51-2.58c-1.16,0.1-2.01-2.45-1.13-3.52
				c-0.5-0.32-0.82-1.07-0.68-2.36c-1.2,0.1-2.46-2.1-1.24-4.53c-0.4,0.18-1.01,0.33-1.53,0.35c-0.88-0.87-1-4.34-1.59-6.37
				c-0.61,1.86-0.41,4.09-1.17,5.37c-0.42,0.5-0.95,0.72-1.43,0.45c0.04,0.82,0.61,1.33-0.62,1.66c0.48,1.17,1.36,3.94-0.46,3.94
				c0.6,1.1,0.38,3.58-1.51,3.58c1.26,1.51,1.07,3.01-0.29,2.74c0.41,1.28-0.68,3.57-1.16,4.04c-0.47,0.47-1.76,0.18-1.76,0.18
				s-0.69-1.81,0.32-3.07c-1.32-0.06-1.95-1.32-1.65-2.57c-0.93-0.01-1.68-1.51-1.43-3.02c-1.17,0.49-0.76-2.57-1.38-4.52
				c-0.62,2.01-0.96,5.26-2.21,4.84c0.44,1.44,0.26,2.76-1.5,3.38c-0.06,1.7,0.31,2.01-2.14,3.88c-0.4-0.11-1.38,0.04-1.57-0.63
				c-0.47,0-1.2,0.74-1.57,0.31c-0.06-1.24,0.31-6.14,0.31-7.24c-0.75-2.23-0.31-14.63-0.31-15.58c0-0.94,0.47-0.79,0.94-0.94
				c0.47-0.16,6.77-0.16,6.77-0.16l8.97-1.26l0.79-0.94l3-0.21c-0.74-0.17-1.38-1.95-1.38-2.23c0-0.29,1.55-3.32,1.55-3.32
				s4.93-1.95,4.12-2.29c-0.8-0.34-0.69-1.15-0.29-1.72c0.4-0.57,1.66-0.23,1.66-0.23s2.98-2.12,3.27-2.52
				c0.29-0.4,2.29-1.49,2.86-2.12c0.57-0.63,0.8-1.42,1.09-1.89c0.2-0.33,0.8-2.12,0.92-2.52c0.11-0.4-0.29-1.66-0.4-1.89
				c-0.11-0.23,1.27-1.7,0.87-1.85c-0.31-0.12-1.85-0.27-1.85-0.27s-2.46,0.29-2.69,0.29s0.06-0.4,0.06-0.4s1.17-0.53,1.36-0.66
				c0.45-0.31,1.7-0.59,1.93-0.76s1.12-0.87,1.64-1.96c-0.23,0.06-3.49,0.63-5.04,0.46c-1.55-0.17-0.69-0.57-0.69-0.57
				s2.04-0.26,3.2-0.8c1.37-0.91,1.75-1.5,1.9-1.65c-1.1-0.06-2.18-0.29-3.49-0.64c-3.79,0.21-4.53,0.24-8.14-2.19
				c-0.2-0.5,0.4-0.8,0.5-1.2c0.9-0.1,1.6,0.3,2.4,0.3c0.1-1.3-0.2-2.6-1.2-3.2c0.4-1.4,2.5-0.3,2.2-2.1c-0.3-1.2-1.1-1.6-2.2-1.7
				c0.6-1.8-1.5-1-2.1-1.9c0.2-2.3,1.6,0.3,2.8-0.5c-2-3.5-7.1-2.8-10.3-5c0.11-0.65,0.11-0.84,0-1.2l-0.7-0.8c0-1.9-2.5-1-3.4-2.6
				c-0.2-2.3,2.7,0.7,2.7-1.7l0.5,0.5c0.6-0.2,1-0.5,1.2-1.2c0.9-1.5,2.9-0.9,3.8-2.4c-0.5,0.1-1.1-0.2-1.4,0.2
				c0.3-0.7-0.8-2.3,0.9-2.4c1-2.2,3.8-2.7,5.5-3.8c0.6-0.9,0.9-1.9,0.8-3.1c0.3-3.2-3.6-3.1-4.4-4.3c-1.2-0.4-1.1-1.9-1.9-2.4
				c-1.4-1.3-2.9,0.5-4.5-1l0.9-1c-0.3-0.7-0.43,0.06-0.93-0.74c-0.7-0.55-1.74-3.72-0.64-4.92l-0.06-0.52l-0.67-0.73
				c1.4-2,4.77-0.12,4.55-3.4c2.03-2.22-1.02-2.41,0.94-3.31c-0.01-0.78-1-2.28-1.82-3.31c-0.55-0.12-0.95,0.12-1.15-0.09
				c-0.37-0.39-0.47-0.55-0.58-0.94l0.76-0.06c-0.2-2.1,1.12-1.94,1.12-1.94c0.03-0.36-0.01-0.96,0.15-1.21
				c1.15-1.81,1.42-3.22,2.12-4.8c-0.43-0.58-0.5-1.11,0-1.91c0.12-0.3,0.49-1.56,0.52-2.09c0.01-0.34-0.56-0.19-0.91-0.27
				l-0.58,1.7l-0.52,0.03c0.58-2.16,1.18-5.1,0.25-7.17c0.13-0.04-0.17-0.19-0.03-0.24l0.36-1.46c-0.37,0.01-0.52-1.29-0.52-1.29
				c-1.18,0.02-3.64,0.08-4.95,0.08c-1.3,0.3-1.03,1.91-2.55,2.28c-0.96-0.24-0.71,1.78-1.79,1.49c-0.27,0.42-0.29,0.53-0.29,0.53
				c0.25,0.18,0.43,0.33,0.56,0.45c1.02,1.02-1.73,0.45-1.51,1.45c-0.27,0.13-0.38-0.03-0.55,0.11c-0.2-0.8-1.13-0.82-1.13-1.82
				c0.1-0.1,0.49-0.6,0.69-0.5c-0.04-0.6-0.86-0.49-0.65-1.22c-0.6-0.42-1.49-0.36-2.12-0.73c0.02-0.24-0.23-0.87-0.33-1.4
				c-0.12-0.59-0.03-1.29-0.03-1.61c-2.38-0.38-0.21-1.47-0.06-1.88c0.49-0.94,0.17-2.21-0.55-3.36c0.43-0.95-0.19-1.9-1.39-2.1
				c-0.94-1.51,0.03-2,0.13-3.2h-0.69c-0.13-0.94,0.03-1.28,0.13-1.88c2.13-0.69-0.13-2.63,1.76-3.95
				c-0.06-2.32-2.49-1.64-2.89-2.63c-0.25-0.44-4.71-1.63-7.15,0.5c-4.1,0-3.01,3.76-7.4,5.46c1.3,1.7,5.09,0.46,4.89,3.26
				c-1.7,2.7-4.23-1.04-5.83-0.94c-1.1,0.1-1.96,1.17-2.76,2.07c0,0.7,0.31,1.13,0.06,2.13c-0.4,2.4-3,1.76-3.7,3.76
				c0.7,0.7,1.8,0.93,2.7,0.63c1.2,0.4,1.44,1.19,1.46,2.6c0.6-0.1,2.01,0.17,2.31-0.53c0.31,0.44-0.06,1.17,0.44,1.57
				c-1.1,1.5-1.83,3.09-2.13,4.89c0.2,2.9,3.98,1.91,3.2,5.33c1.6,0.3,4.29,1.73,5.79-0.47c0.34,0.47,0.73,0.19,0.92,0.72
				c1.05,2.87,0.5,6.77-0.31,9.66c-0.8,0-2.21,1.62-3.01,0.42l0.3-6.5c-0.3-0.7-0.2-2.5-1.7-1.9c-2,0-3.6,0.7-3.6,2.9l0.5-0.5
				c0.2,0,0.3,0.1,0.4,0.3c0.1,1,0.1,2.7-0.9,3.6c-0.5-0.5-0.2-1.3-0.3-2c-0.7,0.8-0.6,2.5-0.9,3.6c1.9-0.9,1.6,2.3,3.3,1.7
				c0.9,1.2,0.4,2.2,0.8,3.1c-0.3,0.1-0.4-0.1-0.5-0.2l-1.5,1.4c-1.3,1.5-2.05-0.86-3.55-0.36c-0.9-2.5-0.94-5.69-0.04-8.39
				c-1.42,0.35-3.8-1.31-6-0.31c-0.5,0.7,0.09,1.61-1.31,1.31l-0.6,0.84c-2.98,3.12-0.9,4.1-0.9,4.1c-1.3,1.3-3.36,2.3-4.16,4.3
				c1.31,0.2,2.26,0.1,1.96,1.7c4,1.9-2.19,3.98-0.19,6.18c-0.5,0.5,0,1.41,0,1.41c4.5,0.5-0.65,3.51,0.25,5.91
				c3.4-0.1,4.24,0.9,7.34,1.1c2.6,0.3,5.9,0,8.9-0.2l0.58-0.54c1.3,0.4,2.69,1.97,4.39,2.07l-3.08,2.47c-1.3,0.6-2.9,0.2-3.8-0.9
				c-1.9,0.3-4.1-0.6-5.8,0.9l1.06,1.11l-1.76,0.89c-2.2,0-5.4,0.8-6.5,2.8c-0.07-0.14-0.38-0.43-0.39-0.66
				c-1.11,1.44-3.56,2.26-4.41,4.06c1.6-0.4,4.79,0.15,6.49,1.25c-1.2,2.3-4.79,0.75-6.69,1.65c-0.7,0.5-2.2,0.4-2.2,1.7h1.2
				c0.7-0.1,2.13,0.89,1.94,1.39c-2.3-0.7-4.24,1.5-5.54,3.11c0.8,1.6,2.6,1.8,3.9,2.7c-2.3,3.9,4.3,3,6.2,5.2c-0.4,0.5,1,0.5,1,0.5
				c0.7,0.6,1.1,1.2,0.9,2.2l0.5-0.5c0.4-0.1,0.5,0.3,0.7,0.5c-0.7,3.2-4.3,4.2-7.4,5c0,0.3-0.1,0.6,0.2,0.7c-1.6,3.6-5.4,3-7.6,5.8
				c-0.1,0.8-0.1,1.5,0.7,1.9c-0.53,0.3-1.53,1.03-1.59,1.45c2.96,1.19,5.73,0.95,9.29,0.95c0.8-1.7,1.9-3.7,3.8-4.5
				c0.7,0.6,2.2-0.5,2.6,0.9c-0.3,0.2-0.2,0.5-0.2,0.7c1.3-0.4,2.5,1,3.6-0.2c0-2.2,2.5-3.4,3.8-5c2.6-1.2,5-0.4,7,1.4
				c0.3,0.9,0.2,3.1,1.7,3.4c-0.8,1-2,0.7-2.9,1.4l0.5,1c-5.1,2-9.6,0.7-14.9,0.7c1.1,2-2.7,2.7-2.6,5l4,0.5
				c1.4,0.5,1.7,1.8,2.2,2.6c-0.1,0.8-0.6,1.3-1,2c-0.7,0.2-1.6,0.9-2.1-0.3c0.7-0.3-1.1,0.8-2.7,1c-1,2.2-4.7,0.8-6.7,1.2
				c0.3,0-0.4,1-0.9,0.7c-2.2,1.7,1.1,1.3,1.2,2.9c-0.3,0.4-1.3,0.1-1,0.9c1.6,0.5,3.8,1.1,5.3,0.5l-0.7-0.7c0.3-0.5,0.9-0.7,1.4-1
				c0.5,2,1.8,0.2,2.9,0c0.4,0,0.7,1,1.2,0.3l0.5,0.5c-1-0.1-1,1-2,0.9c-1,1,3.25,2.45,3.75,3.45c-0.8,2.28,2.84,1.82,6.04,3.92
				c-0.3,0.4,2.3,1.36,5.51,2.44c0,1.3-0.1,1.27,0.8,2.07c-0.3,0.4,0.45,10.75,0.05,12.35c-0.8,0.8-1.18,1.02-2.77,0.97
				c-1.17-0.05-3.22-1.53-2.06-2.8c-1.45-0.25-1.73-2.49-1.17-3.29c-0.61-0.05-1.79-0.79-1.89-3.39c-0.1,0.4-0.59,3.48-1.43,3.72
				c0.48,0.72-0.25,3.07-1.8,3.5c1.41,2.21-1.63,4.45-3.03,5.65c0.97,2.31-2.51,1.73-1.6,3.25c-1.6,0-2.24,1.59-4,1.55
				c-2.16,0.08-4.36-0.24-5.73-0.81c-0.4-0.07-1.14,0.18-1.55,0.09l6.54,8.49l7.05-0.87c0.2,0.3,0.6,0.6,0.5,1
				c-2.2,0.5-4.64,0.73-6.54,1.13c0.76,1.09,1.71,2.12,2.36,2.9l11.36-1.98l0.33,0.73c-2.81,1.74-6.64,2.24-10.54,2.44
				c1.1,1.21,1.49,1.88,2.21,2.99c5.13-0.76,10.41-2.02,15.38-2.55c0.26-0.03,0.27,0.3,0.13,0.8c-3.81,1.7-9.45,2.44-14.75,2.94
				l0.85,1.31c0.42,0.7,0.67,1.26,1.03,1.78c5.6-0.1,10.37-0.68,15.37-2.18c1.04-0.14,2.8-0.95,3.88-0.67
				c0.48,0.13,0.82,0.46,0.92,1.17c-1.8,0.8-3.13,1.27-5.34,1.37l-4.24,0.83c-3.27,0.6-2.51,0.44-6.21,0.84
				c-1.18-0.15-2.51-0.03-3.74-0.3c0.9,1.52,2.28,2.73,3.42,3.9c8.6-0.1,16.52-2.54,24.82-3.74l0.2,1.2
				c-1.2,1.2-3.08,0.58-4.38,1.38c-0.3-0.3-0.63-0.47-0.43-1.07c-0.38-0.15-0.94,0.01-1.05,0.08c-0.31,0.7,0.36,1.15,0.11,1.29
				c-6.4,0.9-13.41,2.3-18.67,1.57c0.7,0.61,2.12,3.65,2.12,3.65c7.6,1.4,13.15-2.07,20.45-2.17c12.5-3.4,20.58-4.38,34.86-5.04
				c0.18,0.34,0.52,1.56,0.52,1.56c-19.6-0.8-36.07,8.86-55.37,6.66c0.3,0.5,0.58,1.16,0.78,1.71c0.32,0.94,0.51,1.18,0.64,1.69
				c15.16,0.39,34.73-4.41,50.43-6.51c27.4-1.3,52.69,3.35,78.69,5.75l-0.39,0.45c-8.75,0.36-17.66-1.99-27.45-0.29
				c-21.3-4.7-42.65-6.41-64.95-2.11c-12.4,1.3-25.21,5.49-36.14,3.38c0.59,1.34,0.4,2.97,0.62,3.58c-0.11-0.05,10.11,0.08,9.11,0.1
				l5.01-0.04c4.5-0.8,9.52-0.97,14.12-2.17c6-1.3,11.48-1.05,17.28-2.75c28.8-3.19,53.85,4.88,79.95,4.68
				c1.15-1.22,2.72-2.72,4.32-4.05c0.54-0.44,1.27-1.17,1.8-1.56c0.43-0.16,0.48-0.19,0.81-0.41c0.38-0.25,0.66-0.22,0.38-1.03
				c-0.22-0.77-0.52-1.34-0.72-2.27c0.23-1.05,0.6-2.01,1-2.83c0.39-0.8,0.75-1.5,0.91-1.94c-1.93-0.24-7.75-0.79-9.53-1.13
				c-0.32-0.08-0.16-0.32-0.32-0.73c4.39-0.41,8.65,0.75,10.45,0.81c1.3-1.7,4.13-2.39,4.19-4.89c-0.8-2.09-0.46-4.08-0.3-5.78
				c0.35-1.68,1-3.13,1.23-4.13c-1.04-0.21-2.96-0.38-4.16-0.28l0.5,0.91c-3.9,2.2-13.1,0.8-12.9,0.7c-7.6-0.9-6.04-0.86-12.04-1.67
				c-0.5-0.13-8.63-1.38-10.25-2.63c4.69-1.25,5.89-2.5,7.89-3.2c1.3-0.1,3,0.4,4.5-0.4c2.3,0.2,4.5-1.4,6.5-0.5
				c3.5-0.9,7.5-2.2,11-1.7c2.9-1.3,6.6-0.22,9.8-0.32c0.25,1.31,2.59,0.85,3.69,1.25c0.58-0.7,1.52-1.8,2.25-2.94
				c0.07-0.17,0.21-0.4,0.31-0.75c0.12-0.4,0.31-1.21,0.41-1.55c0.2-0.7,0.33-1.24,0.47-1.64C389.3,445.38,382.69,446.19,382,446.22
				z M269.2,364c-0.3,0.8-1.7,1.9-2.6,1.9l-0.5-0.7C267.1,364.7,268.1,364.1,269.2,364z M242.6,348.4c-0.6-0.2-1.1,0.5-1.2,0.9
				c-2,0-4.2,2-6-0.4c0.1-1.5,1.36-1.92,2.2-2.4c0.84-0.48,4.64-0.3,4.64-0.3l-0.35,0.7C242.3,347.4,242.8,347.7,242.6,348.4z
				 M230.6,381.7c-0.8-0.8-2.5-0.2-2.2-1.9c1.9-0.3,4.2-2.4,5.6-1.2C233.7,380.8,231.1,379.8,230.6,381.7z M359.71,474.9
				c-0.53,0.04-2.53,0.7-4.8,0.4c0.2-0.7-0.76-0.57-1.26-0.87l-0.44,0.67l-22-3.4V471C341,471.6,350.5,473.6,359.71,474.9z
				 M340,466.9c-1.32,0.45-5.04,0.13-5-0.7L340,466.9z M328,465.3l5.1,0.7l-5.25-0.01L328,465.3z M330,471l0.2,0.3
				c-1.6,0.2-4.6,0.5-6-0.3C325.5,470.7,328.21,470.7,330,471z M326.4,465.3c-0.37,0.78-3.73,0.51-4.4-0.5L326.4,465.3z
				 M323.11,470.99l-6.3-0.19C318.58,469.2,321.21,470.89,323.11,470.99z M315.61,464.3l3.6,0.37
				C318.91,464.97,313.96,465.81,315.61,464.3z M315.11,470.5c-0.15,0.66-5.49,0.61-6,0C310,470,313.5,470.3,315.11,470.5z
				 M306.9,464.1l4.96,0.25c-0.54,0.73-4.32,0.66-5.63,0.46L306.9,464.1z M295.2,464.8l-0.64,0.65l-3.4,0.3
				C292.4,464.4,294,464.9,295.2,464.8z M288.2,465.5c-1.22,1.22-3.31,0.95-4.1,0.5C285,465.1,286.8,465.7,288.2,465.5z
				 M280.15,461.31l3.45-0.11C283.2,461.2,279.26,462.81,280.15,461.31z M281.7,466.2v0.3c-1.9,0.4-4.08,1.86-5.5,0.4
				C277.9,466.4,279.9,466.6,281.7,466.2z M272.89,461.78l3.51-0.08c-0.4,0.4-3.03,1.48-3.77,0.84L272.89,461.78z M273.8,466.9
				l0.2,0.57l-5,0.7C270.2,467.1,272,466.8,273.8,466.9z M270.2,462.1c-0.57,0.9-2.84,1.44-4.03,1
				C265.97,461.7,269.2,462.4,270.2,462.1z M259.6,458.8c-0.3,0.1-1.95,0.83-2.65,0.63C256.96,458.53,259.1,458.9,259.6,458.8z
				 M255.6,402.4c0-0.2-0.1-0.4-0.3-0.5c-0.2-0.1-0.3,0.1-0.5,0.2c-0.6-1.6,0.5-5.4-0.9-7.4v-1c1.2,0.6,0.8-1.4,2.1-0.7
				c0.1,0.3-0.2,0.8,0.3,1c1.1,0-0.2-1.8,1.2-1.5c0.3,1.8,0.5,4.8-0.3,6.8c1.5-0.1,1.2,1.8,1,2.4c-0.9,0.3,0,1.7-1.4,1.2l-0.5-1.2
				L255.6,402.4z M260.8,377.7c-2.5-0.5-5-0.8-7.2-2.2l-0.4-2.9c3.7,0.8,7.1,2.3,10.5,3.9v0.4C263,377.1,261.5,376.6,260.8,377.7z
				 M261.8,379.3v0.5c-3,1.2-5.3-0.9-7.7-1.9v-1.2C256.8,377.4,259.4,378.2,261.8,379.3z M253.51,348.37c-0.3,1.2,0,3.7-1.9,3.1
				c-1.1-2.7,0-4.9,0-7.9C253.01,344.47,253.91,346.37,253.51,348.37z M253.4,384.1c2.3,0,3.9-0.9,6,0c-1.8,1-4,2.1-6.2,2.7
				C252.2,386.1,252.2,384.8,253.4,384.1z M257.2,386.8c1.6-0.2,2.9-0.7,4.6-0.5c0,0.6-1.4,1.3-2.2,1.7c-1,1.4-2.7,3.4-4.5,1.9
				c-0.3-0.2-0.7-0.7-1-0.2v0.2c-0.6,0.3-0.8-0.5-1.2-0.7C253.6,387.7,255.8,387.6,257.2,386.8z M263.7,410.1
				c-1.1,1-2.43,1.01-3.6,2.4c-1.15,0.44-2.1,0.6-3.1-0.3c-0.2-1.1-0.41-1.38-0.71-2.58c1.8-1.5,6.1-1.97,8.3-2.57l1.16,0.91
				l-2.25,1.84L263.7,410.1z M264.9,338.1c-1.1,1.1-1.5,3.6-3.3,3.3c-1.1-1.7,1.8-2.3,2.1-4.1C264,337.8,264.9,337.2,264.9,338.1z
				 M262.3,327.7c0,0,1.35-0.35,1.52,0.2c0.17,0.55-0.9,2.6-0.9,2.6C260.8,330.2,261.9,328.6,262.3,327.7z M262,334
				c0.3,0,0.6-0.1,0.8,0.2c0.2,0.7-0.5,0.7-0.8,1c0.2,0.4,0.7,0.2,1,0.2c-0.72,0.6-0.22,3.87-3.3,2.47
				C259.88,336.68,260.31,335.55,262,334z M259.18,352.03c0.6-0.6,1.9-2.1,2.8-0.9c0,0.4,0.5,0.6,0.8,0.9c-0.9,1.2-2.3,0.8-3.4,1.2
				C258.88,352.93,258.88,352.43,259.18,352.03z M258.2,355.6c-0.5,0.5-0.5,1.6-1.4,1.4l-0.5-0.5
				C256.5,355.6,257.4,355.6,258.2,355.6z M261.1,367.1c0.6,0.9-1.4,1.3,0,1.9c-1.7,0.7-5,0.7-7,0c-1.1-1.2,1.1-1.7,0.7-2.9
				C257.2,365.8,259.1,366.6,261.1,367.1z M255.25,310.19c0,0-0.2,0.5-0.8,1.04c-0.36-0.91-0.2-2.94-0.2-2.94L255.25,310.19z
				 M255.8,327.3c-0.3,3.8-0.2,6.8-1.9,10l-0.5-0.4c0.3-0.2,0.2-0.5,0.2-0.8l-1.2-0.7c-0.1-3.5,0.2-7.5,0.8-11
				C254.9,324.3,255.4,325.9,255.8,327.3z M251.63,303.42c0.3,2.3,0.7,4.9-1.2,7C251.02,308.12,250.13,305.12,251.63,303.42z
				 M246.57,308.4v0.9c-0.7,0.5-1.9,0.3-2.1-0.7c0.1-1.1,1.6-5,2.6-2.4l0.7-0.7C247.57,306,248.47,308.4,246.57,308.4z
				 M247.99,314.49l-0.74,0.02c-0.4-1.2,0.75-2.78,1.95-2.68C249.96,313.22,248.35,313.4,247.99,314.49z M240.9,389.7
				c-2.7,0.1-0.1-2.3-1.9-3.2c1.7-1.3,4,0,6.2-0.4C243.9,387.1,243.5,390.2,240.9,389.7z M246.2,379.6c-0.7-1.4-2.7,0.9-2.6-1.2
				c1.5,0.1,2.7-1.3,4.3-0.5C247.9,378.8,246.5,379,246.2,379.6z M241.9,409.3c0.8-1.7,1.2-4.3,3.1-5l0.7,1
				C244.4,406.6,244,409,241.9,409.3z M245.5,457.6l-2.56-0.09C243.25,457.41,244.9,456.9,245.5,457.6z M236.74,459.01
				c-0.29,0.07-3.02,1.22-3.6,1.44c-0.59,0.22-0.5-1.22-0.5-1.22c3.56-0.76,3.52-0.81,4.1-0.81
				C237.03,458.42,237.03,458.94,236.74,459.01z M237.62,458.22c0.9-0.1,2.53-0.67,3.53-0.47
				C241.36,458.54,238.29,458.96,237.62,458.22z M243.81,462.3c-0.94,0.28-3.11,0.4-4.1,0.6c0.23-0.23-0.45-0.33-0.16-0.47
				c1.01-0.49,3.3-0.65,4.46-0.73C243.87,461.89,244.28,462.16,243.81,462.3z M245.45,461.86c-0.03,0-0.22-0.47-0.25-0.46
				c1.1-0.6,3.27-0.97,4.57-0.87C248.9,461.39,246.66,461.95,245.45,461.86z M247.69,466.34c-0.03,0.03-0.3-0.29-0.06-0.44
				c0.91-0.56,2.93-0.79,3.96-0.56C250.39,466.04,248.99,465.94,247.69,466.34z M250.79,460.68l-0.08-0.55
				c0.8-0.2,1.8-0.54,2.7-0.44C253.2,460.7,251.39,460.08,250.79,460.68z M253.41,464.84c0.5-0.6,2.8-0.8,4.1-0.7
				C256.29,465.36,254.38,465.54,253.41,464.84z M255.1,471.3l-0.57-1.32c1.8-0.2,2.97-1.28,4.87-0.38
				C258.5,470.5,256.5,470.7,255.1,471.3z M258.99,463.89c1.31-1.1,3.6-1.24,4.67-1.11c0.5,0.06-0.03,0.41,0.35,0.33
				C262.46,463.45,261.23,464.17,258.99,463.89z M261.3,469.3c0.5-1.5,2.9-1.2,4.3-1.9l1.5,0.7
				C265.2,468.6,263.04,469.17,261.3,469.3z M285.3,471.7c-7.07,1.36-21.65,3.5-21.43,3.45c-0.01-0.3-0.45-0.85,0.13-1.04
				c2,0,4.18-2.07,5.68-0.37c0.2-0.2,1.33-0.31,1.33-0.31c0.02-0.3,0.09-0.42,0.19-0.71c1.9,0.4,4.16-2.13,5.85-0.33
				c-0.51,0,3.02,0.03,3.25-0.87c1.6-0.3,3.5-0.4,5-0.2V471.7z M287,471.7l-0.13-0.63c2.1-0.5,4.33-1.07,6.33-0.07L287,471.7z
				 M299.7,470.8c-1.9-0.3-3.4,0.5-5.3,0.2l-0.04-0.47c1.8-0.2,3.44-0.42,5.34-0.23V470.8z M298.52,465.31
				c-0.31-0.02,0.23-0.36,0.14-0.54c0.6-0.4,2.85-0.67,3.75-0.27C301.79,464.84,299.18,465.35,298.52,465.31z M301.01,470.52
				c2.1-0.4,4.2-0.63,6.4-0.23C307.08,470.84,301.69,471.24,301.01,470.52z M309.21,476.07c-2.1-0.4-5.19,1.01-7.19-0.39
				c1.2-0.3,5.19-0.41,7.19-0.11V476.07z M318,476.3c-2.1,0.6-4.7,0.07-7-0.23c1.4-1.5,4.8,0.03,7,0.03V476.3z M374.11,481.6
				l-0.2,0.55c-12.78-2.41-27.3,0.05-39.4-3.65c-5.8-1.1-10.2-0.5-15.6-2.2l1-0.5C338.3,477,356.59,479.82,374.11,481.6z
				 M360.71,475.1v-0.5l5.43,0.3l0.04,0.68L360.71,475.1z M374.4,470.5l5,0.3c-1.9,0.1-3.5,0.7-5.5,0.5L374.4,470.5z M371,470.5
				c0.7,0,1.4,0.1,1.9,0.5H371V470.5z M369.3,470.5c-1.1,0.6-3.4,0.1-3.8-0.4C366.9,469.9,368,470.4,369.3,470.5z M364.15,470.14
				c-0.75,0.65-4.75-0.04-5.35-1.04C360.4,469.4,362.65,469.44,364.15,470.14z M356.8,469.1l-4-0.5
				C353.61,468.1,355.61,468.6,356.8,469.1z M346.3,467.2l5,0.9l-5.38-0.16L346.3,467.2z M344.61,467.4l-3.4-0.2v-0.3
				C342.4,467.1,343.8,466.5,344.61,467.4z"/>
		</g>
		<g>
			<path class="st4" d="M301.5,436.27c0,0,0,0.01,0,0.01C301.5,436.28,301.5,436.27,301.5,436.27z"/>
		</g>
	</g>
	<g>
		<g>
			<path class="st4" d="M376.17,462.9c-0.01,0.19,0.25,1.53,0.25,1.51c-8.86,1.44-17.42,1.19-26.65-0.02
				c-10.64-1.4-20.75-5.67-31.77-5.67c-19.88,0-39.47,2.01-58.52-4.26c-6.9-2.27-13.58-3.13-20.72-1.41
				c-1.67,0.4-3.34,1.35-5.1,1.83c-4.07,1.12-8.71,0.91-13.02,1.67c2.96,3.87,6.76,8.77,7.51,9.27c1.22,0.81,5.87,9.12,6.48,9.72
				s2.84,2.84,3.44,3.65c0.61,0.81,3.75,7.28,4.05,9.12c0.1,0.6,0.26,3.13,0.59,3.78c0.88,0.96,4.04,3.21,6.5,3.92
				c0.8,0.23,1.98,2.48,3.24,4.05c0.33,0.41,0.65,0.64,0.88,1.13c0.59,1.26,0.83,2.81,0.83,2.81c0.36,0.72,3.31,6.48,3.79,6.96
				c0.48,0.48,6.68,7.16,7.28,8.11c0.6,0.96-0.24,1.31,0.48,2.39c0.72,1.07,2.06,4.75,2.69,5.33c0.83,0.78,1.34,4.33,1.34,4.33
				s0.75,1.07,1.58,1.07c0.84,0,5.25,4.41,6.2,5.01c0.95,0.6,0.1,1.67,0.1,1.67s1.36,2.81,2.64,3.82c1.13,0.89,3.65,2.15,4.13,2.39
				c0.48,0.24,5.53,2.44,6.88,3c1.23,0.51,7.04,3.02,11.43,3.92c3.34,0.68,11.4,2.15,13.13,1.4c1.79-0.78,3.22-1.4,5.25-2.72
				s1.67-1.43,3.46-2.98c1.79-1.55,3.08-2.92,3.44-3.64c0.36-0.72,1.72-2.21,2.19-2.57c0.48-0.36,1.12-0.8,1.41-1.43
				c0.25-0.54,1.49-2.04,1.7-2.42c0.62-1.12,4.87-4.98,5.23-5.45s2.27-4.65,2.51-5.97c0.24-1.31,0.95-2.63,1.31-3.34
				c0.36-0.72,2.93-2.63,4.08-3.24c0.99-0.53,2.87-2.15,2.87-2.99c0-0.84,0.81-4.28,1.53-4.64c0.72-0.36,7.4-5.25,7.88-5.73
				c0.32-0.32,4.87-4.41,5.64-5.02c0-0.38-0.03-1.06-0.03-1.78s0.74-2.86,1.26-4.42c0.53-1.58,1.68-3.18,2.32-4.05
				c0.93-1.27,5.85-5.49,6.21-5.73c0.36-0.24,1.31-0.48,1.31-0.95c0-0.48-0.62-1.65-0.84-2.63c-0.16-0.7,1.79-4.77,2.27-5.61
				c0.48-0.83,2.23-2.11,3.1-2.75c0.87-0.64,1.41-1.86,1.31-2.39c-0.1-0.53-0.46-1.66-0.53-2.66c-0.05-0.75,0.1-2.94,0.34-3.66
				c0.17-0.5,0.3-1.03,0.5-1.7C379.67,462.68,377.62,462.8,376.17,462.9z"/>
		</g>
	</g>
</g>
<g id="LAKE_BACKGROUND">
	<g>
		<g>
			<path class="st2" d="M386.69,453.13c-1.1-0.4-3.44,0.06-3.69-1.25c-3.2,0.1-6.9-0.98-9.8,0.32c-3.5-0.5-7.5,0.8-11,1.7
				c-2-0.9-4.2,0.7-6.5,0.5c-1.5,0.8-3.2,0.3-4.5,0.4c-2,0.7-3.2,1.95-7.89,3.2c1.63,1.25,9.75,2.5,10.25,2.63
				c6,0.81,4.44,0.77,12.04,1.67c-0.2,0.1,9,1.5,12.9-0.7l-0.5-0.91c1.2-0.1,3.12,0.07,4.16,0.28c-0.02,0.09-0.06,0.2-0.09,0.3
				c0.24-0.72,0.63-1.86,0.94-2.7c0.31-0.85,2.34-3.58,3.72-5.38C386.86,453.17,386.69,453.13,386.69,453.13z"/>
		</g>
	</g>
</g>
<g id="BISON">
	<g>
		<g>
			<path class="st5" d="M291.43,475.8c0,0,2.5-1.15,5.59-1.34c3.41-0.22,2.94,0.2,6.21,0.54c0.4,0.04,1.21,0.13,2.02,0.27
				c0.81,0.13,2.42,0.13,3.58,0.53c1.14,0.41,2.76,1.21,3.71,1.42c0.94,0.2,1.61,0.4,2.42,0.67c0.81,0.27,1.21,0.48,1.95,0.75
				c0.74,0.27,2.63,1,4.38,1.41c1.75,0.41,2.97,0.47,4.32,0.81c1.35,0.34,2.56,0.54,3.64,1.08c1.08,0.54,3.18,1.69,4.06,2.84
				c0.87,1.15,2.42,3.23,2.62,4.85c0.21,1.62,0.34,2.42-0.07,4.17c-0.4,1.75-0.88,2.5-0.67,3.1c0.2,0.61,0.47,0.94,0.2,1.55
				c-0.28,0.61-0.54,1.01-0.74,1.42c-0.21,0.4-0.55,0.67-0.55,0.67s-0.26,0.33-0.4,0.06c-0.14-0.26,0.07-0.74-0.14-1.08
				c-0.2-0.33-0.6-0.87-0.54-1.2c0.07-0.34,0.13-0.81,0.54-1.42c0.41-0.61,0.47-1.14,0.47-1.14s0.48-0.54,0.62-1.28
				c0.13-0.74,0.4-2.28,0.33-2.77c-0.07-0.47-0.2-2.02-0.2-2.02l-0.2-0.74c0,0-0.67-0.68-0.6,0c0.06,0.67,0.4,0.88,0.13,2.76
				c-0.26,1.89-0.07,1.14-0.74,2.76c-0.67,1.62-1.29,2.29-1.49,3.23c-0.21,0.94,0.08,1.36,0.62,3.11c0.54,1.75,0.6,2.29,0.87,2.7
				c0.26,0.41,0.26,0.87,0.54,0.94c0.26,0.07,0.75,0.13,0.4,1.15c-0.33,1.02-1.28,3.24-1.41,4.38c-0.13,1.15-0.06,1.86-0.11,1.95
				c-0.06,0.08-0.26,0.1-0.37,0.34c-0.08,0.16-0.05,0.25-0.07,0.6c-0.02,0.54-0.13,1.83-0.13,1.83s0.14,0.49-0.41,0.49
				c-0.54-0.01-2.38,0.03-2.71,0.01c-0.39-0.03-0.62,0.08-0.53-0.37c0.13-0.53,0.2-1.62,0.53-1.82c0.34-0.2,0.96-0.81,0.96-0.81
				s0.12-1,0.26-1.48c0.14-0.47,0.07-1.08,0.21-1.41c0.13-0.34,0.47-1.68,0.47-2.09c0-0.4,0.34-1.48-0.74-2.77
				c-1.08-1.28-2.01-1.82-2.82-2.35c-0.81-0.54-2-1.26-3.04-1.35c-0.67-0.07-1.62,0.27-2.16,0.54c-0.55,0.27-1.67,0.78-2.61,1.28
				c-1.12,0.57-2.17,1.09-2.54,1.31c-0.39,0.22-0.77,0.1-0.83-0.37c-0.08-0.47,0-0.92-0.53-0.85c-0.51,0.06-0.72,0.09-1.3,0.28
				c-0.49,0.16-1.13,0.68-1.4,1.49c-0.27,0.81-0.44,1.43-0.73,2.29c-0.17,0.53-0.47,0.89-0.69,1.44c-0.23,0.56-0.4,0.61-1.42,1.55
				c-0.8,0.76-1.21,0.95-1.69,1.9c-0.48,0.93-0.49,0.96-0.63,1.27c-0.14,0.32-0.37,0.27-0.39,0.54c-0.02,0.26-0.06,1.29-0.06,1.29
				s0.04,0.5-0.21,0.51c-1.28,0-2.34-0.01-2.98,0c-0.53,0.01-0.44-0.14-0.28-0.54c0.33-0.86,0.81-1.21,0.9-1.45
				c0.08-0.24-0.03-0.35-0.25-1.24c-0.09-0.34-1.01-2.8-1.14-3.07c-0.13-0.27-0.13-1.01-0.54-1.28c-0.39-0.27-1.14-1.09-1.28-1.35
				c-0.13-0.27-1.21-0.88-1.68-0.88c-0.47,0-3.3-0.54-3.97-0.95c-0.68-0.39-2.77-1.48-3.1-1.68c-0.34-0.2-1.62-0.88-1.95-0.88
				c-0.34,0-0.78-0.15-1.28,0.34c-0.81,0.78-1.09,0.74-1.49,1.11c-0.39,0.35-0.33,0.37-0.6,0.78c-0.27,0.41-0.84,1.54-1,1.89
				c-0.82,1.66-1.52,1.41-1.52,1.41s-0.78,0.35-1.86-1.41c-1.07-1.75-1.55-2.43-1.55-2.43s-0.65-0.49-1.13-0.42
				c-0.47,0.07-1.63,0.29-1.98,0.22c-0.33-0.06-0.87,0.13-1.23-0.46c-0.37-0.61-0.85-1.42-0.72-2.63c0.13-1.21-0.47-2.03-0.54-2.36
				c-0.06-0.33-0.54-0.79-0.81-1.62c-0.27-0.82-0.21-1.95-0.8-3.1c-0.69-1-0.94-3.17-0.94-3.17s-0.05-0.42,0.07-1.35
				c0.13-0.92-0.05-1.69,0.22-2.89c0.31-1.14,0.54-1.94,1.53-2.63c0.68-0.47,1.21-1.42,2.02-1.75c0.81-0.34,1.75-1.08,2.43-1.08
				c0.68,0,0.88-0.48,2.23-0.2c1.35,0.27,2.35,0.54,3.23,0.4c0.87-0.13,1.75-0.13,2.56-1.21c0.8-1.08,1.48-2.09,1.82-2.3
				C289.88,476.82,291.43,475.8,291.43,475.8z"/>
			<path class="st2" d="M304.15,515.32c-0.18,0-0.35-0.02-0.43-0.14c-0.09-0.13-0.02-0.3,0.07-0.53l0.02-0.04
				c0.22-0.58,0.51-0.94,0.71-1.17c0.09-0.12,0.17-0.21,0.19-0.27c0.04-0.12,0.02-0.19-0.07-0.5c-0.05-0.16-0.11-0.37-0.19-0.67
				c-0.09-0.32-1-2.77-1.13-3.05c-0.05-0.1-0.08-0.24-0.11-0.4c-0.07-0.3-0.15-0.68-0.39-0.83c-0.42-0.29-1.18-1.12-1.32-1.4
				c-0.1-0.22-1.13-0.81-1.58-0.81c-0.51,0-3.36-0.55-4.03-0.96c-0.37-0.21-1.17-0.64-1.87-1.01c-0.58-0.31-1.08-0.57-1.23-0.67
				c-0.45-0.26-1.62-0.86-1.89-0.86c-0.06,0-0.13,0-0.2-0.01c-0.27-0.02-0.59-0.08-0.99,0.31c-0.5,0.48-0.81,0.66-1.06,0.81
				c-0.16,0.09-0.29,0.17-0.43,0.3c-0.27,0.24-0.31,0.31-0.41,0.48c-0.04,0.07-0.1,0.16-0.18,0.28c-0.26,0.4-0.82,1.51-0.99,1.87
				c-0.65,1.3-1.23,1.49-1.52,1.49c-0.04,0-0.07,0-0.1-0.01c-0.19,0.05-0.96,0.16-1.97-1.47c-0.97-1.58-1.45-2.29-1.53-2.41
				c-0.1-0.07-0.64-0.45-1.02-0.39c-0.1,0.01-0.23,0.04-0.38,0.06c-0.56,0.09-1.35,0.21-1.64,0.16c-0.07-0.01-0.16-0.01-0.25-0.01
				c-0.32,0-0.75,0-1.06-0.51c-0.35-0.57-0.88-1.43-0.74-2.71c0.09-0.87-0.2-1.52-0.39-1.95c-0.07-0.16-0.13-0.28-0.15-0.38
				c-0.02-0.12-0.12-0.28-0.25-0.49c-0.18-0.28-0.4-0.64-0.56-1.12c-0.11-0.31-0.16-0.67-0.22-1.04c-0.1-0.62-0.21-1.33-0.58-2.04
				c-0.69-1-0.95-3.12-0.96-3.21c0-0.02-0.06-0.44,0.07-1.38c0.05-0.36,0.05-0.7,0.05-1.06c0-0.55,0.01-1.11,0.17-1.84
				c0.32-1.15,0.54-1.98,1.58-2.71c0.27-0.19,0.51-0.45,0.77-0.73c0.38-0.41,0.77-0.83,1.27-1.04c0.28-0.12,0.58-0.29,0.88-0.45
				c0.58-0.33,1.13-0.63,1.59-0.63c0.22,0,0.39-0.06,0.58-0.12c0.23-0.08,0.49-0.17,0.9-0.17c0.23,0,0.48,0.03,0.77,0.09
				c0.21,0.04,0.41,0.08,0.6,0.12c1.03,0.22,1.9,0.38,2.58,0.28c0.1-0.01,0.19-0.03,0.29-0.04c0.77-0.11,1.5-0.21,2.19-1.12
				c0.19-0.25,0.37-0.51,0.54-0.74c0.57-0.79,1.03-1.41,1.31-1.58c0.33-0.2,1.87-1.2,1.88-1.21c0.04-0.02,2.57-1.17,5.65-1.36
				c0.63-0.04,1.15-0.06,1.59-0.06c0.98,0,1.48,0.1,2.18,0.23c0.56,0.11,1.26,0.24,2.46,0.37c0.33,0.03,1.18,0.13,2.02,0.28
				c0.25,0.04,0.57,0.07,0.95,0.1c0.82,0.07,1.84,0.16,2.65,0.44c0.44,0.16,0.96,0.38,1.47,0.59c0.81,0.34,1.65,0.7,2.23,0.83
				c0.97,0.2,1.65,0.41,2.44,0.67c0.45,0.15,0.77,0.28,1.09,0.41c0.26,0.11,0.53,0.22,0.87,0.34l0.36,0.13
				c0.87,0.32,2.5,0.92,4,1.27c0.88,0.21,1.62,0.32,2.33,0.43c0.68,0.11,1.32,0.21,1.99,0.37c0.3,0.07,0.59,0.14,0.87,0.21
				c1,0.23,1.94,0.45,2.79,0.88c0.92,0.46,3.17,1.67,4.1,2.87c0.79,1.04,2.43,3.21,2.64,4.91l0.03,0.21
				c0.19,1.49,0.3,2.31-0.09,4.01c-0.15,0.67-0.32,1.2-0.45,1.62c-0.21,0.67-0.34,1.08-0.22,1.42c0.04,0.13,0.09,0.24,0.13,0.35
				c0.16,0.41,0.3,0.76,0.07,1.29c-0.17,0.38-0.34,0.69-0.49,0.95c-0.09,0.16-0.18,0.32-0.25,0.47c-0.22,0.42-0.57,0.7-0.58,0.71
				c-0.01,0.02-0.16,0.19-0.33,0.19c-0.06,0-0.17-0.02-0.25-0.17c-0.08-0.15-0.07-0.33-0.06-0.51c0.01-0.2,0.02-0.4-0.08-0.55
				c-0.04-0.06-0.08-0.12-0.12-0.19c-0.22-0.35-0.5-0.78-0.43-1.1l0.02-0.1c0.06-0.34,0.15-0.8,0.54-1.37
				c0.39-0.57,0.45-1.08,0.45-1.09l0-0.04l0.03-0.03c0,0,0.46-0.53,0.59-1.23l0.03-0.15c0.13-0.75,0.37-2.14,0.3-2.58
				c-0.07-0.47-0.2-1.96-0.2-2.02l-0.19-0.69c-0.13-0.12-0.29-0.24-0.37-0.24c0,0-0.02,0.05-0.01,0.17
				c0.02,0.18,0.05,0.33,0.09,0.48c0.11,0.43,0.23,0.92,0.03,2.31c-0.05,0.33-0.08,0.57-0.1,0.77c-0.09,0.73-0.1,0.74-0.35,1.32
				c-0.07,0.17-0.17,0.39-0.3,0.71c-0.3,0.73-0.59,1.26-0.84,1.73c-0.3,0.55-0.53,0.98-0.64,1.49c-0.16,0.71-0.02,1.11,0.3,2.07
				c0.09,0.28,0.2,0.59,0.32,0.98c0.19,0.61,0.32,1.08,0.42,1.44c0.19,0.67,0.27,0.98,0.44,1.23c0.11,0.18,0.18,0.36,0.24,0.52
				c0.08,0.22,0.13,0.35,0.23,0.37l0.05,0.01c0.15,0.04,0.37,0.1,0.49,0.32c0.12,0.22,0.1,0.53-0.05,0.97
				c-0.1,0.3-0.24,0.69-0.41,1.15c-0.4,1.07-0.9,2.41-0.99,3.21c-0.08,0.71-0.09,1.25-0.09,1.58c0,0.27,0,0.36-0.03,0.42
				c-0.05,0.06-0.09,0.09-0.14,0.12c-0.08,0.04-0.16,0.09-0.22,0.22c-0.04,0.09-0.04,0.15-0.05,0.29c0,0.07,0,0.16-0.01,0.27
				c-0.02,0.51-0.12,1.64-0.13,1.81c0.02,0.07,0.05,0.27-0.07,0.43c-0.09,0.12-0.25,0.19-0.46,0.19l-0.18,0
				c-0.24,0-0.58,0-0.94,0.01c-0.67,0-1.4,0.01-1.59,0c-0.28-0.02-0.48,0.03-0.6-0.12c-0.07-0.08-0.08-0.2-0.04-0.39
				c0.04-0.14,0.07-0.32,0.1-0.52c0.1-0.59,0.2-1.2,0.49-1.38c0.28-0.17,0.78-0.64,0.9-0.76c0.03-0.2,0.14-1.03,0.26-1.46
				c0.06-0.22,0.08-0.47,0.1-0.71c0.02-0.27,0.04-0.53,0.12-0.71c0.13-0.32,0.46-1.65,0.46-2.04c0-0.07,0.01-0.15,0.02-0.25
				c0.05-0.49,0.15-1.4-0.73-2.44c-0.96-1.14-1.8-1.68-2.55-2.17l-0.25-0.16c-1.23-0.83-2.2-1.26-2.98-1.33
				c-0.63-0.05-1.52,0.24-2.1,0.53c-0.15,0.07-0.34,0.16-0.56,0.27c-0.58,0.27-1.36,0.65-2.05,1.01c-0.38,0.2-0.76,0.39-1.1,0.56
				c-0.64,0.32-1.19,0.6-1.44,0.75c-0.14,0.08-0.29,0.12-0.42,0.12c-0.31,0-0.54-0.22-0.59-0.58c-0.01-0.09-0.02-0.18-0.03-0.26
				c-0.04-0.45-0.09-0.52-0.36-0.49c-0.51,0.06-0.71,0.09-1.28,0.28c-0.46,0.15-1.06,0.66-1.32,1.41c-0.14,0.4-0.25,0.76-0.36,1.12
				c-0.11,0.37-0.23,0.74-0.37,1.17c-0.1,0.3-0.23,0.55-0.38,0.81c-0.11,0.2-0.22,0.4-0.32,0.64c-0.19,0.46-0.35,0.6-0.89,1.08
				c-0.15,0.14-0.34,0.3-0.56,0.51c-0.19,0.18-0.36,0.33-0.51,0.46c-0.48,0.42-0.8,0.7-1.15,1.4c-0.47,0.92-0.49,0.96-0.62,1.25
				c-0.08,0.19-0.19,0.28-0.27,0.34c-0.08,0.06-0.11,0.09-0.12,0.17c-0.02,0.25-0.06,1.27-0.06,1.28c0,0.02,0.03,0.36-0.12,0.53
				c-0.05,0.06-0.13,0.1-0.21,0.1c-0.47,0-0.9,0-1.3,0l-0.91,0c-0.3,0-0.56,0-0.77,0L304.15,515.32z M303.92,515.05
				c0,0,0.04,0.03,0.23,0.03l0.05,0c0.22,0,0.48,0,0.78,0l0.91,0c0.4,0,0.83,0,1.29,0c0.01,0,0.02,0,0.03-0.02
				c0.06-0.06,0.07-0.25,0.06-0.36c0-0.06,0.04-1.05,0.06-1.31c0.02-0.19,0.12-0.27,0.21-0.34c0.07-0.06,0.14-0.11,0.2-0.24
				c0.14-0.31,0.16-0.35,0.63-1.28c0.37-0.75,0.71-1.04,1.21-1.48c0.15-0.13,0.32-0.28,0.5-0.45c0.23-0.21,0.41-0.37,0.56-0.51
				c0.53-0.47,0.66-0.59,0.83-0.99c0.1-0.25,0.22-0.46,0.33-0.66c0.14-0.25,0.27-0.48,0.36-0.77c0.14-0.43,0.26-0.8,0.37-1.16
				c0.11-0.36,0.22-0.72,0.36-1.13c0.28-0.84,0.94-1.39,1.47-1.57c0.6-0.2,0.83-0.23,1.33-0.29c0.04-0.01,0.08-0.01,0.12-0.01
				c0.45,0,0.49,0.38,0.52,0.71c0.01,0.08,0.02,0.17,0.03,0.25c0.04,0.24,0.16,0.38,0.35,0.38c0.09,0,0.2-0.03,0.3-0.09
				c0.25-0.15,0.78-0.41,1.45-0.75c0.34-0.17,0.72-0.36,1.1-0.56c0.69-0.36,1.48-0.74,2.06-1.01c0.22-0.1,0.41-0.19,0.56-0.27
				c0.61-0.31,1.56-0.63,2.23-0.56c0.82,0.07,1.83,0.52,3.09,1.37l0.24,0.16c0.76,0.49,1.63,1.05,2.61,2.22
				c0.94,1.12,0.84,2.1,0.78,2.62c-0.01,0.09-0.02,0.17-0.02,0.23c0,0.43-0.34,1.78-0.48,2.13c-0.07,0.15-0.08,0.39-0.1,0.64
				c-0.02,0.26-0.04,0.52-0.11,0.76c-0.13,0.46-0.25,1.45-0.25,1.46l0,0.04l-0.03,0.03c-0.03,0.03-0.63,0.63-0.98,0.83
				c-0.19,0.12-0.3,0.75-0.38,1.21c-0.03,0.2-0.06,0.38-0.1,0.53c-0.03,0.16-0.01,0.19-0.01,0.19c0.02,0.02,0.13,0.02,0.2,0.02
				c0.07,0,0.14,0,0.23,0.01c0.19,0.01,0.91,0.01,1.57,0c0.36,0,0.7-0.01,0.94-0.01l0.19,0c0.13,0,0.22-0.03,0.26-0.09
				c0.06-0.08,0.04-0.2,0.03-0.24l-0.01-0.02l0-0.02c0-0.01,0.11-1.29,0.13-1.82c0.01-0.11,0.01-0.2,0.01-0.26
				c0-0.16,0.01-0.25,0.07-0.39c0.09-0.19,0.23-0.27,0.32-0.32c0.01-0.01,0.03-0.02,0.05-0.03c0.01-0.05,0.01-0.18,0.01-0.3
				c0-0.33,0-0.88,0.09-1.6c0.1-0.82,0.6-2.18,1.01-3.26c0.17-0.45,0.32-0.84,0.41-1.14c0.13-0.37,0.15-0.63,0.07-0.78
				c-0.07-0.13-0.2-0.16-0.33-0.2l-0.05-0.01c-0.22-0.05-0.31-0.28-0.4-0.52c-0.05-0.15-0.12-0.31-0.21-0.47
				c-0.18-0.28-0.27-0.6-0.47-1.29c-0.1-0.36-0.23-0.82-0.42-1.43c-0.12-0.38-0.22-0.7-0.31-0.97c-0.33-0.98-0.47-1.43-0.3-2.2
				c0.11-0.54,0.36-0.98,0.66-1.55c0.25-0.46,0.53-0.98,0.83-1.7c0.13-0.31,0.22-0.54,0.3-0.71c0.24-0.55,0.24-0.55,0.33-1.25
				c0.02-0.19,0.06-0.44,0.1-0.77c0.19-1.34,0.08-1.8-0.03-2.21c-0.04-0.16-0.08-0.32-0.1-0.52c-0.02-0.17,0-0.29,0.07-0.36
				c0.04-0.05,0.1-0.07,0.17-0.07c0.22,0,0.51,0.28,0.56,0.34l0.02,0.02l0.21,0.77c0,0.04,0.14,1.57,0.21,2.03
				c0.07,0.47-0.16,1.84-0.3,2.65l-0.03,0.15c-0.13,0.68-0.52,1.19-0.62,1.32c-0.02,0.14-0.12,0.62-0.49,1.16
				c-0.35,0.53-0.43,0.95-0.5,1.28l-0.02,0.1c-0.05,0.23,0.21,0.63,0.4,0.92c0.04,0.07,0.09,0.14,0.12,0.2
				c0.14,0.22,0.12,0.47,0.11,0.69c-0.01,0.16-0.02,0.3,0.03,0.39c0.01,0.02,0.02,0.04,0.03,0.04c0.04,0,0.12-0.07,0.17-0.12
				c0.02-0.02,0.34-0.28,0.54-0.65c0.08-0.16,0.17-0.31,0.26-0.48c0.15-0.26,0.31-0.56,0.48-0.93c0.19-0.43,0.09-0.7-0.07-1.1
				c-0.04-0.11-0.09-0.23-0.14-0.36c-0.14-0.41,0.01-0.87,0.22-1.56c0.13-0.42,0.29-0.94,0.45-1.61c0.38-1.65,0.28-2.46,0.09-3.92
				l-0.03-0.21c-0.2-1.63-1.82-3.76-2.59-4.79c-0.9-1.16-3.11-2.35-4.02-2.8c-0.83-0.41-1.76-0.63-2.74-0.86
				c-0.28-0.07-0.58-0.13-0.87-0.21c-0.66-0.16-1.29-0.26-1.97-0.37c-0.72-0.11-1.46-0.23-2.35-0.44c-1.52-0.35-3.15-0.96-4.03-1.28
				l-0.36-0.13c-0.34-0.12-0.61-0.23-0.88-0.34c-0.31-0.13-0.64-0.26-1.07-0.41c-0.78-0.25-1.45-0.47-2.41-0.67
				c-0.59-0.13-1.45-0.49-2.27-0.84c-0.5-0.21-1.02-0.43-1.45-0.58c-0.78-0.27-1.78-0.36-2.59-0.43c-0.38-0.03-0.71-0.06-0.97-0.1
				c-0.83-0.15-1.68-0.24-2.01-0.27c-1.21-0.12-1.92-0.26-2.49-0.37c-0.68-0.13-1.17-0.23-2.13-0.23c-0.43,0-0.95,0.02-1.57,0.06
				c-3.04,0.19-5.52,1.32-5.55,1.33c-0.05,0.03-1.54,1.01-1.87,1.2c-0.24,0.15-0.7,0.78-1.24,1.52c-0.17,0.24-0.36,0.49-0.55,0.75
				c-0.75,1-1.57,1.11-2.36,1.22c-0.1,0.01-0.19,0.03-0.29,0.04c-0.72,0.11-1.61-0.06-2.67-0.28c-0.19-0.04-0.39-0.08-0.6-0.12
				c-0.27-0.06-0.51-0.08-0.73-0.08c-0.37,0-0.6,0.08-0.82,0.15c-0.2,0.07-0.4,0.13-0.66,0.13c-0.4,0-0.95,0.31-1.47,0.6
				c-0.3,0.17-0.61,0.34-0.9,0.47c-0.46,0.19-0.83,0.59-1.19,0.98c-0.26,0.28-0.52,0.56-0.81,0.76c-0.96,0.68-1.18,1.47-1.48,2.57
				c-0.16,0.7-0.16,1.25-0.16,1.78c0,0.37,0,0.71-0.06,1.09c-0.12,0.9-0.07,1.31-0.07,1.32c0,0.02,0.26,2.14,0.92,3.11
				c0.39,0.75,0.51,1.48,0.61,2.12c0.06,0.37,0.11,0.71,0.21,1.01c0.15,0.45,0.36,0.8,0.53,1.07c0.14,0.22,0.25,0.4,0.28,0.57
				c0.01,0.07,0.07,0.19,0.13,0.33c0.19,0.43,0.51,1.14,0.41,2.07c-0.13,1.19,0.35,1.98,0.7,2.56c0.24,0.39,0.55,0.39,0.85,0.39
				c0.11,0,0.21,0,0.3,0.02c0.26,0.05,1.03-0.08,1.55-0.16c0.15-0.02,0.28-0.04,0.38-0.06c0.5-0.07,1.19,0.43,1.22,0.45l0.03,0.03
				c0,0.01,0.49,0.7,1.55,2.43c0.77,1.25,1.36,1.38,1.58,1.38c0.08,0,0.13-0.02,0.13-0.02l0.04-0.02l0.05,0.01h0
				c0,0,0.02,0.01,0.06,0.01c0.15,0,0.68-0.1,1.3-1.36c0.17-0.37,0.74-1.49,1.01-1.9c0.08-0.12,0.13-0.2,0.17-0.27
				c0.11-0.18,0.17-0.27,0.46-0.53c0.16-0.15,0.31-0.24,0.47-0.33c0.24-0.14,0.53-0.31,1.01-0.77c0.36-0.35,0.69-0.39,0.94-0.39
				c0.09,0,0.17,0.01,0.24,0.01c0.06,0,0.13,0.01,0.18,0.01c0.4,0,1.83,0.78,2.02,0.89c0.15,0.09,0.65,0.35,1.22,0.66
				c0.71,0.38,1.51,0.8,1.88,1.02c0.63,0.39,3.42,0.93,3.91,0.93c0.48,0,1.64,0.61,1.79,0.95c0.13,0.25,0.87,1.04,1.24,1.3
				c0.32,0.21,0.41,0.64,0.49,0.98c0.03,0.14,0.06,0.27,0.09,0.34c0.14,0.29,1.06,2.75,1.15,3.09c0.08,0.29,0.14,0.5,0.18,0.66
				c0.1,0.32,0.14,0.46,0.07,0.65c-0.04,0.1-0.12,0.2-0.23,0.34c-0.19,0.24-0.46,0.57-0.67,1.11l-0.02,0.05
				C303.97,514.87,303.91,515.01,303.92,515.05L303.92,515.05z"/>
		</g>
		<g>
			<g>
				<g>
					<path class="st6" d="M282.93,485.84c0.34-0.75,0.07-0.95-0.07-1.89c-0.13-0.93,0.03-1.52,1.42-0.2c1.31,1.38,1.21,3.1,1.21,3.1
						s0.14,1.14-1.41,2.49c-0.07-2.09-1.95-1.95-1.95-1.95S282.6,486.58,282.93,485.84z"/>
				</g>
			</g>
			<g>
				<g>
					<path class="st6" d="M279.85,490.9c0.42-0.02,0.52,0.37,1.16,0.52c0.56,0.13,0.32,0.56,0.01,0.64
						c-0.24,0.07-0.57,0.16-1.02,0.22c-0.39,0.05-0.56,0.12-1.05,0.03c-0.49-0.09-0.19-0.48-0.03-0.59c0.14-0.1,0.25-0.16,0.34-0.35
						C279.37,491.18,279.43,490.91,279.85,490.9z"/>
				</g>
			</g>
		</g>
	</g>
</g>
<g id="TEXT">
	<g>
		<path class="st2" d="M285.83,301.24h5.68l5.65,11.36h0.05l-0.07-11.36h4.07v16.72h-5.53l-5.85-11.43h-0.05l0.14,11.43h-4.1V301.24
			z"/>
		<path class="st2" d="M309.62,301.24h5.46l6.44,16.72h-4.89l-1.25-3.57h-6.28l-1.32,3.57h-4.53L309.62,301.24z M312.35,304.69
			h-0.05l-2.16,6.54h4.19L312.35,304.69z"/>
		<path class="st2" d="M325.79,304.55h-4.12v-3.31h12.7v3.31h-4.12v13.42h-4.46V304.55z"/>
		<path class="st2" d="M336.85,301.24h4.46v16.72h-4.46V301.24z"/>
		<path class="st2" d="M352.64,300.96c5.51,0,8.38,3.28,8.38,8.65c0,5.32-2.92,8.65-8.38,8.65c-5.46,0-8.38-3.33-8.38-8.65
			C344.25,304.24,347.13,300.96,352.64,300.96z M352.64,314.95c2.71,0,3.79-2.59,3.79-5.34c0-2.9-1.08-5.34-3.79-5.34
			c-2.71,0-3.79,2.44-3.79,5.34C348.85,312.36,349.93,314.95,352.64,314.95z"/>
		<path class="st2" d="M363.82,301.24h5.68l5.65,11.36h0.05l-0.07-11.36h4.07v16.72h-5.53l-5.84-11.43h-0.05l0.14,11.43h-4.1V301.24
			z"/>
		<path class="st2" d="M387.61,301.24h5.46l6.44,16.72h-4.89l-1.25-3.57h-6.28l-1.32,3.57h-4.53L387.61,301.24z M390.34,304.69
			h-0.05l-2.16,6.54h4.19L390.34,304.69z"/>
		<path class="st2" d="M401.5,301.24h4.46v13.42h6.9v3.31H401.5V301.24z"/>
		<path class="st2" d="M316.9,325.2h5.32c5.1,0,7.5,1.72,7.5,5.49c0,3.38-2.47,5.39-6.64,5.39h-1.73v5.85h-4.46V325.2z
			 M321.35,332.91h1.15c1.53,0,2.75-0.55,2.75-2.3c0-1.7-1.22-2.25-2.75-2.25h-1.15V332.91z"/>
		<path class="st2" d="M335.8,325.2h5.46l6.44,16.72h-4.89l-1.25-3.57h-6.28l-1.32,3.57h-4.53L335.8,325.2z M338.53,328.65h-0.05
			l-2.16,6.54h4.19L338.53,328.65z"/>
		<path class="st2" d="M349.57,325.2h7.95c2.97,0,5.39,1.34,5.39,4.22c0,2.23-1.05,3.71-3.21,4.22v0.05
			c1.44,0.38,1.53,1.65,2.37,3.69l1.63,4.55h-4.65l-0.96-3.02c-0.91-2.88-1.49-3.59-3.14-3.59h-0.93v6.61h-4.46V325.2z
			 M354.03,332.14h1.17c1.44,0,3.26-0.05,3.26-1.94c0-1.56-1.56-1.84-3.26-1.84h-1.17V332.14z"/>
		<path class="st2" d="M366.14,325.2h4.46v6.83h0.05l5.03-6.83h5.37l-6.18,7.79l6.66,8.94h-5.68l-5.2-7.59h-0.05v7.59h-4.46V325.2z"
			/>
		<path class="st2" d="M298.97,361.75c1.15,0.62,2.76,1.1,4.6,1.1c1.41,0,2.76-0.29,2.76-1.63c0-3.11-7.91-1.15-7.91-7.23
			c0-4.02,3.93-5.13,7.28-5.13c1.61,0,3.19,0.24,4.31,0.62l-0.29,3.45c-1.15-0.53-2.44-0.77-3.71-0.77c-1.13,0-2.99,0.1-2.99,1.56
			c0,2.71,7.91,0.89,7.91,6.92c0,4.34-3.64,5.51-7.35,5.51c-1.56,0-3.5-0.24-4.98-0.72L298.97,361.75z"/>
		<path class="st2" d="M313.68,349.15h11.79v3.16h-7.33v3.45h6.92v3.16h-6.92v3.79h7.59v3.16h-12.05V349.15z"/>
		<path class="st2" d="M328.55,349.15h7.95c2.97,0,5.39,1.34,5.39,4.22c0,2.23-1.05,3.71-3.21,4.22v0.05
			c1.44,0.38,1.53,1.65,2.37,3.69l1.63,4.55h-4.65l-0.96-3.02c-0.91-2.87-1.49-3.59-3.14-3.59h-0.93v6.61h-4.46V349.15z
			 M333.01,356.09h1.17c1.44,0,3.26-0.05,3.26-1.94c0-1.56-1.56-1.84-3.26-1.84h-1.17V356.09z"/>
		<path class="st2" d="M343.71,349.15h4.74l3.71,13.13h0.05l3.74-13.13h4.58l-5.7,16.72h-5.51L343.71,349.15z"/>
		<path class="st2" d="M362.78,349.15h4.46v16.72h-4.46V349.15z"/>
		<path class="st2" d="M384.75,365.49c-1.27,0.31-2.68,0.67-4.96,0.67c-4.46,0-9.61-2.25-9.61-8.58c0-5.82,4.07-8.72,9.58-8.72
			c1.7,0,3.35,0.38,4.96,0.86l-0.36,3.62c-1.44-0.79-2.83-1.17-4.36-1.17c-3.16,0-5.22,2.3-5.22,5.41c0,3.28,2.32,5.27,5.58,5.27
			c1.46,0,2.95-0.38,4.17-0.86L384.75,365.49z"/>
		<path class="st2" d="M386.9,349.15h11.79v3.16h-7.33v3.45h6.92v3.16h-6.92v3.79h7.59v3.16H386.9V349.15z"/>
	</g>
</g>
<g id="LOGO_OUTLINE">
	<g>
		<path class="st1" d="M314.19,555.11c-3.58,0-10.45-1.37-11.79-1.64c-4.19-0.86-9.56-3.11-11.33-3.85l-0.37-0.15
			c-1.25-0.52-6.43-2.77-6.97-3.04c-1.17-0.58-3.29-1.69-4.39-2.55c-1.5-1.19-2.9-4.02-3.06-4.34l-0.41-0.85l0.42-0.53
			c-0.44-0.34-1.04-0.88-1.9-1.66c-0.97-0.87-2.72-2.45-3.36-2.82c-1.39-0.16-2.34-1.43-2.52-1.7l-0.2-0.29l-0.05-0.35
			c-0.21-1.47-0.65-3.14-0.92-3.5c-0.47-0.44-0.91-1.34-1.78-3.29c-0.39-0.88-0.84-1.89-1.09-2.26c-0.69-1.03-0.58-1.86-0.52-2.31
			c0.01-0.05,0.02-0.11,0.02-0.16c-0.55-0.79-6.52-7.25-7.07-7.8c-0.77-0.77-4.04-7.29-4.07-7.35l-0.11-0.21l-0.04-0.23
			c0-0.01-0.22-1.36-0.71-2.4c-0.05-0.11-0.12-0.19-0.31-0.39c-0.12-0.13-0.25-0.27-0.38-0.43c-0.48-0.6-0.93-1.26-1.37-1.9
			c-0.39-0.58-0.97-1.43-1.26-1.69c-2.83-0.86-6.08-3.24-7.06-4.3l-0.14-0.15l-0.09-0.19c-0.31-0.61-0.45-1.61-0.64-3.46
			c-0.03-0.33-0.06-0.6-0.08-0.75c-0.25-1.54-3.23-7.71-3.77-8.46c-0.2-0.26-0.89-1.07-3.28-3.46c-0.33-0.33-0.73-0.96-2.15-3.29
			c-1.14-1.86-3.5-5.73-4.16-6.29c-0.78-0.52-2.92-3.15-9.11-11.24c-1.08-1.41-2.1-2.75-2.28-2.95c-1.97-2.2-2.82-6.81-3.43-10.18
			c-0.17-0.95-0.39-2.13-0.52-2.5c-0.07-0.08-0.17-0.19-0.28-0.32c-0.36-0.41-0.85-0.97-1.26-1.57c-1.61-2.36-2.78-5.36-2.98-6.15
			c-0.27-1.06-0.39-6.6-0.41-7.33c-0.07-0.42-0.56-2.26-1.4-5.08c-0.2-0.67-0.48-1.36-0.69-1.87c-0.13-0.31-0.23-0.56-0.28-0.72
			l-0.07-0.31c-0.01-0.05-0.58-5.25-0.97-6.97c-0.39-1.74-4.4-14.39-5.37-16.52c-0.28-0.62-0.77-1.81-1.35-3.22
			c-1.06-2.59-3.26-7.96-3.96-8.84c-1.02-0.86-1.61-2.4-2.05-3.53c-0.12-0.31-0.22-0.58-0.31-0.77c-0.59-1.17,0.01-2.36,0.49-3.31
			c0.16-0.32,0.36-0.71,0.4-0.9c0.1-0.5,0.26-0.89,0.41-1.23c0.23-0.54,0.47-1.1,0.58-2.45c0.2-2.42,0.4-5.64,0.4-5.64
			c0.18-2.28,0.25-5.11,0.07-5.72c-0.2-0.6-1.47-3.19-3.76-7.7l-0.41-0.81c-0.41-0.82-0.35-2.18-0.1-5.08
			c0.08-0.91,0.15-1.77,0.15-2.27c0-1.4-1.3-7.59-1.78-8.5c-0.39-0.52-0.72-1.15-1.11-1.89c-0.22-0.42-0.46-0.89-0.77-1.42
			c-1.05-1.84-1.06-6.59-0.28-8.42c0.79-1.84,1.7-4.54,1.7-5.28c0-0.37,0.07-0.85,0.19-1.58c0.24-1.55,0.88-5.66-0.33-6.72
			c-0.9-0.79-1.98-2.49-3.4-4.81l-0.38-0.62c-0.52-0.85-1.02-1.84-1.29-2.37l-0.3-0.58l-0.01-0.34c-0.03-0.73,0.32-2.7,1.13-7.02
			c0.4-2.13,0.94-5.04,0.96-5.56c0-0.21,0-0.45-0.01-0.7c-0.03-1.77-0.01-2.99,0.54-3.81c0.44-0.66,1.28-1.03,5-2.44
			c1.36-0.52,3.42-1.3,3.85-1.58c1.28-0.85,6.95-4.44,8.55-5.39c1.1-0.66,2.1-0.96,3.14-0.96c1.29,0,2.46,0.45,4.09,1.08
			c2.74,1.05,9.25,3.63,10.39,4.09c1.6,0.64,9.57,3.28,11.32,3.28c4-0.46,6.33-2.15,7.21-2.79l0.21-0.15
			c0.68-0.64,2.45-5.17,2.45-6.69c0-1.5-1.51-6.4-2.09-7.55c-0.12-0.25-0.29-0.59-0.47-0.99c-0.47-1-1.71-3.66-2.27-4.12
			c-1.44-1.15-2.17-3.26-2.04-4.64c0.08-0.83,0.82-2.99,1.14-3.88l0.29-0.81l0.84-0.16c1.46-0.28,2.08-0.6,2.58-0.86
			c0.31-0.16,0.64-0.33,1.05-0.43c0.75-0.18,2.97-0.97,4.44-1.49c0.83-0.3,1.53-0.55,1.86-0.65c0.19-0.06,1.01-0.41,1.74-0.71
			c3.36-1.41,5.11-2.1,6-2.19c0.41-0.04,2.05-0.62,3.14-1c2.35-0.82,3.38-1.16,4.05-1.16c0.41-0.03,2.05-0.61,2.93-0.91
			c0.93-0.33,1.73-0.61,2.23-0.72c0.53-0.12,2.44-0.69,3.97-1.14c1.96-0.58,2.79-0.83,3.1-0.89c0.18-0.05,1.28-0.46,2.25-0.82
			c3.66-1.36,5.29-1.93,6.11-2.05c2.43-0.69,5.79-1.24,6.9-1.42l0.21-0.03c1.23-0.21,5.33-0.6,7.23-0.48
			c0.09,0.01,0.22,0.01,0.36,0.01c1.71,0,6.44-0.32,9.57-0.53c2.12-0.14,3.15-0.21,3.46-0.21c0.63,0,4.68-0.13,5.9-0.46
			c2.01-0.54,17.21-1.17,17.36-1.18l0.19-0.01l0.19,0.04c0.14,0.03,0.32,0.07,0.55,0.11c1.76,0.36,3.73,0.8,4.85,1.47
			c1.15,0.69,6.88,3.19,8.78,3.51c1.09,0.18,3.86,0.4,6.79,0.64c7.9,0.64,9.65,0.86,10.41,1.31l0.3,0.24
			c0.37,0.38,1.12,1.29,2.32,2.74c1.07,1.29,2.83,3.43,3.28,3.84c0.45,0.3,1.57,1.19,3.84,3.02c1.25,1.01,2.54,2.04,2.92,2.32
			l0.13,0.1c0.68,0.61,1.41,1.27,1.77,2.76c0.17,0.73,0.17,1.29,0.1,1.7c0.67,2.71,0.67,3.17,0.67,3.33c0,1.06-0.6,1.48-4.22,3.83
			c-0.92,0.6-2.18,1.42-2.44,1.65l-0.38,0.35l-0.55,0.07c-0.69,0.31-2.01,3.6-1.62,6.02c0.4,2.5,2.94,5.63,3.66,5.98
			c0.61,0.18,3.52,0.78,5.44,1.18c2.22,0.46,2.58,0.54,2.78,0.6c0.72,0.24,2.14,1.61,2.61,2.47c0.29,0.33,1.32,1.15,1.69,1.35
			c0.48,0.16,0.85,0.49,1.26,0.87c0.24,0.22,0.73,0.67,0.94,0.73l0.54,0c0.47,0,1.12,0.01,1.86,0.01c4.77,0,5.72-0.24,5.86-0.28
			c0.36-0.13,0.81-0.19,1.4-0.19c1.25,0,3.04,0.28,4.63,0.52c0.93,0.14,1.97,0.31,2.32,0.31c0.01,0,7.2-1.06,8.48-1.3
			c0.15-0.03,0.31-0.04,0.48-0.04c1.39,0,3.34,0.99,5.94,2.4c0.54,0.29,1.03,0.56,1.44,0.76c0.58,0.29,1.76,0.76,3.01,1.26
			c4.77,1.89,6.23,2.6,6.73,3.59c0.54,1.08,0.34,1.81,0.08,2.38c-0.01,0.03-0.03,0.06-0.04,0.09c0.01,0.38,0.03,1.66,0.06,2.99
			c0.03,1.44,0.06,2.94,0.06,3.44c0.01,0.49,0.42,3.79,0.69,5.98c0.4,3.18,0.5,4.09,0.5,4.4c0,0.27,0,1.07-1.59,4.25
			c-0.25,0.49-0.75,1.34-1.28,2.25c-0.42,0.72-1.07,1.81-1.18,2.06c-0.27,0.68-0.33,0.98-0.33,1.1c0.18,0.48,0.61,1.81,1.19,3.62
			c0.25,0.79,0.48,1.5,0.61,1.88c0.09,0.26,0.25,0.52,0.41,0.79c0.36,0.58,0.91,1.45,0.54,2.55c-0.14,0.43-0.5,1.08-1.13,2.19
			c-0.42,0.74-1.11,1.98-1.22,2.31l-0.02,0.12c-0.82,4.8-0.81,5.87-0.79,6.09c0.07,0.67,0.07,1.96,0.07,3.32c0,1.01,0,2.39,0.04,2.7
			c0.11,0.77-0.22,1.98-2.39,7.66c-0.29,0.75-0.53,1.39-0.67,1.77c-0.32,0.91-0.51,2.38-0.51,4.03c0,0.22,0.05,1.7,0.11,3.26
			c0.08,2.22,0.13,3.7,0.13,4.02c0,0.86-0.57,1.65-2.21,3.69c-0.39,0.49-0.78,0.97-1.06,1.36c-0.22,0.31-0.7,0.9-1.3,1.65
			c-1.15,1.43-4.09,5.07-4.69,6.35c0.24,0.66,0.51,1.68,0.88,3.12c0.34,1.31,0.73,2.8,0.99,3.42c0.45,1.07,1.02,3.22,1.44,4.79
			c0.18,0.66,0.31,1.18,0.38,1.39c0.48,1.44-0.59,4.85-0.6,4.89c-0.13,0.4-0.46,1.1-0.97,2.21c-0.29,0.62-0.72,1.55-0.79,1.77
			c-0.04,0.15-0.12,0.38-0.22,0.65c-0.15,0.38-0.32,0.82-0.32,1.21c0,0.47-0.08,1.4-0.18,2.48c-0.08,0.89-0.21,2.37-0.2,2.76
			c0.2,1.19-0.7,3.21-1.26,3.92c-1.08,1.35-6.41,8.26-7.21,9.96c-0.32,0.68-0.72,1.64-1.15,2.65c-0.88,2.11-1.8,4.29-2.54,5.41
			c-0.56,0.85-1.14,4.4-1.18,5.18c0.04,0.59,0.13,2.13-1.63,3.88c-1.5,1.5-7.4,7.84-8.18,8.91c-0.26,0.71-0.96,3.01-1.05,3.51
			c-0.07,0.91-0.9,2.58-1.8,3.61c-2.04,2.58-4.46,5.86-4.73,6.57c-0.47,1.29-1.15,3.33-1.15,3.33c-0.22,0.66-0.37,1.19-0.49,1.65
			c-0.11,0.39-0.21,0.74-0.32,1.08c-0.14,0.42-0.31,2.39-0.27,3.09c0.04,0.57,0.21,1.27,0.34,1.78c0.07,0.28,0.13,0.52,0.16,0.7
			c0.22,1.18-0.65,2.95-1.9,3.87l-0.1,0.07c-1.52,1.11-2.39,1.86-2.59,2.21c-0.51,0.89-1.86,3.84-2.06,4.71
			c0.09,0.33,0.24,0.71,0.37,1.05c0.26,0.67,0.46,1.2,0.46,1.72c0,1.31-1.2,1.85-1.78,2.11c-0.08,0.04-0.17,0.07-0.23,0.11
			c-0.53,0.4-5.07,4.34-5.8,5.35c-0.58,0.79-1.65,2.26-2.11,3.64l-0.13,0.39c-0.36,1.07-1.02,3.07-1.05,3.57
			c0,0.39,0.01,0.77,0.02,1.1c0.01,0.26,0.01,0.49,0.01,0.67v0.72l-0.56,0.45c-0.7,0.56-5.15,4.55-5.52,4.91
			c-0.51,0.51-6.52,4.94-8.03,5.87c-0.37,0.64-0.92,2.83-0.93,3.43c0,1.95-3.06,3.99-3.67,4.31c-1.09,0.58-3.15,2.19-3.47,2.65
			l-0.09,0.18c-0.35,0.69-0.88,1.73-1.06,2.7c-0.28,1.55-2.28,5.93-2.78,6.6c-0.18,0.24-0.53,0.59-1.53,1.55
			c-0.97,0.94-3.25,3.15-3.58,3.73c-0.13,0.24-0.35,0.53-0.75,1.06c-0.28,0.37-0.79,1.05-0.9,1.27c-0.42,0.92-1.22,1.52-1.76,1.92
			l-0.11,0.08c-0.34,0.26-1.53,1.58-1.75,2.04c-0.62,1.24-2.65,3.1-3.8,4.1c-0.64,0.55-0.97,0.9-1.27,1.21
			c-0.6,0.62-1.03,1.04-2.36,1.9c-2.17,1.41-3.7,2.07-5.46,2.83C315.9,555,315.19,555.11,314.19,555.11z M279.31,538.87
			c0.54,1,1.32,2.2,1.88,2.65c0.64,0.5,2.08,1.34,3.87,2.23c0.39,0.2,5.38,2.37,6.78,2.95l0.38,0.16c1.7,0.71,6.87,2.88,10.77,3.68
			c3.57,0.73,8.64,1.58,11.19,1.58c0.8,0,1.05-0.08,1.06-0.09c1.7-0.74,3.05-1.32,5.02-2.59c1.11-0.72,1.36-0.98,1.83-1.46
			c0.32-0.34,0.73-0.75,1.46-1.39c1.93-1.67,2.9-2.81,3.08-3.17c0.49-0.98,2.05-2.66,2.64-3.1l0.12-0.09
			c0.29-0.21,0.72-0.54,0.82-0.76c0.2-0.44,0.62-1.01,1.23-1.83c0.23-0.3,0.44-0.57,0.52-0.72c0.47-0.86,2.07-2.45,4.12-4.42
			c0.52-0.51,1.12-1.08,1.24-1.22c0.3-0.48,2.01-4.25,2.21-5.3c0.25-1.4,0.93-2.72,1.33-3.52l0.11-0.23
			c0.65-1.29,3.83-3.42,4.71-3.89c0.76-0.41,1.89-1.45,2.1-1.87c0.12-0.96,0.71-4.95,2.33-5.77c0.67-0.37,6.85-4.87,7.51-5.47
			c0.3-0.3,3.67-3.33,5.17-4.63c-0.01-0.33-0.02-0.71-0.02-1.1c0-0.84,0.48-2.33,1.21-4.51l0.13-0.39c0.61-1.82,1.86-3.54,2.53-4.46
			c1.06-1.45,6.09-5.76,6.58-6.09c0.11-0.08,0.26-0.16,0.43-0.24c-0.02-0.04-0.03-0.08-0.05-0.12c-0.19-0.5-0.41-1.07-0.54-1.65
			c-0.36-1.59,2.4-6.63,2.43-6.68c0.57-1,2-2.1,3.42-3.14l0.1-0.07c0.38-0.28,0.64-0.79,0.7-1.02c-0.03-0.11-0.06-0.25-0.1-0.4
			c-0.16-0.63-0.37-1.48-0.43-2.33c-0.05-0.84,0.09-3.25,0.42-4.22c0.1-0.29,0.18-0.59,0.28-0.93c0.14-0.5,0.3-1.07,0.54-1.79l0,0
			c0,0,0.69-2.08,1.17-3.41c0.52-1.43,4.15-6.07,5.25-7.46c0.61-0.7,1.04-1.67,1.12-1.97c0.12-1.01,1.19-4.22,1.29-4.46
			c0.46-1.16,8.72-9.73,8.8-9.81c0.81-0.81,0.78-1.29,0.76-1.58c0-0.09-0.01-0.16-0.01-0.22c0-0.28,0.49-5.01,1.68-6.8
			c0.59-0.88,1.52-3.12,2.27-4.91c0.44-1.06,0.86-2.06,1.2-2.77c1.09-2.31,7.52-10.48,7.58-10.56c0.21-0.26,0.58-1.22,0.63-1.62
			c-0.07-0.44-0.03-1.14,0.18-3.46c0.08-0.88,0.17-1.88,0.17-2.22c0-0.95,0.31-1.76,0.52-2.3c0.05-0.13,0.1-0.24,0.12-0.33
			c0.09-0.35,0.34-0.9,0.97-2.27c0.32-0.69,0.76-1.63,0.85-1.9c0.24-0.72,0.62-2.53,0.57-3.06c-0.09-0.27-0.23-0.82-0.41-1.5
			c-0.38-1.41-0.95-3.53-1.31-4.42c-0.34-0.81-0.72-2.27-1.12-3.81c-0.28-1.06-0.69-2.67-0.87-3.01c-0.63-1.26-0.05-2.53,5.24-9.09
			c0.56-0.69,1.01-1.25,1.21-1.53c0.31-0.42,0.72-0.94,1.15-1.48c0.49-0.62,1.29-1.61,1.54-2.05c-0.02-0.64-0.08-2.3-0.12-3.68
			c-0.06-1.61-0.11-3.14-0.11-3.37c0-1.42,0.12-3.46,0.68-5.04c0.14-0.4,0.39-1.05,0.69-1.83c0.62-1.63,2.06-5.4,2.2-6.3
			c-0.06-0.54-0.06-1.51-0.06-2.99c0-1.17,0-2.5-0.05-3.02c-0.06-0.61-0.02-1.95,0.82-6.89l0.03-0.19c0.1-0.6,0.55-1.44,1.54-3.21
			c0.27-0.48,0.62-1.1,0.8-1.46c-0.04-0.07-0.1-0.16-0.14-0.23c-0.22-0.35-0.51-0.82-0.71-1.43c-0.13-0.38-0.36-1.11-0.62-1.91
			c-0.4-1.26-1.01-3.16-1.14-3.49c-0.42-1.04-0.05-2.24,0.36-3.26c0.15-0.38,0.54-1.05,1.37-2.46c0.46-0.78,0.98-1.67,1.18-2.06
			c0.69-1.38,1.18-2.57,1.27-2.95c-0.04-0.48-0.27-2.34-0.48-3.99c-0.44-3.56-0.71-5.76-0.71-6.35c0-0.49-0.03-1.96-0.06-3.37
			c-0.03-1.35-0.06-2.66-0.06-3.07c0-0.45,0.1-0.8,0.19-1.06c-0.93-0.57-3.58-1.62-5.07-2.21c-1.37-0.54-2.54-1.01-3.24-1.36
			c-0.43-0.22-0.96-0.5-1.53-0.81c-1.22-0.66-3.77-2.04-4.51-2.04c-1.27,0.23-8.29,1.27-8.58,1.31c-0.13,0.02-0.24,0.02-0.37,0.02
			c-0.55,0-1.42-0.13-2.78-0.34c-1.4-0.22-3.15-0.49-4.17-0.49c-0.3,0-0.41,0.03-0.42,0.03c-0.59,0.22-1.9,0.45-6.84,0.45
			c-0.75,0-1.41-0.01-1.88-0.01l-0.58,0c-1.27,0-2.26-0.91-2.91-1.52c-0.12-0.11-0.23-0.22-0.33-0.29c-0.89-0.4-2.75-1.79-3.23-2.73
			c-0.16-0.24-0.74-0.82-1.03-1.05c-0.35-0.08-1.39-0.29-2.33-0.49c-2.81-0.58-5.02-1.04-5.75-1.26c-1.89-0.57-5.16-4.99-5.7-8.36
			c-0.41-2.59,0.44-6.11,1.94-8.02c0.64-0.82,1.3-1.2,1.85-1.36c0.46-0.35,1.22-0.85,2.53-1.71c0.83-0.54,2.09-1.36,2.75-1.85
			c-0.13-0.61-0.36-1.6-0.57-2.45l-0.14-0.57l0.19-0.35c0-0.07-0.01-0.21-0.06-0.42c-0.14-0.58-0.31-0.74-0.81-1.19
			c-0.49-0.36-1.64-1.29-2.97-2.36c-1.3-1.05-3.27-2.63-3.6-2.85c-0.47-0.28-1.14-1.03-3.95-4.44c-0.74-0.9-1.51-1.82-1.93-2.3
			c-1.26-0.28-5.9-0.65-9.03-0.91c-3.12-0.25-5.82-0.47-7.04-0.67c-2.49-0.41-8.6-3.15-9.83-3.89c-0.78-0.47-2.97-0.91-3.91-1.1
			c-0.15-0.03-0.29-0.06-0.41-0.08c-2.72,0.1-15.16,0.71-16.5,1.07c-1.82,0.49-6.63,0.56-6.68,0.56c-0.24,0-1.77,0.1-3.26,0.2
			c-3.36,0.23-7.96,0.54-9.77,0.54c-0.23,0-0.42,0-0.56-0.01c-1.72-0.11-5.58,0.28-6.53,0.44l-0.22,0.04
			c-1.09,0.18-4.41,0.72-6.68,1.38l-0.37,0.06c-0.58,0.09-3.84,1.3-5.41,1.88c-1.9,0.7-2.41,0.89-2.71,0.95
			c-0.25,0.05-1.68,0.48-2.83,0.82c-2.08,0.62-3.59,1.07-4.18,1.2c-0.33,0.07-1.16,0.36-1.89,0.62c-1.92,0.67-3.14,1.08-3.92,1.08
			c-0.36,0.04-1.99,0.61-3.06,0.99c-1.9,0.67-3.11,1.08-3.83,1.15c-0.67,0.09-3.8,1.41-5.13,1.97c-1.1,0.46-1.69,0.71-2,0.81
			c-0.31,0.1-0.97,0.33-1.76,0.62c-2.1,0.75-3.91,1.38-4.75,1.59c-0.05,0.01-0.22,0.1-0.36,0.17c-0.5,0.26-1.22,0.64-2.55,0.97
			c-0.35,1.03-0.67,2.08-0.71,2.37c-0.04,0.41,0.32,1.53,0.93,2.02c1,0.8,2,2.83,3.11,5.19c0.17,0.37,0.32,0.69,0.44,0.92
			c0.67,1.35,2.4,6.75,2.4,8.89c0,1.95-1.95,7.9-3.72,9.14l-0.17,0.13c-1.05,0.77-3.85,2.8-8.6,3.35c-0.11,0.01-0.23,0.02-0.37,0.02
			c-2.66,0-11.88-3.27-12.44-3.49c-1.1-0.44-7.68-3.05-10.33-4.06c-1.4-0.54-2.3-0.89-3.03-0.89c-0.34,0-0.8,0.06-1.6,0.54
			c-1.58,0.94-7.17,4.47-8.42,5.31c-0.68,0.45-2.13,1.01-4.45,1.89c-1.17,0.44-2.86,1.09-3.57,1.43c-0.07,0.49-0.05,1.42-0.04,1.96
			c0,0.27,0.01,0.53,0.01,0.76c0,0.65-0.31,2.36-1.01,6.1c-0.38,2.05-0.95,5.05-1.06,6.08c0.25,0.5,0.7,1.38,1.14,2.09l0.38,0.62
			c0.87,1.42,2.19,3.57,2.82,4.12c2.44,2.15,1.74,6.71,1.31,9.43c-0.07,0.43-0.15,0.97-0.15,1.12c0,1.91-1.93,6.42-1.94,6.46
			c-0.47,1.09-0.39,4.86,0.13,5.75c0.33,0.57,0.59,1.08,0.82,1.53c0.33,0.65,0.6,1.16,0.9,1.55c0.97,1.29,2.33,8.77,2.33,10.22
			c0,0.63-0.08,1.55-0.16,2.52c-0.09,1.06-0.25,3.01-0.16,3.58l0.36,0.7c1.85,3.63,3.6,7.12,3.93,8.11c0.45,1.36,0.2,5.26,0.07,6.87
			l0,0c0,0-0.2,3.24-0.41,5.68c-0.15,1.84-0.53,2.73-0.81,3.37c-0.13,0.29-0.19,0.46-0.23,0.64c-0.12,0.58-0.39,1.13-0.66,1.66
			c-0.12,0.24-0.31,0.62-0.38,0.83c0.1,0.22,0.21,0.5,0.33,0.81c0.27,0.69,0.77,1.98,1.19,2.32c0.82,0.66,1.81,2.71,4.79,9.99
			c0.56,1.37,1.03,2.52,1.31,3.12c1.05,2.31,5.15,15.25,5.57,17.11c0.38,1.71,0.89,6.15,1,7.11c0.04,0.11,0.1,0.24,0.16,0.4
			c0.23,0.57,0.55,1.34,0.79,2.15c1.53,5.11,1.53,5.62,1.53,5.86c0,0.9,0.18,5.99,0.32,6.7c0.1,0.37,1.11,3.06,2.55,5.18
			c0.3,0.45,0.71,0.91,1.03,1.27c0.24,0.27,0.43,0.5,0.53,0.64c0.4,0.57,0.58,1.47,0.97,3.64c0.49,2.67,1.3,7.15,2.71,8.72
			c0.23,0.25,0.91,1.14,2.43,3.13c2.26,2.96,7.57,9.89,8.47,10.63c0.86,0.57,2.18,2.58,4.98,7.17c0.72,1.18,1.53,2.51,1.74,2.76
			c1.95,1.95,3.08,3.15,3.54,3.76c0.71,0.95,3.99,7.66,4.33,9.78c0.03,0.18,0.07,0.52,0.11,0.92c0.05,0.5,0.18,1.74,0.3,2.28
			c0.94,0.87,3.58,2.71,5.61,3.29c1.04,0.3,1.77,1.37,2.77,2.84c0.4,0.59,0.81,1.2,1.23,1.71c0.08,0.1,0.16,0.19,0.24,0.27
			c0.25,0.27,0.57,0.61,0.82,1.16c0.53,1.13,0.81,2.43,0.91,2.97c0.78,1.55,2.98,5.77,3.46,6.43c0.67,0.7,6.73,7.19,7.44,8.33
			c0.57,0.92,0.47,1.68,0.41,2.1c-0.01,0.05-0.02,0.11-0.02,0.16c0,0,0.02,0.04,0.06,0.09c0.39,0.58,0.83,1.56,1.33,2.7
			c0.36,0.8,0.95,2.13,1.18,2.42c0.92,0.85,1.43,3.18,1.68,4.74c0.09,0.09,0.19,0.17,0.25,0.21c0.94,0.05,1.91,0.81,4.98,3.57
			c0.71,0.63,1.67,1.5,1.93,1.67c0.61,0.38,1.01,0.96,1.12,1.62C279.52,538.04,279.44,538.49,279.31,538.87z"/>
	</g>
</g>
</svg>
